<svg width="186" height="151" viewBox="0 0 186 151" fill="none" xmlns="http://www.w3.org/2000/svg">
<path d="M138.031 26.0375H24.6844C21.4571 26.0375 18.8398 28.5982 18.8398 31.7574V161.077C18.8398 173.195 28.4319 183.021 40.263 183.021H41.8614C51.3564 183.021 58.7863 180.056 60.6905 165.007H60.7108C61.1745 161.303 61.3079 156.88 61.0456 151.579L144.151 151.855L143.873 31.7443C143.869 28.5909 141.254 26.0375 138.031 26.0375Z" fill="#385AC9" fill-opacity="0.06"/>
<path d="M24.6846 26.6H138.031C140.864 26.6 143.159 28.7709 143.304 31.4808L143.311 31.7455L143.587 151.29L61.0479 151.017L60.4551 151.015L60.4844 151.607C60.7339 156.65 60.6216 160.883 60.2109 164.446H60.1953L60.1328 164.937C59.1906 172.383 56.896 176.722 53.7715 179.218C50.6388 181.721 46.5648 182.458 41.8613 182.458H40.2627C28.755 182.458 19.4025 172.898 19.4023 161.078V31.7572C19.4024 28.9199 21.7562 26.6 24.6846 26.6Z" stroke="#385AC9" stroke-opacity="0.31" stroke-width="1.12421"/>
<path d="M34.3242 66.4188C34.3242 73.7255 40.0774 79.6469 47.1755 79.6469C54.2735 79.6469 60.0268 73.7241 60.0268 66.4188C60.0268 59.1135 47.1755 45.3246 47.1755 45.3246C47.1755 45.3246 34.3242 59.1121 34.3242 66.4188Z" fill="#FF9500" fill-opacity="0.61"/>
<path d="M129.796 58.6326H85.7655C84.1656 58.6326 82.8672 57.3342 82.8672 55.7343C82.8672 54.1344 84.1656 52.8359 85.7655 52.8359H129.797C131.397 52.8359 132.696 54.1344 132.696 55.7343C132.696 57.3342 131.397 58.6326 129.796 58.6326Z" fill="#F3B561"/>
<path d="M116.343 72.1377H85.7655C84.1656 72.1377 82.8672 70.8392 82.8672 69.2393C82.8672 67.6394 84.1656 66.341 85.7655 66.341H116.345C117.944 66.341 119.243 67.6394 119.243 69.2393C119.243 70.8392 117.944 72.1377 116.343 72.1377Z" fill="#F3B561"/>
<path d="M38.7914 136.352C38.2045 136.352 37.6132 136.174 37.0988 135.806C35.8003 134.869 35.5061 133.058 36.4437 131.759L45.7619 118.831L37.0176 118.849C37.0162 118.849 37.0133 118.849 37.0118 118.849C35.8931 118.849 34.8728 118.204 34.3932 117.192C33.912 116.179 34.0599 114.979 34.77 114.113L47.3836 98.7241C48.3994 97.4879 50.2254 97.3068 51.4615 98.3198C52.6991 99.3342 52.8803 101.16 51.8658 102.399L43.1433 113.039L51.4253 113.022H51.4311C52.518 113.022 53.5136 113.629 54.0092 114.597C54.5062 115.565 54.4178 116.731 53.7817 117.615L41.1434 135.149C40.5782 135.934 39.6913 136.352 38.7914 136.352Z" fill="#385AC9" fill-opacity="0.87"/>
<path d="M129.338 117.018H82.5663C80.9664 117.018 79.668 115.72 79.668 114.12C79.668 112.52 80.9664 111.221 82.5663 111.221H129.338C130.938 111.221 132.237 112.52 132.237 114.12C132.237 115.72 130.938 117.018 129.338 117.018Z" fill="#385AC9" fill-opacity="0.87"/>
<path d="M115.048 131.458H82.5663C80.9664 131.458 79.668 130.159 79.668 128.56C79.668 126.96 80.9664 125.661 82.5663 125.661H115.048C116.648 125.661 117.946 126.96 117.946 128.56C117.946 130.159 116.648 131.458 115.048 131.458Z" fill="#385AC9" fill-opacity="0.87"/>
<path d="M144.151 48.8709C156.579 48.8709 166.654 38.748 166.654 26.2609C166.654 13.7737 156.579 3.65088 144.151 3.65088C131.723 3.65088 121.648 13.7737 121.648 26.2609C121.648 38.748 131.723 48.8709 144.151 48.8709Z" fill="#385AC9"/>
<path d="M140.301 36.5643C139.714 36.5643 139.123 36.386 138.614 36.0208L132.536 31.6646C131.236 30.7328 130.936 28.9213 131.868 27.62C132.8 26.3201 134.611 26.0201 135.913 26.9533L139.918 29.8227L151.958 16.8787C153.052 15.7063 154.884 15.6411 156.055 16.7309C157.227 17.8206 157.292 19.6553 156.204 20.8277L142.427 35.6382C141.859 36.2498 141.082 36.5643 140.301 36.5643Z" fill="white" fill-opacity="0.87"/>
</svg>
