<svg width="180" height="180" viewBox="0 0 180 180" fill="none" xmlns="http://www.w3.org/2000/svg">
<g clip-path="url(#clip0_771_27198)">
<path d="M180 15.8203V100.898C180 109.653 172.934 116.719 164.18 116.719H15.8203C7.06605 116.719 0 109.653 0 100.898V15.8203C0 11.4964 1.79262 7.5934 4.53516 4.74609H4.64062L86.625 51.5742C87.68 52.3125 88.8402 52.7344 90 52.7344C91.1598 52.7344 92.32 52.3129 93.375 51.5742L175.359 4.74609H175.465C178.207 7.5934 180 11.4964 180 15.8203Z" fill="#385AC9"/>
<path d="M180 15.8203V100.898C180 109.653 172.934 116.719 164.18 116.719H90V52.7344C91.1602 52.7344 92.32 52.3129 93.375 51.5742L175.359 4.74609H175.465C178.207 7.5934 180 11.4964 180 15.8203Z" fill="#5070D6"/>
<path d="M175.359 4.64062V4.74609L93.375 72.668C92.32 73.4062 91.1598 73.8281 90 73.8281C88.8402 73.8281 87.68 73.4066 86.625 72.668L4.64062 4.74609V4.64062C7.48863 1.79262 11.4964 0 15.8203 0H164.18C168.504 0 172.511 1.79262 175.359 4.64062Z" fill="#69A9FF"/>
<path d="M175.359 4.64062V4.74609L93.375 72.668C92.32 73.4062 91.1598 73.8281 90 73.8281V0H164.18C168.504 0 172.511 1.79262 175.359 4.64062Z" fill="#69A9FF"/>
<path d="M132.188 85.0781C106.032 85.0781 84.7266 106.383 84.7266 132.539C84.7266 158.695 106.032 180 132.188 180C158.343 180 180 158.695 180 132.539C180 106.383 158.343 85.0781 132.188 85.0781Z" fill="#69A9FF"/>
<path d="M180 132.539C180 158.695 158.343 180 132.188 180V85.0781C158.343 85.0781 180 106.383 180 132.539Z" fill="#0095FF"/>
<path d="M157.324 125.683L132.187 150.469L130.605 152.05C129.656 153.105 128.285 153.633 126.914 153.633C125.543 153.633 124.172 153.105 123.223 152.05L107.403 136.23C105.293 134.226 105.293 130.852 107.403 128.848C109.406 126.738 112.781 126.738 114.785 128.848L126.914 140.871L132.187 135.597L149.59 118.301C151.594 116.191 155.32 116.191 157.324 118.301C159.433 120.305 159.433 123.679 157.324 125.683Z" fill="#F7F0EB"/>
<path d="M157.324 125.683L132.188 150.469V135.597L149.59 118.301C151.594 116.191 155.32 116.191 157.324 118.301C159.434 120.305 159.434 123.679 157.324 125.683Z" fill="white"/>
</g>
<defs>
<clipPath id="clip0_771_27198">
<rect width="180" height="180" fill="white"/>
</clipPath>
</defs>
</svg>
