<svg width="813" height="590" viewBox="0 0 813 590" fill="none" xmlns="http://www.w3.org/2000/svg">
<g opacity="0.4">
<path d="M617.109 445.617V567.232C617.109 569.497 616.425 571.601 615.251 573.351C614.792 574.036 614.257 574.667 613.659 575.231C613.497 575.384 613.331 575.532 613.16 575.675C611.251 577.27 608.793 578.23 606.111 578.23H405.968C403.298 578.23 400.849 577.278 398.944 575.695C398.765 575.546 398.589 575.391 398.42 575.231C397.823 574.667 397.288 574.036 396.828 573.351C395.844 571.885 395.205 570.169 395.024 568.317C394.988 567.96 394.97 567.598 394.97 567.232V445.616C394.97 445.25 394.988 444.888 395.024 444.531C395.29 441.815 396.543 439.39 398.421 437.617C398.59 437.457 398.765 437.302 398.944 437.153C400.849 435.57 403.298 434.618 405.969 434.618H606.111C608.794 434.618 611.251 435.578 613.16 437.173C613.331 437.316 613.497 437.464 613.659 437.617C615.783 439.623 617.109 442.465 617.109 445.617Z" fill="#7597FF"/>
<path d="M506.065 506.423L489.737 516.982L398.943 575.695C398.764 575.546 398.589 575.391 398.42 575.231C397.823 574.667 397.288 574.037 396.828 573.352C395.844 571.886 395.204 570.169 395.023 568.318V444.531C395.289 441.816 396.543 439.39 398.42 437.618C398.589 437.458 398.764 437.303 398.943 437.154L487.587 494.475L489.738 495.866L506.065 506.423Z" fill="#87A5FF"/>
<path d="M617.109 445.616V567.232C617.109 569.497 616.424 571.602 615.251 573.351C614.791 574.036 614.256 574.667 613.658 575.231C613.497 575.384 613.33 575.532 613.159 575.675L522.364 516.962L506.065 506.423L522.363 495.886L524.515 494.495L613.159 437.174C613.331 437.316 613.497 437.464 613.659 437.617C615.783 439.623 617.109 442.465 617.109 445.616Z" fill="#87A5FF"/>
<path d="M489.739 495.866L506.066 506.423L489.738 516.982L398.944 575.695C398.765 575.546 398.59 575.391 398.421 575.231C397.823 574.667 397.289 574.037 396.829 573.352L475.715 504.793L487.587 494.475L489.739 495.866Z" fill="#7094FF"/>
<path d="M615.251 573.351C614.791 574.036 614.256 574.667 613.658 575.231C613.497 575.384 613.33 575.532 613.159 575.675L522.364 516.962L506.065 506.423L522.363 495.886L524.515 494.494L536.365 504.793L615.251 573.351Z" fill="#7094FF"/>
<path d="M613.652 575.225C611.318 578 607.198 578.218 603.572 578.219C539.174 578.23 474.776 578.24 410.378 578.251C406.159 578.251 401.51 578.093 398.401 575.242C408.073 566.837 417.744 558.433 427.415 550.028C437.087 541.624 446.758 533.219 456.429 524.814C466.1 516.409 475.772 508.005 485.443 499.6C490.514 495.194 495.583 490.786 500.653 486.379C503.741 483.695 508.335 483.695 511.423 486.379L613.654 575.223C613.653 575.224 613.653 575.224 613.652 575.225Z" fill="#9CB5FF"/>
<path d="M613.685 437.617C613.523 437.464 613.357 437.316 613.185 437.173C611.276 435.578 608.819 434.618 606.137 434.618H405.994C403.323 434.618 400.875 435.571 398.969 437.153C398.79 437.302 398.615 437.458 398.446 437.617L477.616 506.425L489.764 516.983L500.887 526.65C503.857 529.231 508.274 529.231 511.244 526.65L522.389 516.963L534.515 506.425L613.685 437.617Z" fill="#A8BEFF"/>
<path d="M510.294 180.964V548.973C510.294 563.403 498.443 575.099 483.824 575.099H315.778C301.158 575.099 289.308 563.403 289.308 548.973V180.964C289.308 166.534 301.158 154.837 315.778 154.837H483.824C498.443 154.837 510.294 166.534 510.294 180.964Z" fill="#F0F4FF"/>
<path d="M483.111 434.204H316.491C312.28 434.204 308.867 430.79 308.867 426.58C308.867 422.37 312.28 418.957 316.491 418.957H483.111C487.321 418.957 490.735 422.37 490.735 426.58C490.735 430.79 487.321 434.204 483.111 434.204Z" fill="#D7E0F5"/>
<path d="M468.106 465.971H331.497C327.286 465.971 323.873 462.558 323.873 458.347C323.873 454.137 327.286 450.724 331.497 450.724H468.106C472.316 450.724 475.73 454.137 475.73 458.347C475.73 462.558 472.316 465.971 468.106 465.971Z" fill="#D7E0F5"/>
<path d="M483.111 497.738H316.491C312.28 497.738 308.867 494.325 308.867 490.115C308.867 485.904 312.28 482.491 316.491 482.491H483.111C487.321 482.491 490.735 485.904 490.735 490.115C490.735 494.325 487.321 497.738 483.111 497.738Z" fill="#D7E0F5"/>
<path d="M483.111 529.505H316.491C312.28 529.505 308.867 526.092 308.867 521.882C308.867 517.671 312.28 514.258 316.491 514.258H483.111C487.321 514.258 490.735 517.671 490.735 521.882C490.735 526.092 487.321 529.505 483.111 529.505Z" fill="#D7E0F5"/>
<path d="M474.218 347.384H325.384C316.262 347.384 308.867 339.989 308.867 330.867V207.68C308.867 198.558 316.262 191.163 325.384 191.163H474.218C483.34 191.163 490.735 198.558 490.735 207.68V330.867C490.735 339.989 483.34 347.384 474.218 347.384Z" fill="#D7E0F5"/>
<path d="M289.307 498.636V499.926C291.928 503.039 291.254 507.303 291.254 507.303C291.291 507.513 291.336 507.778 291.388 508.1C291.883 511.081 293.066 518.764 293.563 527.972V484.897C292.465 489.499 291.073 494.16 289.307 498.636ZM483.824 150.638H315.779C298.835 150.638 285.052 164.242 285.052 180.963V548.973C285.052 554.526 286.571 559.734 289.223 564.216C292.006 568.92 296.033 572.822 300.856 575.477C305.278 577.911 310.366 579.3 315.779 579.3H483.824C486.092 579.3 488.302 579.056 490.432 578.593C503.752 575.703 513.86 564.255 514.517 550.409C514.54 549.933 514.551 549.454 514.551 548.973V180.963C514.551 164.242 500.767 150.638 483.824 150.638ZM506.04 548.973C506.04 561.083 496.093 570.899 483.824 570.899H315.779C305.592 570.899 297.005 564.133 294.386 554.904C293.85 553.019 293.563 551.029 293.563 548.973V180.963C293.563 168.855 303.509 159.038 315.779 159.038H328.145C333.766 159.038 338.845 162.206 341.401 167.147C344.394 172.927 350.486 176.887 357.517 176.887H442.085C447.08 176.887 451.601 174.89 454.873 171.659C456.208 170.342 457.333 168.821 458.2 167.147C460.756 162.206 465.837 159.038 471.456 159.038H483.824C496.094 159.038 506.04 168.855 506.04 180.963L506.04 548.973Z" fill="#598BD9"/>
<path d="M487.513 272.009C487.381 272.135 487.246 272.256 487.106 272.374C485.551 273.685 483.549 274.474 481.364 274.474H318.323C316.147 274.474 314.152 273.691 312.6 272.39C312.454 272.268 312.311 272.14 312.174 272.009L376.668 215.445L386.564 206.765L395.625 198.818C398.044 196.697 401.643 196.697 404.062 198.819L413.141 206.782L423.019 215.445L487.513 272.009Z" fill="#7597FF"/>
<path d="M490.303 278.499V378.475C490.303 380.337 489.745 382.067 488.789 383.505C488.415 384.068 487.979 384.587 487.492 385.051C487.36 385.177 487.225 385.298 487.085 385.416C485.53 386.727 483.529 387.516 481.343 387.516H318.302C316.126 387.516 314.131 386.733 312.579 385.432C312.433 385.31 312.291 385.182 312.153 385.051C311.666 384.587 311.231 384.069 310.856 383.505C310.054 382.3 309.533 380.889 309.386 379.367C309.357 379.074 309.342 378.776 309.342 378.475V278.499C309.342 278.198 309.357 277.9 309.386 277.607C309.602 275.374 310.624 273.38 312.153 271.923C312.291 271.792 312.433 271.664 312.579 271.542C314.131 270.241 316.126 269.458 318.302 269.458H481.344C483.529 269.458 485.53 270.247 487.086 271.558C487.225 271.676 487.36 271.798 487.492 271.923C489.223 273.572 490.303 275.909 490.303 278.499Z" fill="#7597FF"/>
<path d="M459.937 343.791H339.708C336.238 343.791 333.425 340.978 333.425 337.508V263.002C333.425 259.532 336.238 256.719 339.708 256.719H459.937C463.407 256.719 466.22 259.532 466.22 263.002V337.508C466.22 340.978 463.407 343.791 459.937 343.791Z" fill="#E6ECFF"/>
<path d="M416.523 270.567H345.29C343.948 270.567 342.86 269.479 342.86 268.137V268.114C342.86 266.772 343.948 265.684 345.29 265.684H416.523C417.865 265.684 418.954 266.772 418.954 268.114V268.137C418.954 269.479 417.866 270.567 416.523 270.567Z" fill="#CCD8FF"/>
<path d="M448.382 280.034H344.565C343.623 280.034 342.86 279.27 342.86 278.329V278.313C342.86 277.371 343.623 276.608 344.565 276.608H448.382C449.324 276.608 450.088 277.371 450.088 278.313V278.329C450.088 279.27 449.324 280.034 448.382 280.034Z" fill="#CCD8FF"/>
<path d="M448.382 287.474H344.565C343.623 287.474 342.86 286.71 342.86 285.768V285.753C342.86 284.811 343.623 284.047 344.565 284.047H448.382C449.324 284.047 450.088 284.811 450.088 285.753V285.768C450.088 286.71 449.324 287.474 448.382 287.474Z" fill="#CCD8FF"/>
<path d="M432.909 295.652H344.565C343.623 295.652 342.86 294.888 342.86 293.946V293.931C342.86 292.989 343.623 292.225 344.565 292.225H432.909C433.851 292.225 434.615 292.989 434.615 293.931V293.946C434.615 294.888 433.851 295.652 432.909 295.652Z" fill="#CCD8FF"/>
<path d="M399.844 328.486L386.542 337.166L312.579 385.432C312.433 385.31 312.29 385.182 312.153 385.051C311.666 384.587 311.23 384.069 310.856 383.506C310.054 382.301 309.533 380.889 309.385 379.368V277.607C309.602 275.375 310.624 273.381 312.153 271.924C312.291 271.793 312.433 271.665 312.579 271.543L384.79 318.664L386.543 319.808L399.844 328.486Z" fill="#87A5FF"/>
<path d="M490.303 278.5V378.475C490.303 380.337 489.745 382.067 488.789 383.505C488.415 384.069 487.979 384.587 487.492 385.051C487.36 385.177 487.225 385.298 487.085 385.416L413.121 337.15L399.844 328.486L413.12 319.824L414.873 318.68L487.086 271.559C487.225 271.676 487.36 271.798 487.492 271.924C489.223 273.573 490.303 275.909 490.303 278.5Z" fill="#87A5FF"/>
<path d="M386.543 319.808L399.844 328.486L386.542 337.166L312.578 385.432C312.433 385.31 312.29 385.182 312.153 385.051C311.666 384.587 311.23 384.069 310.856 383.506L375.119 327.146L384.79 318.664L386.543 319.808Z" fill="#7094FF"/>
<path d="M488.789 383.505C488.415 384.069 487.979 384.587 487.492 385.051C487.36 385.177 487.225 385.298 487.085 385.416L413.121 337.15L399.844 328.486L413.12 319.824L414.873 318.68L424.527 327.146L488.789 383.505Z" fill="#7094FF"/>
<path d="M487.486 385.046C485.585 387.327 482.229 387.507 479.275 387.507C426.815 387.516 374.354 387.524 321.894 387.533C318.457 387.534 314.67 387.404 312.137 385.06C320.016 378.15 327.894 371.241 335.773 364.332C343.651 357.423 351.53 350.514 359.408 343.605C367.287 336.695 375.165 329.786 383.044 322.877C387.174 319.255 391.304 315.632 395.435 312.009C397.95 309.803 401.692 309.803 404.208 312.009L487.488 385.044C487.487 385.045 487.487 385.045 487.486 385.046Z" fill="#9CB5FF"/>
<path d="M615.293 254.468L713.901 184.7L619.175 216.081L615.293 254.468Z" fill="#7094FF"/>
<path d="M598.956 193.61L619.174 216.081L721.336 179.781L630.588 232.619L658.4 266.641L721.336 179.781L598.956 193.61Z" fill="#9CB5FF"/>
<path d="M619.175 216.081L615.293 254.468L630.589 232.619L721.337 179.781L619.175 216.081Z" fill="#87A5FF"/>
<path d="M283.04 301.929C283.021 301.929 283.002 301.929 282.983 301.928C282.445 301.91 281.907 301.893 281.37 301.879C280.473 301.855 279.765 301.108 279.789 300.21C279.813 299.313 280.554 298.604 281.458 298.629C282.003 298.644 282.548 298.661 283.095 298.68C283.992 298.711 284.694 299.463 284.663 300.36C284.633 301.238 283.911 301.929 283.04 301.929Z" fill="#598BD9"/>
<path d="M258.59 302.509C257.754 302.509 257.043 301.867 256.972 301.018C256.898 300.123 257.564 299.338 258.458 299.264C259.545 299.174 260.649 299.092 261.738 299.019C262.634 298.957 263.408 299.636 263.468 300.532C263.528 301.428 262.85 302.202 261.955 302.262C260.882 302.334 259.796 302.415 258.726 302.504C258.681 302.507 258.635 302.509 258.59 302.509ZM269.994 301.882C269.116 301.882 268.394 301.183 268.37 300.301C268.345 299.404 269.052 298.657 269.95 298.632C271.038 298.602 272.144 298.581 273.238 298.568C274.136 298.556 274.871 299.276 274.882 300.174C274.893 301.071 274.174 301.807 273.276 301.818C272.2 301.831 271.111 301.852 270.039 301.882C270.024 301.882 270.008 301.882 269.994 301.882Z" fill="#598BD9"/>
<path d="M209.312 555.584C209.305 555.584 209.298 555.584 209.292 555.584C208.19 555.57 207.081 555.545 205.994 555.51C205.097 555.481 204.394 554.729 204.423 553.832C204.453 552.935 205.203 552.237 206.101 552.261C207.165 552.296 208.252 552.32 209.332 552.334C210.229 552.345 210.948 553.081 210.937 553.979C210.926 554.869 210.2 555.584 209.312 555.584ZM217.468 555.486C216.597 555.486 215.876 554.796 215.844 553.919C215.812 553.022 216.513 552.268 217.41 552.236C218.473 552.198 219.559 552.148 220.64 552.089C221.538 552.041 222.303 552.728 222.352 553.624C222.4 554.52 221.713 555.287 220.817 555.335C219.716 555.395 218.609 555.445 217.527 555.484C217.507 555.485 217.487 555.486 217.468 555.486ZM197.903 555.03C197.856 555.03 197.809 555.028 197.762 555.024C196.664 554.93 195.558 554.822 194.476 554.704C193.584 554.607 192.939 553.805 193.036 552.913C193.133 552.02 193.936 551.376 194.828 551.473C195.886 551.588 196.967 551.693 198.041 551.786C198.935 551.863 199.598 552.65 199.521 553.545C199.448 554.391 198.738 555.03 197.903 555.03ZM228.862 554.72C228.032 554.72 227.324 554.088 227.245 553.246C227.161 552.353 227.818 551.56 228.712 551.476L229.58 551.394C230.36 551.32 231.151 551.239 231.931 551.153C232.824 551.055 233.626 551.7 233.724 552.592C233.822 553.484 233.178 554.287 232.285 554.384C231.49 554.472 230.683 554.554 229.887 554.63L229.015 554.713C228.964 554.717 228.912 554.72 228.862 554.72ZM186.572 553.593C186.482 553.593 186.39 553.585 186.298 553.57C185.211 553.385 184.117 553.185 183.047 552.975C182.166 552.802 181.592 551.948 181.765 551.067C181.937 550.186 182.791 549.613 183.672 549.785C184.716 549.99 185.782 550.185 186.843 550.365C187.728 550.515 188.323 551.354 188.173 552.239C188.038 553.032 187.35 553.593 186.572 553.593ZM240.173 553.301C239.389 553.301 238.699 552.734 238.57 551.936C238.427 551.05 239.029 550.215 239.915 550.072C240.973 549.9 242.042 549.716 243.093 549.522C243.976 549.361 244.823 549.944 244.985 550.827C245.147 551.71 244.563 552.557 243.68 552.719C242.607 552.917 241.515 553.105 240.435 553.28C240.346 553.295 240.259 553.301 240.173 553.301ZM175.412 551.169C175.273 551.169 175.131 551.151 174.991 551.113C173.922 550.827 172.85 550.523 171.805 550.211C170.945 549.953 170.457 549.048 170.714 548.188C170.971 547.328 171.876 546.839 172.737 547.096C173.752 547.4 174.793 547.695 175.831 547.973C176.698 548.205 177.213 549.096 176.981 549.964C176.786 550.69 176.13 551.169 175.412 551.169ZM251.347 551.058C250.613 551.058 249.948 550.558 249.768 549.813C249.558 548.94 250.095 548.063 250.967 547.852C252.012 547.6 253.063 547.335 254.092 547.062C254.96 546.833 255.849 547.349 256.079 548.217C256.309 549.085 255.792 549.974 254.924 550.204C253.872 550.483 252.797 550.755 251.729 551.012C251.601 551.043 251.473 551.058 251.347 551.058ZM262.314 547.955C261.629 547.955 260.993 547.519 260.769 546.833C260.491 545.98 260.957 545.062 261.81 544.784C262.828 544.453 263.856 544.105 264.867 543.75C265.714 543.453 266.641 543.898 266.939 544.745C267.236 545.592 266.791 546.52 265.943 546.817C264.91 547.18 263.858 547.536 262.818 547.875C262.651 547.929 262.481 547.955 262.314 547.955ZM164.551 547.645C164.357 547.645 164.159 547.61 163.967 547.536C162.934 547.138 161.9 546.719 160.892 546.292C160.066 545.941 159.68 544.987 160.031 544.161C160.381 543.334 161.336 542.949 162.162 543.299C163.136 543.713 164.137 544.118 165.137 544.503C165.974 544.826 166.391 545.767 166.068 546.604C165.819 547.25 165.204 547.645 164.551 547.645ZM273.005 544.003C272.367 544.003 271.762 543.626 271.502 543C271.159 542.17 271.553 541.22 272.382 540.876C273.37 540.467 274.368 540.041 275.347 539.61C276.168 539.249 277.128 539.621 277.49 540.443C277.851 541.265 277.478 542.224 276.656 542.585C275.655 543.026 274.636 543.461 273.626 543.879C273.422 543.964 273.212 544.003 273.005 544.003ZM154.162 542.917C153.905 542.917 153.644 542.855 153.401 542.726C152.425 542.208 151.448 541.665 150.496 541.114C149.72 540.664 149.455 539.669 149.905 538.893C150.355 538.116 151.35 537.851 152.126 538.301C153.044 538.833 153.985 539.356 154.926 539.856C155.719 540.277 156.02 541.261 155.599 542.053C155.307 542.603 154.744 542.917 154.162 542.917ZM283.367 539.252C282.772 539.252 282.199 538.924 281.914 538.356C281.51 537.555 281.833 536.578 282.635 536.174C283.588 535.695 284.553 535.197 285.504 534.695C286.297 534.275 287.281 534.579 287.7 535.373C288.119 536.166 287.816 537.15 287.022 537.569C286.053 538.081 285.068 538.589 284.096 539.078C283.862 539.196 283.613 539.252 283.367 539.252ZM144.458 536.915C144.13 536.915 143.8 536.817 143.513 536.612C142.614 535.969 141.717 535.3 140.847 534.624C140.138 534.073 140.01 533.052 140.561 532.343C141.111 531.634 142.132 531.506 142.841 532.057C143.678 532.707 144.54 533.35 145.405 533.968C146.135 534.49 146.303 535.506 145.781 536.236C145.464 536.679 144.964 536.915 144.458 536.915ZM293.373 533.785C292.817 533.785 292.275 533.499 291.972 532.985C291.516 532.212 291.773 531.215 292.547 530.76C293.466 530.218 294.398 529.657 295.317 529.094C296.082 528.625 297.082 528.865 297.552 529.63C298.021 530.395 297.781 531.396 297.016 531.865C296.081 532.438 295.133 533.009 294.197 533.56C293.938 533.713 293.654 533.785 293.373 533.785ZM135.667 529.646C135.264 529.646 134.86 529.497 134.545 529.197C134.307 528.97 134.069 528.74 133.832 528.509C133.277 527.967 132.722 527.409 132.184 526.852C131.56 526.206 131.577 525.177 132.223 524.554C132.868 523.93 133.897 523.947 134.521 524.592C135.038 525.127 135.57 525.663 136.104 526.184C136.331 526.406 136.56 526.626 136.789 526.845C137.438 527.464 137.463 528.493 136.843 529.143C136.524 529.478 136.096 529.646 135.667 529.646ZM303.023 527.706C302.499 527.706 301.985 527.453 301.672 526.985C301.172 526.239 301.371 525.23 302.117 524.73C302.999 524.139 303.899 523.526 304.792 522.908C305.531 522.398 306.543 522.582 307.054 523.32C307.564 524.059 307.38 525.071 306.642 525.582C305.735 526.209 304.822 526.831 303.926 527.431C303.649 527.617 303.334 527.706 303.023 527.706ZM127.99 521.208C127.51 521.208 127.034 520.996 126.713 520.589C126.031 519.723 125.356 518.832 124.708 517.94C124.18 517.213 124.341 516.197 125.068 515.669C125.794 515.142 126.81 515.303 127.338 516.029C127.961 516.887 128.61 517.744 129.266 518.576C129.822 519.281 129.701 520.303 128.996 520.859C128.697 521.094 128.343 521.208 127.99 521.208ZM312.337 521.12C311.84 521.12 311.35 520.893 311.031 520.464C310.496 519.743 310.646 518.725 311.367 518.19C312.223 517.553 313.094 516.898 313.956 516.24C314.67 515.696 315.69 515.834 316.234 516.547C316.778 517.261 316.641 518.281 315.927 518.825C315.055 519.491 314.173 520.155 313.305 520.799C313.014 521.015 312.674 521.12 312.337 521.12ZM321.352 514.126C320.878 514.126 320.407 513.919 320.086 513.521C319.522 512.823 319.631 511.8 320.33 511.236C321.161 510.564 322.007 509.874 322.845 509.184C323.538 508.614 324.562 508.713 325.133 509.405C325.704 510.098 325.605 511.122 324.912 511.693C324.066 512.39 323.212 513.087 322.372 513.765C322.071 514.008 321.71 514.126 321.352 514.126ZM121.558 511.793C121.001 511.793 120.459 511.506 120.156 510.992C119.598 510.045 119.049 509.072 118.523 508.099C118.096 507.31 118.39 506.323 119.18 505.897C119.97 505.47 120.956 505.764 121.383 506.553C121.89 507.491 122.419 508.429 122.957 509.342C123.412 510.115 123.155 511.112 122.381 511.567C122.122 511.72 121.838 511.793 121.558 511.793ZM330.111 506.811C329.654 506.811 329.201 506.62 328.879 506.246C328.293 505.566 328.369 504.54 329.049 503.954C329.855 503.26 330.68 502.543 331.502 501.824C332.178 501.233 333.205 501.301 333.796 501.976C334.387 502.652 334.319 503.678 333.643 504.27C332.815 504.995 331.983 505.717 331.171 506.417C330.864 506.681 330.487 506.811 330.111 506.811ZM116.399 501.614C115.77 501.614 115.171 501.246 114.906 500.632C114.472 499.625 114.046 498.593 113.643 497.563C113.315 496.728 113.726 495.785 114.562 495.457C115.398 495.129 116.341 495.54 116.669 496.376C117.059 497.372 117.47 498.37 117.891 499.344C118.246 500.168 117.866 501.125 117.042 501.48C116.833 501.571 116.614 501.614 116.399 501.614ZM338.658 499.248C338.216 499.248 337.775 499.068 337.454 498.714C336.851 498.049 336.901 497.021 337.566 496.419C338.365 495.695 339.166 494.964 339.969 494.227C340.63 493.62 341.659 493.664 342.265 494.326C342.872 494.987 342.828 496.015 342.167 496.622C341.359 497.364 340.553 498.099 339.749 498.827C339.438 499.109 339.048 499.248 338.658 499.248ZM347.037 491.497C346.605 491.497 346.174 491.325 345.854 490.986C345.239 490.332 345.269 489.304 345.922 488.688C346.708 487.948 347.495 487.202 348.286 486.451C348.937 485.832 349.965 485.858 350.584 486.509C351.202 487.159 351.176 488.188 350.526 488.806C349.732 489.562 348.941 490.311 348.152 491.054C347.838 491.35 347.437 491.497 347.037 491.497ZM112.484 490.889C111.786 490.889 111.142 490.437 110.929 489.735C110.611 488.687 110.304 487.615 110.015 486.549C109.781 485.683 110.293 484.79 111.159 484.555C112.026 484.32 112.918 484.833 113.153 485.7C113.433 486.734 113.731 487.775 114.04 488.791C114.3 489.65 113.815 490.558 112.956 490.818C112.799 490.866 112.64 490.889 112.484 490.889ZM355.286 483.606C354.861 483.606 354.438 483.441 354.119 483.112C353.494 482.468 353.51 481.439 354.154 480.814C354.929 480.062 355.707 479.305 356.488 478.542C357.131 477.915 358.16 477.928 358.787 478.57C359.414 479.213 359.401 480.242 358.759 480.869C357.975 481.633 357.195 482.393 356.417 483.147C356.101 483.453 355.693 483.606 355.286 483.606ZM109.736 479.804C108.974 479.804 108.294 479.266 108.142 478.49C107.932 477.417 107.733 476.322 107.551 475.235C107.402 474.349 107.999 473.511 108.885 473.363C109.77 473.215 110.608 473.811 110.756 474.696C110.934 475.755 111.128 476.821 111.332 477.866C111.505 478.747 110.93 479.601 110.049 479.773C109.944 479.794 109.839 479.804 109.736 479.804ZM363.437 475.614C363.018 475.614 362.6 475.453 362.282 475.132C361.65 474.494 361.656 473.465 362.294 472.833C363.061 472.073 363.832 471.308 364.607 470.538C365.243 469.905 366.272 469.908 366.905 470.545C367.538 471.181 367.535 472.21 366.899 472.843C366.123 473.615 365.35 474.382 364.58 475.143C364.264 475.457 363.85 475.614 363.437 475.614ZM108.062 468.506C107.239 468.506 106.533 467.883 106.447 467.046C106.336 465.96 106.235 464.852 106.15 463.755C106.08 462.86 106.748 462.078 107.643 462.008C108.54 461.938 109.32 462.607 109.391 463.502C109.474 464.573 109.572 465.653 109.681 466.714C109.773 467.607 109.123 468.405 108.23 468.497C108.173 468.503 108.117 468.506 108.062 468.506ZM371.52 467.552C371.105 467.552 370.69 467.394 370.373 467.078C369.737 466.445 369.735 465.416 370.369 464.78C371.132 464.014 371.898 463.243 372.668 462.468C373.3 461.831 374.33 461.828 374.967 462.461C375.603 463.093 375.607 464.122 374.974 464.759C374.203 465.535 373.436 466.307 372.672 467.074C372.354 467.393 371.937 467.552 371.52 467.552ZM379.56 459.446C379.147 459.446 378.734 459.29 378.417 458.977C377.779 458.346 377.773 457.317 378.404 456.678C379.164 455.909 379.927 455.136 380.695 454.358C381.325 453.719 382.354 453.712 382.993 454.342C383.632 454.973 383.639 456.002 383.009 456.641C382.241 457.419 381.477 458.193 380.716 458.963C380.398 459.285 379.979 459.446 379.56 459.446ZM107.372 457.105C106.489 457.105 105.765 456.399 105.748 455.512C105.728 454.538 105.718 453.546 105.718 452.566L105.719 452.213C105.72 451.316 106.448 450.591 107.344 450.591C107.345 450.591 107.346 450.591 107.347 450.591C108.245 450.593 108.971 451.322 108.969 452.22L108.969 452.566C108.969 453.525 108.979 454.495 108.998 455.448C109.015 456.345 108.302 457.087 107.405 457.105C107.394 457.105 107.383 457.105 107.372 457.105ZM387.575 451.316C387.163 451.316 386.752 451.161 386.435 450.849C385.795 450.22 385.787 449.19 386.417 448.551L388.705 446.226C389.335 445.586 390.364 445.578 391.004 446.208C391.644 446.837 391.652 447.866 391.022 448.506L388.734 450.831C388.415 451.154 387.995 451.316 387.575 451.316ZM107.586 445.688C107.555 445.688 107.524 445.687 107.493 445.685C106.597 445.635 105.912 444.868 105.962 443.971C106.023 442.883 106.097 441.777 106.182 440.682C106.251 439.787 107.03 439.116 107.927 439.187C108.822 439.256 109.492 440.038 109.423 440.933C109.34 442.005 109.267 443.089 109.207 444.154C109.159 445.019 108.442 445.688 107.586 445.688ZM395.584 443.179C395.172 443.179 394.76 443.024 394.444 442.712C393.804 442.083 393.796 441.053 394.426 440.414L396.715 438.089C397.345 437.449 398.374 437.441 399.014 438.071C399.653 438.701 399.661 439.73 399.031 440.37L396.742 442.694C396.424 443.017 396.004 443.179 395.584 443.179ZM403.599 435.049C403.187 435.049 402.774 434.893 402.457 434.58C401.818 433.949 401.812 432.92 402.443 432.281C403.204 431.511 403.968 430.737 404.737 429.96C405.368 429.321 406.397 429.316 407.035 429.947C407.674 430.578 407.679 431.607 407.048 432.245C406.28 433.022 405.516 433.795 404.756 434.565C404.438 434.887 404.019 435.049 403.599 435.049ZM108.641 434.319C108.572 434.319 108.502 434.315 108.431 434.306C107.541 434.191 106.913 433.376 107.027 432.486C107.167 431.403 107.32 430.305 107.481 429.223C107.614 428.335 108.442 427.725 109.329 427.856C110.217 427.989 110.829 428.816 110.696 429.704C110.538 430.765 110.388 431.84 110.251 432.902C110.146 433.721 109.446 434.319 108.641 434.319ZM411.632 426.935C411.218 426.935 410.804 426.778 410.487 426.463C409.85 425.831 409.846 424.802 410.479 424.165C411.242 423.396 412.009 422.625 412.78 421.85C413.413 421.214 414.442 421.211 415.078 421.844C415.715 422.477 415.718 423.506 415.084 424.143C414.314 424.917 413.548 425.688 412.785 426.455C412.468 426.775 412.05 426.935 411.632 426.935ZM110.498 423.055C110.392 423.055 110.284 423.044 110.176 423.022C109.296 422.846 108.726 421.989 108.903 421.109C109.118 420.035 109.348 418.951 109.584 417.887C109.778 417.011 110.645 416.458 111.522 416.652C112.399 416.847 112.952 417.715 112.757 418.591C112.526 419.634 112.301 420.697 112.09 421.75C111.934 422.521 111.256 423.055 110.498 423.055ZM419.693 418.849C419.276 418.849 418.86 418.69 418.543 418.372C417.908 417.737 417.909 416.708 418.544 416.074C419.31 415.308 420.08 414.539 420.854 413.768C421.49 413.134 422.519 413.135 423.153 413.771C423.786 414.407 423.785 415.436 423.149 416.07C422.376 416.84 421.607 417.608 420.842 418.373C420.524 418.69 420.108 418.849 419.693 418.849ZM113.138 411.948C112.995 411.948 112.85 411.929 112.705 411.89C111.84 411.651 111.331 410.756 111.57 409.891C111.861 408.833 112.167 407.767 112.478 406.722C112.735 405.861 113.64 405.372 114.5 405.628C115.36 405.884 115.85 406.789 115.594 407.65C115.289 408.674 114.989 409.718 114.704 410.754C114.505 411.475 113.851 411.948 113.138 411.948ZM427.787 410.796C427.368 410.796 426.95 410.636 426.632 410.315C426 409.677 426.006 408.648 426.643 408.016C427.414 407.254 428.188 406.488 428.965 405.721C429.604 405.09 430.633 405.097 431.264 405.736C431.895 406.374 431.888 407.403 431.249 408.034C430.472 408.801 429.7 409.565 428.931 410.326C428.614 410.64 428.2 410.796 427.787 410.796ZM435.921 402.784C435.5 402.784 435.079 402.621 434.76 402.297C434.132 401.655 434.143 400.626 434.784 399.998C435.559 399.239 436.337 398.478 437.118 397.715C437.761 397.088 438.79 397.1 439.417 397.742C440.044 398.385 440.032 399.414 439.389 400.041C438.609 400.803 437.832 401.563 437.059 402.32C436.742 402.63 436.332 402.784 435.921 402.784ZM116.571 401.058C116.389 401.058 116.205 401.027 116.024 400.963C115.179 400.661 114.738 399.731 115.04 398.886C115.411 397.848 115.796 396.806 116.184 395.791C116.505 394.952 117.445 394.532 118.283 394.853C119.121 395.174 119.541 396.113 119.22 396.952C118.84 397.945 118.464 398.963 118.101 399.979C117.864 400.644 117.238 401.058 116.571 401.058ZM444.101 394.818C443.676 394.818 443.252 394.653 442.933 394.323C442.309 393.678 442.325 392.649 442.97 392.025C443.749 391.271 444.532 390.514 445.318 389.755C445.965 389.132 446.993 389.15 447.617 389.797C448.24 390.443 448.221 391.472 447.575 392.095C446.79 392.852 446.009 393.607 445.232 394.36C444.916 394.666 444.508 394.818 444.101 394.818ZM120.836 390.467C120.612 390.467 120.385 390.42 120.168 390.322C119.35 389.952 118.987 388.989 119.356 388.171C119.461 387.94 119.566 387.71 119.671 387.481C120.023 386.713 120.388 385.938 120.756 385.178C121.146 384.369 122.118 384.031 122.926 384.421C123.734 384.812 124.073 385.783 123.683 386.592C123.325 387.333 122.969 388.089 122.625 388.838C122.522 389.061 122.42 389.286 122.318 389.511C122.047 390.111 121.455 390.467 120.836 390.467ZM452.328 386.901C451.9 386.901 451.473 386.733 451.153 386.399C450.533 385.75 450.556 384.721 451.205 384.101C451.989 383.352 452.776 382.6 453.567 381.846C454.217 381.227 455.246 381.252 455.865 381.902C456.484 382.552 456.459 383.581 455.809 384.2C455.02 384.952 454.234 385.702 453.451 386.451C453.137 386.752 452.732 386.901 452.328 386.901ZM125.992 380.285C125.722 380.285 125.448 380.218 125.196 380.076C124.414 379.636 124.137 378.644 124.577 377.862C125.114 376.908 125.671 375.947 126.231 375.007C126.69 374.237 127.688 373.984 128.459 374.443C129.23 374.903 129.483 375.901 129.023 376.672C128.477 377.589 127.934 378.526 127.41 379.457C127.111 379.987 126.56 380.285 125.992 380.285ZM460.606 379.037C460.174 379.037 459.744 378.866 459.424 378.527C458.808 377.874 458.838 376.845 459.491 376.229C460.279 375.485 461.072 374.739 461.868 373.991C462.521 373.375 463.55 373.407 464.165 374.061C464.78 374.715 464.748 375.744 464.094 376.359C463.3 377.106 462.509 377.851 461.721 378.594C461.407 378.89 461.006 379.037 460.606 379.037ZM468.937 371.229C468.501 371.229 468.067 371.055 467.747 370.711C467.135 370.054 467.172 369.025 467.829 368.414C468.623 367.674 469.421 366.934 470.222 366.191C470.88 365.58 471.909 365.619 472.519 366.278C473.129 366.936 473.091 367.964 472.432 368.574C471.633 369.316 470.837 370.055 470.045 370.793C469.731 371.084 469.333 371.229 468.937 371.229ZM132.014 370.593C131.698 370.593 131.379 370.501 131.099 370.31C130.358 369.804 130.167 368.792 130.673 368.051C131.29 367.148 131.927 366.238 132.568 365.347C133.092 364.618 134.107 364.451 134.836 364.975C135.565 365.499 135.731 366.515 135.207 367.244C134.582 368.114 133.959 369.002 133.358 369.884C133.043 370.345 132.533 370.593 132.014 370.593ZM477.322 363.479C476.883 363.479 476.445 363.302 476.124 362.952C475.517 362.291 475.561 361.263 476.223 360.656C477.022 359.922 477.824 359.187 478.631 358.45C479.293 357.844 480.322 357.891 480.927 358.553C481.533 359.216 481.486 360.244 480.824 360.849C480.019 361.585 479.218 362.319 478.42 363.051C478.109 363.337 477.715 363.479 477.322 363.479ZM138.844 361.443C138.483 361.443 138.12 361.324 137.819 361.079C137.123 360.512 137.017 359.488 137.584 358.792C138.275 357.943 138.986 357.089 139.699 356.254C140.282 355.571 141.308 355.49 141.991 356.073C142.673 356.656 142.754 357.681 142.172 358.364C141.475 359.18 140.78 360.014 140.105 360.844C139.784 361.238 139.316 361.443 138.844 361.443ZM485.762 355.788C485.318 355.788 484.877 355.608 484.556 355.253C483.954 354.587 484.005 353.56 484.671 352.957C485.475 352.229 486.284 351.5 487.095 350.769C487.762 350.168 488.79 350.221 489.391 350.888C489.991 351.555 489.938 352.583 489.271 353.184C488.461 353.914 487.655 354.642 486.852 355.368C486.541 355.649 486.151 355.788 485.762 355.788ZM146.41 352.886C146.005 352.886 145.6 352.736 145.285 352.434C144.637 351.812 144.615 350.784 145.236 350.136C145.994 349.346 146.772 348.552 147.551 347.776C148.187 347.142 149.216 347.144 149.85 347.78C150.483 348.415 150.482 349.445 149.846 350.078C149.084 350.837 148.323 351.613 147.583 352.385C147.264 352.718 146.837 352.886 146.41 352.886ZM494.257 348.158C493.81 348.158 493.364 347.975 493.043 347.615C492.446 346.945 492.505 345.917 493.175 345.32C493.985 344.598 494.798 343.874 495.615 343.149C496.286 342.553 497.314 342.614 497.91 343.285C498.506 343.957 498.445 344.984 497.773 345.58C496.958 346.304 496.147 347.026 495.338 347.746C495.028 348.022 494.642 348.158 494.257 348.158ZM154.638 344.956C154.19 344.956 153.745 344.772 153.424 344.412C152.827 343.742 152.885 342.714 153.555 342.117C154.372 341.389 155.211 340.658 156.047 339.944C156.731 339.362 157.756 339.443 158.339 340.126C158.921 340.81 158.84 341.835 158.157 342.418C157.338 343.116 156.518 343.832 155.719 344.544C155.409 344.82 155.022 344.956 154.638 344.956ZM502.809 340.59C502.357 340.59 501.908 340.403 501.587 340.038C500.994 339.364 501.061 338.337 501.735 337.744C502.55 337.028 503.369 336.31 504.191 335.591C504.867 335 505.894 335.068 506.485 335.744C507.076 336.42 507.007 337.446 506.331 338.037C505.511 338.755 504.694 339.471 503.881 340.186C503.572 340.457 503.19 340.59 502.809 340.59ZM163.453 337.679C162.964 337.679 162.481 337.459 162.161 337.041C161.616 336.327 161.752 335.307 162.465 334.762C163.334 334.098 164.225 333.432 165.113 332.782C165.838 332.252 166.855 332.41 167.385 333.134C167.915 333.859 167.757 334.876 167.032 335.406C166.162 336.042 165.29 336.695 164.439 337.345C164.145 337.57 163.797 337.679 163.453 337.679ZM511.416 333.085C510.96 333.085 510.508 332.894 510.186 332.523C509.599 331.844 509.673 330.818 510.352 330.23L510.993 329.675C511.604 329.147 512.215 328.62 512.823 328.095C513.504 327.509 514.53 327.585 515.116 328.265C515.702 328.945 515.626 329.971 514.946 330.557C514.338 331.081 513.729 331.607 513.119 332.135L512.479 332.688C512.171 332.954 511.793 333.085 511.416 333.085ZM172.785 331.072C172.255 331.072 171.736 330.813 171.424 330.337C170.932 329.587 171.142 328.579 171.892 328.087C172.807 327.487 173.744 326.887 174.676 326.303C175.436 325.826 176.439 326.056 176.916 326.816C177.393 327.577 177.163 328.58 176.402 329.057C175.489 329.63 174.571 330.218 173.674 330.806C173.399 330.986 173.091 331.072 172.785 331.072ZM520.079 325.642C519.619 325.642 519.163 325.448 518.842 325.071C518.259 324.388 518.34 323.362 519.023 322.78C519.856 322.07 520.685 321.364 521.511 320.663C522.196 320.082 523.221 320.165 523.802 320.85C524.383 321.534 524.3 322.56 523.615 323.14C522.791 323.841 521.963 324.545 521.133 325.253C520.827 325.514 520.452 325.642 520.079 325.642ZM182.557 325.146C181.987 325.146 181.435 324.847 181.137 324.315C180.698 323.532 180.978 322.541 181.761 322.102C182.712 321.57 183.684 321.038 184.651 320.521C185.442 320.097 186.427 320.396 186.85 321.188C187.274 321.979 186.975 322.964 186.184 323.387C185.236 323.895 184.282 324.416 183.349 324.939C183.098 325.079 182.826 325.146 182.557 325.146ZM192.7 319.906C192.093 319.906 191.51 319.563 191.231 318.978C190.846 318.167 191.191 317.198 192.002 316.812C192.985 316.345 193.991 315.879 194.99 315.427C195.808 315.057 196.77 315.42 197.14 316.238C197.51 317.056 197.147 318.019 196.329 318.389C195.349 318.832 194.362 319.29 193.397 319.748C193.172 319.855 192.934 319.906 192.7 319.906ZM528.796 318.262C528.332 318.262 527.872 318.065 527.551 317.683C526.973 316.995 527.062 315.97 527.75 315.393C528.588 314.689 529.422 313.989 530.252 313.294C530.941 312.718 531.966 312.809 532.542 313.497C533.118 314.186 533.027 315.211 532.339 315.787C531.51 316.481 530.677 317.179 529.841 317.882C529.536 318.137 529.165 318.262 528.796 318.262ZM203.167 315.344C202.521 315.344 201.91 314.956 201.657 314.319C201.324 313.486 201.731 312.54 202.565 312.208C203.577 311.805 204.61 311.405 205.635 311.018C206.475 310.701 207.413 311.125 207.729 311.965C208.046 312.805 207.622 313.743 206.782 314.06C205.775 314.439 204.761 314.833 203.768 315.228C203.57 315.307 203.367 315.344 203.167 315.344ZM213.902 311.456C213.218 311.456 212.582 311.021 212.358 310.335C212.079 309.482 212.544 308.565 213.397 308.285C214.437 307.945 215.492 307.61 216.534 307.289C217.392 307.025 218.301 307.506 218.566 308.364C218.83 309.222 218.349 310.131 217.491 310.395C216.467 310.711 215.43 311.04 214.408 311.375C214.24 311.43 214.07 311.456 213.902 311.456ZM537.567 310.946C537.099 310.946 536.635 310.746 536.314 310.357C535.741 309.666 535.838 308.642 536.529 308.069C537.373 307.371 538.212 306.677 539.047 305.988C539.74 305.417 540.764 305.516 541.335 306.208C541.906 306.901 541.808 307.925 541.115 308.496C540.282 309.183 539.444 309.876 538.602 310.573C538.299 310.824 537.932 310.946 537.567 310.946ZM224.856 308.236C224.135 308.236 223.476 307.752 223.285 307.021C223.058 306.153 223.578 305.265 224.447 305.038C225.501 304.762 226.575 304.491 227.637 304.233C228.51 304.021 229.388 304.556 229.6 305.428C229.813 306.3 229.278 307.179 228.406 307.391C227.361 307.645 226.306 307.912 225.269 308.183C225.131 308.219 224.993 308.236 224.856 308.236ZM235.984 305.677C235.224 305.677 234.545 305.142 234.392 304.369C234.216 303.489 234.788 302.633 235.668 302.458C236.739 302.244 237.827 302.037 238.9 301.842C239.784 301.681 240.629 302.267 240.79 303.15C240.951 304.033 240.365 304.879 239.482 305.04C238.426 305.232 237.357 305.436 236.303 305.645C236.196 305.667 236.089 305.677 235.984 305.677ZM247.242 303.771C246.444 303.771 245.748 303.184 245.634 302.371C245.51 301.482 246.13 300.66 247.019 300.536C248.099 300.385 249.196 300.241 250.28 300.107C251.172 299.997 251.982 300.63 252.092 301.521C252.202 302.412 251.569 303.223 250.678 303.333C249.612 303.465 248.532 303.607 247.469 303.756C247.393 303.766 247.317 303.771 247.242 303.771ZM546.39 303.694C545.919 303.694 545.451 303.49 545.13 303.096C544.562 302.401 544.666 301.377 545.362 300.809C546.211 300.116 547.055 299.429 547.895 298.747C548.591 298.181 549.615 298.287 550.181 298.983C550.747 299.68 550.641 300.704 549.945 301.27C549.107 301.95 548.264 302.637 547.416 303.328C547.115 303.574 546.751 303.694 546.39 303.694ZM555.266 296.506C554.79 296.506 554.319 296.299 553.998 295.899C553.436 295.199 553.547 294.176 554.247 293.614C555.102 292.927 555.951 292.245 556.794 291.57C557.495 291.009 558.518 291.122 559.079 291.823C559.64 292.524 559.527 293.547 558.826 294.108C557.984 294.782 557.137 295.461 556.283 296.148C555.983 296.389 555.623 296.506 555.266 296.506ZM564.194 289.383C563.715 289.383 563.24 289.172 562.919 288.767C562.361 288.063 562.48 287.041 563.184 286.484C564.046 285.801 564.9 285.126 565.747 284.458C566.452 283.902 567.474 284.023 568.03 284.728C568.586 285.433 568.465 286.455 567.76 287.011C566.914 287.677 566.062 288.351 565.202 289.032C564.903 289.268 564.547 289.383 564.194 289.383ZM573.174 282.325C572.69 282.325 572.212 282.111 571.891 281.7C571.339 280.992 571.466 279.97 572.173 279.419C573.042 278.741 573.901 278.072 574.751 277.412C575.46 276.862 576.482 276.99 577.032 277.699C577.583 278.408 577.454 279.429 576.745 279.98C575.896 280.638 575.039 281.306 574.172 281.982C573.876 282.213 573.524 282.325 573.174 282.325ZM582.206 275.334C581.718 275.334 581.236 275.116 580.916 274.699C580.369 273.987 580.503 272.967 581.215 272.42C582.091 271.747 582.955 271.085 583.808 270.433C584.521 269.888 585.541 270.023 586.086 270.736C586.631 271.449 586.496 272.469 585.783 273.015C584.932 273.666 584.069 274.327 583.195 274.998C582.9 275.225 582.552 275.334 582.206 275.334ZM591.29 268.411C590.798 268.411 590.312 268.188 589.993 267.766C589.451 267.05 589.592 266.03 590.308 265.489C591.193 264.82 592.063 264.164 592.916 263.521C593.634 262.981 594.653 263.125 595.193 263.842C595.732 264.559 595.589 265.578 594.872 266.118C594.02 266.759 593.152 267.414 592.269 268.081C591.976 268.303 591.632 268.411 591.29 268.411Z" fill="#598BD9"/>
<path d="M600.582 261.439C600.086 261.439 599.596 261.213 599.277 260.784C598.741 260.064 598.89 259.046 599.611 258.51C600.051 258.182 600.486 257.858 600.916 257.539C601.637 257.004 602.655 257.154 603.19 257.875C603.725 258.595 603.575 259.614 602.854 260.149C602.425 260.467 601.991 260.79 601.551 261.117C601.26 261.334 600.92 261.439 600.582 261.439Z" fill="#598BD9"/>
<path d="M240.816 583.856C271.047 583.856 295.555 559.111 295.555 528.586C295.555 498.061 271.047 473.315 240.816 473.315C210.585 473.315 186.077 498.061 186.077 528.586C186.077 559.111 210.585 583.856 240.816 583.856Z" fill="#7094FF"/>
<path d="M204.649 531.507C204.649 520.081 208.314 510.538 215.644 502.877C222.974 495.151 232.329 491.288 243.71 491.288C247.053 491.288 250.236 491.71 253.258 492.554C256.279 493.334 259.076 494.567 261.649 496.255C264.219 497.878 266.47 499.729 268.399 501.806C270.328 503.884 271.936 506.188 273.222 508.72C275.729 513.719 276.983 519.043 276.983 524.69C276.983 528.521 276.468 531.995 275.44 535.11C274.475 538.291 272.964 541.018 270.907 543.291C268.849 545.563 266.696 547.316 264.445 548.549C262.131 549.717 259.751 550.301 257.308 550.301C253.901 550.301 251.329 549.102 249.593 546.698C249.079 545.985 248.66 545.206 248.339 544.362C244.93 547.673 240.591 549.328 235.32 549.328C233.133 549.328 231.107 548.906 229.242 548.062C227.377 547.218 225.738 545.985 224.325 544.361C221.496 541.116 220.081 536.831 220.081 531.507C220.081 524.561 222.106 519.043 226.157 514.952C228.15 512.939 230.335 511.415 232.715 510.376C235.094 509.273 237.729 508.785 240.624 508.914C244.223 509.045 247.149 510.766 249.4 514.076C249.914 514.791 250.396 515.537 250.847 516.315L251.136 512.908C251.2 512.064 251.714 511.253 252.679 510.473C253.45 509.889 254.319 509.596 255.283 509.596C256.376 509.596 257.244 510.018 257.887 510.862C258.593 511.837 258.884 512.714 258.756 513.492L258.659 514.952L255.187 534.916C255.122 535.176 255.058 535.565 254.994 536.084C254.994 536.344 254.994 536.636 254.994 536.96C254.994 540.791 255.797 542.706 257.405 542.706C260.105 542.706 262.773 541.18 265.41 538.128C268.11 535.078 269.461 530.598 269.461 524.69C269.461 517.614 267.049 511.544 262.227 506.479C257.469 501.417 251.296 498.885 243.71 498.885C234.579 498.885 227.088 501.969 221.238 508.136C215.323 514.369 212.366 522.159 212.366 531.507C212.366 539.883 214.583 546.44 219.02 551.178C221.205 553.581 223.841 555.366 226.928 556.534C230.078 557.703 233.743 558.287 237.923 558.287C244.545 558.287 251.008 556.925 257.308 554.197C258.53 553.678 259.559 553.418 260.395 553.418C261.037 553.418 261.647 553.58 262.227 553.904C262.87 554.23 263.319 554.717 263.578 555.366C263.64 555.432 263.673 555.496 263.673 555.561C263.737 555.627 263.77 555.692 263.77 555.755C264.091 556.729 263.996 557.671 263.481 558.58C262.966 559.488 262.259 560.17 261.359 560.624C253.643 564.129 245.831 565.883 237.923 565.883C227.506 565.883 219.34 562.767 213.426 556.534C207.575 550.301 204.649 541.96 204.649 531.507ZM227.603 531.507C227.603 534.625 228.406 537.157 230.014 539.103C231.556 540.921 233.55 541.829 235.994 541.829C237.279 541.829 238.517 541.618 239.707 541.196C240.895 540.774 242.037 540.11 243.132 539.201C245.317 537.384 246.859 534.981 247.761 531.994L248.436 527.904C248.436 527.775 248.436 527.677 248.436 527.613C248.436 527.548 248.467 527.417 248.533 527.222C248.533 526.964 248.533 526.768 248.533 526.638C248.533 525.211 248.324 523.88 247.906 522.646C247.488 521.413 246.861 520.276 246.025 519.237C245.638 518.718 245.237 518.281 244.819 517.923C244.401 517.566 243.951 517.257 243.469 516.997C242.985 516.739 242.471 516.559 241.925 516.462C241.379 516.364 240.785 516.315 240.142 516.315C238.534 516.315 237.023 516.641 235.608 517.29C234.194 517.939 232.812 518.978 231.461 520.405C230.819 521.055 230.256 521.77 229.774 522.548C229.29 523.328 228.889 524.187 228.568 525.129C228.247 526.071 228.005 527.06 227.845 528.099C227.682 529.138 227.603 530.274 227.603 531.507Z" fill="#EBF0FF"/>
</g>
</svg>
