<svg width="167" height="167" viewBox="0 0 167 167" fill="none" xmlns="http://www.w3.org/2000/svg">
<g filter="url(#filter0_d_738_30070)">
<circle cx="83.4268" cy="78.4268" r="70.4268" fill="#385AC9"/>
</g>
<path d="M68.4998 47.0106L61.1586 94.8333C60.9235 96.3646 62.4436 97.5702 63.8811 96.9926L72.3435 93.5921C73.8537 92.9853 75.581 93.354 76.7118 94.5246L82.7734 100.8C83.3812 101.429 84.3272 101.59 85.109 101.198L93.454 97.0095C94.8988 96.2844 96.6379 96.5002 97.8617 97.5563L104.231 103.053C105.421 104.08 107.276 103.396 107.514 101.843L114.84 54.1242C115.342 50.8488 113.095 47.786 109.819 47.2832L75.3407 41.9905C72.0653 41.4877 69.0026 43.7353 68.4998 47.0106Z" fill="#263E8C"/>
<path d="M59.9844 54.4043V102.787C59.9844 104.336 61.6698 105.297 63.003 104.508L70.8515 99.8633C72.2521 99.0343 74.0154 99.1366 75.3107 100.122L82.2542 105.405C82.9504 105.934 83.9099 105.95 84.6231 105.444L92.2361 100.038C93.5541 99.102 95.3059 99.0514 96.6757 99.9097L103.805 104.377C105.137 105.211 106.867 104.254 106.867 102.682V54.4043C106.867 51.0906 104.181 48.4043 100.867 48.4043H65.9844C62.6707 48.4043 59.9844 51.0906 59.9844 54.4043Z" fill="white"/>
<path d="M73.7838 69.6891C73.7838 67.9471 74.1608 66.3611 74.9148 64.9311C75.6948 63.4751 76.8128 62.3311 78.2688 61.4991C79.7248 60.6411 81.4538 60.2121 83.4558 60.2121C85.3538 60.2121 86.9918 60.5241 88.3698 61.1481C89.7738 61.7721 90.8528 62.6431 91.6068 63.7611C92.3608 64.8791 92.7378 66.1531 92.7378 67.5831C92.7378 69.2731 92.3868 70.6121 91.6848 71.6001C91.0088 72.5621 90.0078 73.4981 88.6818 74.4081C87.5118 75.1881 86.6798 75.8641 86.1858 76.4361C85.7178 77.0081 85.4838 77.6841 85.4838 78.4641V78.9711H80.3358V77.8791C80.3358 76.3971 80.6608 75.2401 81.3108 74.4081C81.9868 73.5761 83.0398 72.7441 84.4698 71.9121C85.3798 71.3401 86.0428 70.7551 86.4588 70.1571C86.8748 69.5591 87.0828 68.8701 87.0828 68.0901C87.0828 67.1541 86.7578 66.4001 86.1078 65.8281C85.4578 65.2301 84.5868 64.9311 83.4948 64.9311C82.2468 64.9311 81.2458 65.3731 80.4918 66.2571C79.7378 67.1151 79.3608 68.2591 79.3608 69.6891H73.7838ZM79.8288 84.8211C79.8288 83.9111 80.1278 83.1701 80.7258 82.5981C81.3498 82.0001 82.1298 81.7011 83.0658 81.7011C84.0018 81.7011 84.7688 82.0001 85.3668 82.5981C85.9908 83.1701 86.3028 83.9111 86.3028 84.8211C86.3028 85.7311 85.9908 86.4851 85.3668 87.0831C84.7428 87.6811 83.9758 87.9801 83.0658 87.9801C82.1558 87.9801 81.3888 87.6811 80.7648 87.0831C80.1408 86.4851 79.8288 85.7311 79.8288 84.8211Z" fill="#385AC9"/>
<defs>
<filter id="filter0_d_738_30070" x="0.7" y="0.7" width="165.454" height="165.454" filterUnits="userSpaceOnUse" color-interpolation-filters="sRGB">
<feFlood flood-opacity="0" result="BackgroundImageFix"/>
<feColorMatrix in="SourceAlpha" type="matrix" values="0 0 0 0 0 0 0 0 0 0 0 0 0 0 0 0 0 0 127 0" result="hardAlpha"/>
<feOffset dy="5"/>
<feGaussianBlur stdDeviation="6.15"/>
<feComposite in2="hardAlpha" operator="out"/>
<feColorMatrix type="matrix" values="0 0 0 0 0 0 0 0 0 0 0 0 0 0 0 0 0 0 0.37 0"/>
<feBlend mode="normal" in2="BackgroundImageFix" result="effect1_dropShadow_738_30070"/>
<feBlend mode="normal" in="SourceGraphic" in2="effect1_dropShadow_738_30070" result="shape"/>
</filter>
</defs>
</svg>
