<svg width="57" height="66" viewBox="0 0 57 66" fill="none" xmlns="http://www.w3.org/2000/svg">
<path d="M9.22633 6.52819L1.88514 54.3509C1.65008 55.8822 3.17019 57.0878 4.6077 56.5101L13.0701 53.1097C14.5803 52.5028 16.3076 52.8716 17.4384 54.0422L23.5 60.3171C24.1077 60.9463 25.0538 61.1075 25.8356 60.7151L34.1806 56.5271C35.6254 55.802 37.3645 56.0178 38.5882 57.0739L44.9574 62.5708C46.1474 63.5978 48.0025 62.9139 48.241 61.3602L55.5662 13.6417C56.069 10.3664 53.8214 7.30362 50.546 6.80083L16.0672 1.50804C12.7919 1.00525 9.72912 3.25284 9.22633 6.52819Z" fill="#263E8C"/>
<path d="M0.710938 13.9219V62.3048C0.710938 63.854 2.39638 64.815 3.72959 64.0259L11.578 59.3808C12.9787 58.5519 14.7419 58.6542 16.0373 59.6397L22.9808 64.9223C23.677 65.4519 24.6365 65.4677 25.3497 64.9613L32.9627 59.5555C34.2807 58.6196 36.0324 58.569 37.4023 59.4273L44.5317 63.8941C45.8637 64.7287 47.5936 63.7712 47.5936 62.1993V13.9219C47.5936 10.6082 44.9073 7.92188 41.5936 7.92188H6.71094C3.39723 7.92188 0.710938 10.6082 0.710938 13.9219Z" fill="white"/>
<path d="M14.5103 29.2076C14.5103 27.4656 14.8873 25.8796 15.6413 24.4496C16.4213 22.9936 17.5393 21.8496 18.9953 21.0176C20.4513 20.1596 22.1803 19.7306 24.1823 19.7306C26.0803 19.7306 27.7183 20.0426 29.0963 20.6666C30.5003 21.2906 31.5793 22.1616 32.3333 23.2796C33.0873 24.3976 33.4643 25.6716 33.4643 27.1016C33.4643 28.7916 33.1133 30.1306 32.4113 31.1186C31.7353 32.0806 30.7343 33.0166 29.4083 33.9266C28.2383 34.7066 27.4063 35.3826 26.9123 35.9546C26.4443 36.5266 26.2103 37.2026 26.2103 37.9826V38.4896H21.0623V37.3976C21.0623 35.9156 21.3873 34.7586 22.0373 33.9266C22.7133 33.0946 23.7663 32.2626 25.1963 31.4306C26.1063 30.8586 26.7693 30.2736 27.1853 29.6756C27.6013 29.0776 27.8093 28.3886 27.8093 27.6086C27.8093 26.6726 27.4843 25.9186 26.8343 25.3466C26.1843 24.7486 25.3133 24.4496 24.2213 24.4496C22.9733 24.4496 21.9723 24.8916 21.2183 25.7756C20.4643 26.6336 20.0873 27.7776 20.0873 29.2076H14.5103ZM20.5553 44.3396C20.5553 43.4296 20.8543 42.6886 21.4523 42.1166C22.0763 41.5186 22.8563 41.2196 23.7923 41.2196C24.7283 41.2196 25.4953 41.5186 26.0933 42.1166C26.7173 42.6886 27.0293 43.4296 27.0293 44.3396C27.0293 45.2496 26.7173 46.0036 26.0933 46.6016C25.4693 47.1996 24.7023 47.4986 23.7923 47.4986C22.8823 47.4986 22.1153 47.1996 21.4913 46.6016C20.8673 46.0036 20.5553 45.2496 20.5553 44.3396Z" fill="#385AC9"/>
</svg>
