<svg width="212" height="258" viewBox="0 0 212 258" fill="none" xmlns="http://www.w3.org/2000/svg">
<g filter="url(#filter0_d_142_20562)">
<path d="M153.828 21.2338C167.828 -0.766187 193.828 9.73381 197.828 21.2338C191.328 33.7338 177.328 56.7338 171.828 65.2338C157.828 79.2338 135.828 68.7338 131.828 59.7338C134.161 55.2338 141.828 40.8338 153.828 21.2338Z" fill="#3AC6F4"/>
<path d="M103.828 108.234L125.828 69.7339C125.828 69.7339 131.828 80.026 140.328 81.7339C158.087 85.3022 166.294 75.4704 168.613 71.9411L169.328 70.7339C169.328 70.7339 169.101 71.1977 168.613 71.9411L145.328 111.234C145.328 111.234 135.828 125.689 115.828 118.734C109.889 116.669 103.828 108.234 103.828 108.234Z" fill="#3AC6F4"/>
<path d="M58.3281 50.2339H13.8281C29.8281 76.2339 54.8281 122.234 73.3281 154.234C83.0952 168.51 95.3281 172.734 110.828 165.234C120.828 160.395 140.828 119.734 140.828 119.734C140.828 119.734 132.613 133.518 114.828 131.234C99.3281 127.734 90.8281 107.234 90.8281 107.234L58.3281 50.2339Z" fill="#EEEEEE"/>
<path fill-rule="evenodd" clip-rule="evenodd" d="M10.8281 212.439L24.9593 244.259H35.4896L49.5645 212.439H41.594L31.0637 237.811H29.4977L18.9111 212.439H10.8281ZM85.5721 220.203C82.2527 214.619 76.7859 211.687 69.2843 211.687C59.1665 211.687 51.3086 218.079 51.3086 228.376C51.3086 238.674 58.9884 245.066 69.2843 245.066C76.7859 245.066 82.2527 242.134 85.5721 236.549L79.9272 233.33C77.4892 236.781 74.2822 238.683 69.1624 238.683C62.8798 238.683 58.5195 234.536 58.5195 228.386C58.5195 222.235 62.711 218.088 69.1624 218.088C74.2822 218.088 77.4798 219.99 79.9272 223.441L85.5721 220.222V220.203ZM106.333 218.821H108.836L114.65 233.154H100.341L106.333 218.821ZM101.794 212.439L87.7757 244.259H95.568L97.6591 239.425H117.491L119.583 244.259H127.262L113.591 212.439H101.785H101.794ZM163.045 216.409C158.047 212.726 152.805 211.687 146.813 211.687C138.608 211.687 131.866 214.795 131.866 221.53C131.866 227.458 135.88 229.991 142.453 230.733L153.274 231.939C156.012 232.226 156.94 233.089 156.94 234.815C156.94 237.524 153.218 238.785 148.098 238.785C142.978 238.785 138.496 237.403 134.079 234.351L130.647 239.936C135.767 243.674 140.709 245.057 147.282 245.057C156.94 245.057 163.973 241.837 163.973 234.694C163.973 228.822 159.725 225.946 152.861 225.139L143.203 224.044C140.7 223.757 139.012 223.293 139.012 221.456C139.012 219.619 140.521 218.06 146.804 218.06C151.924 218.06 155.759 219.099 159.538 221.688L163.026 216.391L163.045 216.409ZM169.149 212.439V244.259H176.416V231.02H194.561V244.259H201.828V212.439H194.561V224.582H176.416V212.439H169.149Z" fill="#EEEEEE"/>
</g>
<defs>
<filter id="filter0_d_142_20562" x="0.828125" y="0.376465" width="211" height="256.689" filterUnits="userSpaceOnUse" color-interpolation-filters="sRGB">
<feFlood flood-opacity="0" result="BackgroundImageFix"/>
<feColorMatrix in="SourceAlpha" type="matrix" values="0 0 0 0 0 0 0 0 0 0 0 0 0 0 0 0 0 0 127 0" result="hardAlpha"/>
<feOffset dy="2"/>
<feGaussianBlur stdDeviation="5"/>
<feComposite in2="hardAlpha" operator="out"/>
<feColorMatrix type="matrix" values="0 0 0 0 0 0 0 0 0 0 0 0 0 0 0 0 0 0 0.15 0"/>
<feBlend mode="normal" in2="BackgroundImageFix" result="effect1_dropShadow_142_20562"/>
<feBlend mode="normal" in="SourceGraphic" in2="effect1_dropShadow_142_20562" result="shape"/>
</filter>
</defs>
</svg>
