<svg width="441" height="124" viewBox="0 0 441 124" fill="none" xmlns="http://www.w3.org/2000/svg">
<path fill-rule="evenodd" clip-rule="evenodd" d="M66.7073 84.8112C70.3992 91.004 76.6902 94.5455 84.015 94.5455C91.3791 94.5455 97.7095 90.9556 101.392 84.6854L100.486 86.2336L84.0937 114.14L84.015 114.266C80.323 120.458 74.032 124 66.7171 124C59.4022 124 53.1112 120.458 49.4193 114.266L33.8346 87.7431L32.9485 86.2336C22.2863 68.0908 11.6339 49.9383 0.97168 31.7954H35.5673L66.7073 84.8112Z" fill="#385AC9"/>
<path fill-rule="evenodd" clip-rule="evenodd" d="M49.458 114.265L66.7558 84.8109C70.4477 91.0036 76.7387 94.5451 84.0536 94.5451C91.4178 94.5451 97.7482 90.9552 101.43 84.6851L100.524 86.2333L84.1324 114.139C80.4503 120.41 74.12 123.999 66.7558 123.999C59.4409 123.999 53.1499 120.458 49.458 114.265Z" fill="#385AC9"/>
<path fill-rule="evenodd" clip-rule="evenodd" d="M49.4193 114.266L33.8346 87.7431L32.9485 86.2336C22.2863 68.0908 11.6339 49.9383 0.97168 31.7954H35.5772L66.7172 84.8112L49.4193 114.266Z" fill="#3766FE"/>
<path fill-rule="evenodd" clip-rule="evenodd" d="M71.5039 76.7879L88.8017 47.3336C92.4936 53.5263 98.7846 57.0678 106.1 57.0678C113.464 57.0678 119.794 53.4779 123.476 47.2078L122.57 48.756L106.178 76.6621C102.496 82.9322 96.1658 86.5221 88.8017 86.5221C81.4868 86.5221 75.1958 82.9806 71.5039 76.7879Z" fill="#36C6FF"/>
<path fill-rule="evenodd" clip-rule="evenodd" d="M93.3652 39.3143L94.271 37.7661L110.663 9.86003C114.345 3.58986 120.666 0 128.04 0C135.355 0 141.646 3.54148 145.337 9.73424L144.432 11.2824L128.04 39.1885C124.358 45.4587 118.037 49.0486 110.663 49.0486C103.348 49.0486 97.0571 45.5071 93.3652 39.3143Z" fill="#36C6FF"/>
<path fill-rule="evenodd" clip-rule="evenodd" d="M159.325 44.7086L180.093 91.473H195.569L216.254 44.7086H204.54L189.064 81.9974H186.763L171.204 44.7086H159.325ZM269.173 56.1202C264.294 47.9126 256.26 43.6042 245.235 43.6042C230.366 43.6042 218.817 52.998 218.817 68.1317C218.817 83.2654 230.104 92.6592 245.235 92.6592C256.26 92.6592 264.294 88.3509 269.173 80.1432L260.877 75.4122C257.294 80.4841 252.581 83.279 245.056 83.279C235.823 83.279 229.415 77.1846 229.415 68.1453C229.415 59.106 235.575 53.0117 245.056 53.0117C252.581 53.0117 257.28 55.8066 260.877 60.8785L269.173 56.1475V56.1202ZM299.684 54.0888H303.363L311.907 75.1532H290.878L299.684 54.0888ZM293.014 44.7086L272.411 91.473H283.863L286.936 84.3697H316.083L319.156 91.473H330.443L310.35 44.7086H293H293.014ZM383.031 50.5439C375.685 45.1312 367.982 43.6042 359.176 43.6042C347.118 43.6042 337.209 48.1716 337.209 58.0699C337.209 66.7819 343.107 70.504 352.768 71.5947L368.671 73.3671C372.695 73.7898 374.059 75.0577 374.059 77.5937C374.059 81.5748 368.588 83.429 361.064 83.429C353.539 83.429 346.952 81.3975 340.461 76.912L335.418 85.1196C342.942 90.6141 350.204 92.6455 359.865 92.6455C374.059 92.6455 384.395 87.9146 384.395 77.4164C384.395 68.7861 378.152 64.5596 368.064 63.3735L353.87 61.7646C350.191 61.342 347.71 60.6603 347.71 57.9608C347.71 55.2613 349.929 52.9708 359.162 52.9708C366.686 52.9708 372.323 54.4978 377.876 58.3016L383.003 50.5166L383.031 50.5439ZM392.002 44.7086V91.473H402.682V72.0174H429.348V91.473H440.028V44.7086H429.348V62.5554H402.682V44.7086H392.002Z" fill="white"/>
</svg>
