<svg width="307" height="417" viewBox="0 0 307 417" fill="none" xmlns="http://www.w3.org/2000/svg">
<g opacity="0.2">
<path d="M229.587 18.5101C233.424 16.1907 237.51 14.4321 241.723 13.2362L244.224 1.22344L264.521 0.86676L267.441 12.7822C271.694 13.8294 275.839 15.4449 279.757 17.627L290.015 10.9034L304.618 25.0048L298.26 35.4897C300.58 39.3274 302.338 43.4149 303.534 47.6283L315.545 50.127L315.902 70.4235L303.984 73.3457C302.937 77.5972 301.322 81.742 299.14 85.6598L305.863 95.9177L291.764 110.521L281.277 104.163C277.439 106.483 273.354 108.239 269.138 109.437L266.638 121.45L246.341 121.807L243.419 109.889C239.166 108.84 235.023 107.227 231.105 105.045L220.847 111.768L206.244 97.6687L212.601 87.1819C210.282 83.3442 208.523 79.2586 207.327 75.0432L195.315 72.5427L194.958 52.2461L206.875 49.324C207.923 45.0724 209.538 40.9277 211.72 37.0099L204.997 26.7519L219.096 12.149L229.587 18.5101ZM240.407 45.5474C232.053 54.1993 232.295 67.9859 240.949 76.3384C249.601 84.6908 263.388 84.4486 271.74 75.7967C280.092 67.1447 279.852 53.3581 271.198 45.0057C262.544 36.6532 248.76 36.8954 240.407 45.5474Z" fill="#69A9FF"/>
<path d="M34.6306 313.701C38.4682 311.382 42.5538 309.623 46.7673 308.428L49.2678 296.415L69.5644 296.058L72.4846 307.974C76.7381 309.021 80.8829 310.636 84.7987 312.818L95.0567 306.095L109.66 320.196L103.302 330.681C105.622 334.519 107.38 338.606 108.576 342.82L120.587 345.32L120.944 365.617L109.026 368.539C107.979 372.79 106.364 376.935 104.182 380.853L110.905 391.111L96.8057 405.714L86.3189 399.357C82.4813 401.676 78.3956 403.433 74.1803 404.631L71.6796 416.643L51.3851 417L48.4629 405.083C44.2094 404.035 40.0666 402.42 36.1488 400.238L25.8909 406.961L11.2879 392.862L17.6452 382.375C15.3258 378.537 13.5672 374.452 12.3694 370.236L0.356704 367.736L0 347.439L11.9173 344.517C12.9645 340.266 14.58 336.121 16.7621 332.203L10.0386 321.945L24.138 307.342L34.6306 313.701ZM45.4493 340.739C37.0949 349.391 37.3372 363.177 45.991 371.53C54.6429 379.882 68.4295 379.64 76.782 370.988C85.1344 362.336 84.8941 348.549 76.2403 340.197C67.5884 331.845 53.8037 332.087 45.4493 340.739Z" fill="#69A9FF"/>
<path d="M237.686 389.539L131.206 361.396C123.847 359.45 119.46 351.91 121.406 344.552L160.358 197.171C162.304 189.813 169.844 185.424 177.202 187.369L244.732 205.217L282.765 272.91L254.53 379.735C252.584 387.094 245.043 391.483 237.686 389.539Z" fill="#69A9FF"/>
<path d="M244.73 205.217L233.766 246.695C231.958 253.539 236.038 260.552 242.882 262.362L282.763 272.91L244.73 205.217Z" fill="#173D7A" fill-opacity="0.47"/>
<path d="M233.35 250.479C233.35 250.479 230.166 260.401 240.745 266.734C241.141 266.972 241.559 267.182 241.979 267.377C246.94 269.685 279.61 284.843 279.818 284.055C280.043 283.202 282.763 272.908 282.763 272.908L242.879 262.366C242.881 262.37 233.012 259.396 233.35 250.479Z" fill="#385AC9" fill-opacity="0.05"/>
<path d="M225.286 242.643C225.145 243.175 214.002 240.694 200.4 237.099C186.795 233.503 175.883 230.156 176.024 229.623C176.165 229.091 187.306 231.573 200.911 235.168C214.513 238.764 225.427 242.109 225.286 242.643Z" fill="#22467F"/>
<path d="M250.9 274.505C250.759 275.037 232.494 270.673 210.109 264.756C187.716 258.838 169.684 253.609 169.823 253.075C169.964 252.543 188.226 256.907 210.618 262.826C233.005 268.741 251.042 273.971 250.9 274.505Z" fill="#22467F"/>
<path d="M253.028 296.018C252.887 296.552 232.987 291.753 208.586 285.304C184.175 278.853 164.508 273.192 164.649 272.658C164.79 272.126 184.686 276.921 209.095 283.374C233.496 289.823 253.169 295.484 253.028 296.018Z" fill="#22467F"/>
<path d="M248.145 314.492C248.004 315.026 228.104 310.229 203.703 303.778C179.292 297.328 159.625 291.666 159.766 291.132C159.908 290.6 179.804 295.395 204.212 301.848C228.614 308.299 248.286 313.96 248.145 314.492Z" fill="#22467F"/>
<path d="M243.26 332.969C243.118 333.503 223.219 328.706 198.817 322.256C174.407 315.805 154.739 310.144 154.881 309.61C155.022 309.077 174.918 313.873 199.327 320.325C223.73 326.776 243.401 332.437 243.26 332.969Z" fill="#22467F"/>
<path d="M238.378 351.447C238.237 351.979 218.337 347.182 193.936 340.733C169.525 334.282 149.858 328.621 149.999 328.087C150.14 327.555 170.036 332.35 194.445 338.803C218.848 345.252 238.519 350.915 238.378 351.447Z" fill="#22467F"/>
<path d="M155.575 290.632L49.0954 262.489C41.7367 260.543 37.3497 253.003 39.2953 245.644L78.248 98.2642C80.1935 90.9055 87.7334 86.5166 95.0921 88.4621L162.621 106.31L200.655 174.003L172.42 280.828C170.474 288.187 162.932 292.576 155.575 290.632Z" fill="#69A9FF" fill-opacity="0.12"/>
<path d="M162.62 106.309L151.656 147.788C149.848 154.631 153.928 161.645 160.771 163.455L200.653 174.003L162.62 106.309Z" fill="#173D7A" fill-opacity="0.47"/>
<path d="M151.239 151.572C151.239 151.572 148.056 161.494 158.634 167.827C159.031 168.065 159.449 168.275 159.868 168.469C164.83 170.777 197.499 185.935 197.707 185.148C197.932 184.295 200.652 174.001 200.652 174.001L160.769 163.459C160.771 163.463 150.902 160.489 151.239 151.572Z" fill="#385AC9" fill-opacity="0.05"/>
<path d="M143.176 143.737C143.034 144.269 131.891 141.787 118.29 138.192C104.684 134.596 93.7723 131.249 93.9135 130.717C94.0546 130.185 105.196 132.666 118.801 136.262C132.403 139.857 143.317 143.203 143.176 143.737Z" fill="#22467F"/>
<path d="M168.79 175.597C168.649 176.129 150.384 171.765 127.999 165.849C105.606 159.93 87.5735 154.702 87.7127 154.168C87.8539 153.635 106.115 158 128.508 163.918C150.895 169.833 168.931 175.063 168.79 175.597Z" fill="#22467F"/>
<path d="M170.917 197.111C170.776 197.645 150.876 192.846 126.475 186.397C102.064 179.946 82.3967 174.285 82.5379 173.751C82.679 173.219 102.575 178.014 126.984 184.467C151.385 190.916 171.058 196.577 170.917 197.111Z" fill="#22467F"/>
<path d="M166.035 215.586C165.894 216.12 145.994 211.323 121.593 204.872C97.182 198.421 77.5149 192.76 77.656 192.226C77.7972 191.694 97.6932 196.489 122.102 202.941C146.503 209.392 166.176 215.053 166.035 215.586Z" fill="#22467F"/>
<path d="M161.149 234.062C161.008 234.596 141.108 229.799 116.707 223.349C92.2962 216.898 72.6291 211.237 72.7703 210.703C72.9114 210.17 92.8074 214.966 117.216 221.418C141.619 227.869 161.29 233.53 161.149 234.062Z" fill="#22467F"/>
<path d="M156.266 252.54C156.125 253.072 136.225 248.275 111.824 241.826C87.4134 235.375 67.7463 229.714 67.8875 229.18C68.0286 228.648 87.9246 233.443 112.333 239.896C136.737 246.345 156.408 252.008 156.266 252.54Z" fill="#22467F"/>
</g>
</svg>
