<svg width="340" height="340" viewBox="0 0 340 340" fill="none" xmlns="http://www.w3.org/2000/svg">
<g clip-path="url(#clip0_593_21378)">
<path d="M108.979 0.494873H122.539V41.1749H108.979V0.494873Z" fill="black"/>
<path d="M136.101 0.494873H149.661V14.0601H136.101V0.494873Z" fill="black"/>
<path d="M163.222 0.494873H217.462V54.7349H231.022V68.2949H176.782V54.7349H203.902V27.6149H190.336V14.0601H176.782V27.6149H163.222V0.494873Z" fill="black"/>
<path d="M0.495117 0.495117V95.4151H95.4151V0.495117H0.495117ZM81.8603 81.8603H14.0603V14.0603H81.8603V81.8603Z" fill="black"/>
<path d="M244.579 0.494873V95.4149H339.504V0.494873H244.579ZM325.944 81.8601H258.139V14.0601H325.944V81.8601Z" fill="black"/>
<path d="M27.6162 27.6147H68.2962V68.2947H27.6162V27.6147Z" fill="black"/>
<path d="M149.657 27.6147H163.222V41.1747H149.657V27.6147Z" fill="black"/>
<path d="M271.7 27.6147H312.385V68.2947H271.7V27.6147Z" fill="black"/>
<path d="M122.534 41.175H149.659V54.7351H136.099V68.295H149.659V95.415H163.219V122.535H149.659V108.98H136.099V81.8603H122.534V108.98H136.099V122.535H108.979V68.295H122.534V41.175Z" fill="black"/>
<path d="M163.222 81.8604H176.782V95.4204H163.222V81.8604Z" fill="black"/>
<path d="M190.337 81.8604H203.902V95.4204H190.337V81.8604Z" fill="black"/>
<path d="M217.458 81.8604H231.023V95.4204H217.458V81.8604Z" fill="black"/>
<path d="M27.6162 108.98H68.2962V122.535H81.8614V136.1H68.2962V149.66H54.7362V122.535H27.6162V108.98Z" fill="black"/>
<path d="M81.8584 108.98H95.4184V122.54H81.8584V108.98Z" fill="black"/>
<path d="M176.778 108.98H190.338V122.54H176.778V108.98Z" fill="black"/>
<path d="M203.899 108.98H217.459V136.1H203.899V108.98Z" fill="black"/>
<path d="M231.021 108.98H271.701V136.1H258.141V122.535H231.021V108.98Z" fill="black"/>
<path d="M298.818 108.98H339.503V122.535H312.383V136.1H339.503V176.78H298.818V163.22H312.383V149.66H285.258V136.1H298.818V108.98Z" fill="black"/>
<path d="M95.4138 122.534H108.979V149.66H136.099V122.534H149.659V136.1H190.334V149.66H149.659V163.22H122.534V176.78H54.7338V190.334H41.1738V149.66H54.7338V163.22H95.4138V149.66H81.859V136.1H95.4138V122.534Z" fill="black"/>
<path d="M27.6162 136.1H41.1762V149.66H27.6162V136.1Z" fill="black"/>
<path d="M217.458 136.1H231.023V149.66H217.458V136.1Z" fill="black"/>
<path d="M0.495117 149.66H27.6151V176.78H14.0603V231.02H0.495117V149.66Z" fill="black"/>
<path d="M190.337 149.66H203.902V163.226H190.337V149.66Z" fill="black"/>
<path d="M163.222 163.22H190.336V190.334H176.782V176.78H163.222V163.22Z" fill="black"/>
<path d="M217.458 163.22H231.023V176.78H217.458V163.22Z" fill="black"/>
<path d="M285.258 176.78H298.823V190.34H285.258V176.78Z" fill="black"/>
<path d="M27.6162 190.334H41.1762V203.9H68.2962V217.46H54.7362V231.02H41.1762V217.46H27.6162V190.334Z" fill="black"/>
<path d="M81.8584 190.334H95.4184V203.9H81.8584V190.334Z" fill="black"/>
<path d="M298.821 190.334H339.506V231.02H325.947V203.9H298.821V190.334Z" fill="black"/>
<path d="M285.26 217.46V190.34H271.7V176.78H258.14V163.22H271.7V176.78H285.26V149.66H258.14V136.1H244.58V149.66H231.02V163.22H244.58V190.335H258.14V217.455H217.46V203.9H244.58V190.335H217.46V176.775H203.9V190.335H190.335V217.455H176.775V231.02H163.215V217.46L176.775 217.455V190.34H163.215V203.9H149.66V190.335H163.22V176.775H122.535V190.335H136.1V203.9H95.4149V217.46H68.2949V231.02H108.98V217.46H149.66V231.02H108.98V244.58H136.1V258.14H122.535V271.7H108.975V312.385H122.535V298.82H136.1V271.7H149.66V258.14H163.22V244.58H190.335V231.02H203.9V258.14H217.46V285.26H203.9V258.14H176.78V271.7H149.66V298.82H163.22V285.26H190.335V298.82H217.455V312.385H231.02V298.82H244.58V285.26H271.7V298.82H298.82V285.26H285.26V271.7H298.82V258.14H285.26V244.58H298.82V231.02H312.385V217.46H285.26ZM271.7 271.7H231.02V231.02H271.7V271.7Z" fill="black"/>
<path d="M312.384 231.02H325.944V244.58H339.504V258.14H312.384V231.02Z" fill="black"/>
<path d="M244.579 244.58H258.144V258.146H244.579V244.58Z" fill="black"/>
<path d="M0.495117 244.58V339.506H95.4151V244.58H0.495117ZM81.8603 325.946H14.0603V258.14H81.8603V325.946Z" fill="black"/>
<path d="M27.6162 271.7H68.2962V312.385H27.6162V271.7Z" fill="black"/>
<path d="M298.821 271.7H312.386V285.26H298.821V271.7Z" fill="black"/>
<path d="M325.943 285.26H339.503V339.506H285.258V325.946H325.943V285.26Z" fill="black"/>
<path d="M163.222 298.82H190.336V312.385H163.222V298.82Z" fill="black"/>
<path d="M244.581 298.82H271.701V312.385H285.26V325.945H258.141V339.505H231.021V325.945H244.581V298.82Z" fill="black"/>
<path d="M298.821 298.82H312.386V312.385H298.821V298.82Z" fill="black"/>
<path d="M149.657 312.385H163.222V325.95H149.657V312.385Z" fill="black"/>
<path d="M190.337 325.945H217.457V339.505H190.337V325.945Z" fill="black"/>
</g>
<defs>
<clipPath id="clip0_593_21378">
<rect width="339" height="339" fill="white" transform="translate(0.5 0.5)"/>
</clipPath>
</defs>
</svg>
