<svg width="82" height="82" viewBox="0 0 82 82" fill="none" xmlns="http://www.w3.org/2000/svg">
<path d="M0.887939 0.888H3.31897V3.31903H0.887939V0.888ZM3.31897 0.888H5.75V3.31903H3.31897V0.888ZM5.75 0.888H8.18103V3.31903H5.75V0.888ZM8.18103 0.888H10.6121V3.31903H8.18103V0.888ZM10.6121 0.888H13.0431V3.31903H10.6121V0.888ZM13.0431 0.888H15.4741V3.31903H13.0431V0.888ZM15.4741 0.888H17.9052V3.31903H15.4741V0.888ZM27.6293 0.888H30.0603V3.31903H27.6293V0.888ZM34.9224 0.888H37.3534V3.31903H34.9224V0.888ZM37.3534 0.888H39.7844V3.31903H37.3534V0.888ZM39.7844 0.888H42.2155V3.31903H39.7844V0.888ZM42.2155 0.888H44.6465V3.31903H42.2155V0.888ZM51.9396 0.888H54.3706V3.31903H51.9396V0.888ZM54.3706 0.888H56.8016V3.31903H54.3706V0.888ZM56.8016 0.888H59.2327V3.31903H56.8016V0.888ZM64.0947 0.888H66.5258V3.31903H64.0947V0.888ZM66.5258 0.888H68.9568V3.31903H66.5258V0.888ZM68.9568 0.888H71.3878V3.31903H68.9568V0.888ZM71.3878 0.888H73.8188V3.31903H71.3878V0.888ZM73.8188 0.888H76.2499V3.31903H73.8188V0.888ZM76.2499 0.888H78.6809V3.31903H76.2499V0.888ZM78.6809 0.888H81.1119V3.31903H78.6809V0.888ZM0.887939 3.31903H3.31897V5.75006H0.887939V3.31903ZM15.4741 3.31903H17.9052V5.75006H15.4741V3.31903ZM22.7672 3.31903H25.1982V5.75006H22.7672V3.31903ZM27.6293 3.31903H30.0603V5.75006H27.6293V3.31903ZM32.4913 3.31903H34.9224V5.75006H32.4913V3.31903ZM39.7844 3.31903H42.2155V5.75006H39.7844V3.31903ZM42.2155 3.31903H44.6465V5.75006H42.2155V3.31903ZM47.0775 3.31903H49.5085V5.75006H47.0775V3.31903ZM49.5085 3.31903H51.9396V5.75006H49.5085V3.31903ZM51.9396 3.31903H54.3706V5.75006H51.9396V3.31903ZM54.3706 3.31903H56.8016V5.75006H54.3706V3.31903ZM64.0947 3.31903H66.5258V5.75006H64.0947V3.31903ZM78.6809 3.31903H81.1119V5.75006H78.6809V3.31903ZM0.887939 5.75006H3.31897V8.18109H0.887939V5.75006ZM5.75 5.75006H8.18103V8.18109H5.75V5.75006ZM8.18103 5.75006H10.6121V8.18109H8.18103V5.75006ZM10.6121 5.75006H13.0431V8.18109H10.6121V5.75006ZM15.4741 5.75006H17.9052V8.18109H15.4741V5.75006ZM20.3362 5.75006H22.7672V8.18109H20.3362V5.75006ZM30.0603 5.75006H32.4913V8.18109H30.0603V5.75006ZM32.4913 5.75006H34.9224V8.18109H32.4913V5.75006ZM34.9224 5.75006H37.3534V8.18109H34.9224V5.75006ZM47.0775 5.75006H49.5085V8.18109H47.0775V5.75006ZM49.5085 5.75006H51.9396V8.18109H49.5085V5.75006ZM54.3706 5.75006H56.8016V8.18109H54.3706V5.75006ZM56.8016 5.75006H59.2327V8.18109H56.8016V5.75006ZM59.2327 5.75006H61.6637V8.18109H59.2327V5.75006ZM64.0947 5.75006H66.5258V8.18109H64.0947V5.75006ZM68.9568 5.75006H71.3878V8.18109H68.9568V5.75006ZM71.3878 5.75006H73.8188V8.18109H71.3878V5.75006ZM73.8188 5.75006H76.2499V8.18109H73.8188V5.75006ZM78.6809 5.75006H81.1119V8.18109H78.6809V5.75006ZM0.887939 8.18109H3.31897V10.6121H0.887939V8.18109ZM5.75 8.18109H8.18103V10.6121H5.75V8.18109ZM8.18103 8.18109H10.6121V10.6121H8.18103V8.18109ZM10.6121 8.18109H13.0431V10.6121H10.6121V8.18109ZM15.4741 8.18109H17.9052V10.6121H15.4741V8.18109ZM30.0603 8.18109H32.4913V10.6121H30.0603V8.18109ZM42.2155 8.18109H44.6465V10.6121H42.2155V8.18109ZM44.6465 8.18109H47.0775V10.6121H44.6465V8.18109ZM47.0775 8.18109H49.5085V10.6121H47.0775V8.18109ZM49.5085 8.18109H51.9396V10.6121H49.5085V8.18109ZM51.9396 8.18109H54.3706V10.6121H51.9396V8.18109ZM56.8016 8.18109H59.2327V10.6121H56.8016V8.18109ZM59.2327 8.18109H61.6637V10.6121H59.2327V8.18109ZM64.0947 8.18109H66.5258V10.6121H64.0947V8.18109ZM68.9568 8.18109H71.3878V10.6121H68.9568V8.18109ZM71.3878 8.18109H73.8188V10.6121H71.3878V8.18109ZM73.8188 8.18109H76.2499V10.6121H73.8188V8.18109ZM78.6809 8.18109H81.1119V10.6121H78.6809V8.18109ZM0.887939 10.6121H3.31897V13.0432H0.887939V10.6121ZM5.75 10.6121H8.18103V13.0432H5.75V10.6121ZM8.18103 10.6121H10.6121V13.0432H8.18103V10.6121ZM10.6121 10.6121H13.0431V13.0432H10.6121V10.6121ZM15.4741 10.6121H17.9052V13.0432H15.4741V10.6121ZM20.3362 10.6121H22.7672V13.0432H20.3362V10.6121ZM22.7672 10.6121H25.1982V13.0432H22.7672V10.6121ZM25.1982 10.6121H27.6293V13.0432H25.1982V10.6121ZM27.6293 10.6121H30.0603V13.0432H27.6293V10.6121ZM32.4913 10.6121H34.9224V13.0432H32.4913V10.6121ZM34.9224 10.6121H37.3534V13.0432H34.9224V10.6121ZM37.3534 10.6121H39.7844V13.0432H37.3534V10.6121ZM44.6465 10.6121H47.0775V13.0432H44.6465V10.6121ZM47.0775 10.6121H49.5085V13.0432H47.0775V10.6121ZM49.5085 10.6121H51.9396V13.0432H49.5085V10.6121ZM59.2327 10.6121H61.6637V13.0432H59.2327V10.6121ZM64.0947 10.6121H66.5258V13.0432H64.0947V10.6121ZM68.9568 10.6121H71.3878V13.0432H68.9568V10.6121ZM71.3878 10.6121H73.8188V13.0432H71.3878V10.6121ZM73.8188 10.6121H76.2499V13.0432H73.8188V10.6121ZM78.6809 10.6121H81.1119V13.0432H78.6809V10.6121ZM0.887939 13.0432H3.31897V15.4742H0.887939V13.0432ZM15.4741 13.0432H17.9052V15.4742H15.4741V13.0432ZM20.3362 13.0432H22.7672V15.4742H20.3362V13.0432ZM25.1982 13.0432H27.6293V15.4742H25.1982V13.0432ZM27.6293 13.0432H30.0603V15.4742H27.6293V13.0432ZM32.4913 13.0432H34.9224V15.4742H32.4913V13.0432ZM37.3534 13.0432H39.7844V15.4742H37.3534V13.0432ZM42.2155 13.0432H44.6465V15.4742H42.2155V13.0432ZM44.6465 13.0432H47.0775V15.4742H44.6465V13.0432ZM47.0775 13.0432H49.5085V15.4742H47.0775V13.0432ZM54.3706 13.0432H56.8016V15.4742H54.3706V13.0432ZM64.0947 13.0432H66.5258V15.4742H64.0947V13.0432ZM78.6809 13.0432H81.1119V15.4742H78.6809V13.0432ZM0.887939 15.4742H3.31897V17.9052H0.887939V15.4742ZM3.31897 15.4742H5.75V17.9052H3.31897V15.4742ZM5.75 15.4742H8.18103V17.9052H5.75V15.4742ZM8.18103 15.4742H10.6121V17.9052H8.18103V15.4742ZM10.6121 15.4742H13.0431V17.9052H10.6121V15.4742ZM13.0431 15.4742H15.4741V17.9052H13.0431V15.4742ZM15.4741 15.4742H17.9052V17.9052H15.4741V15.4742ZM20.3362 15.4742H22.7672V17.9052H20.3362V15.4742ZM25.1982 15.4742H27.6293V17.9052H25.1982V15.4742ZM30.0603 15.4742H32.4913V17.9052H30.0603V15.4742ZM34.9224 15.4742H37.3534V17.9052H34.9224V15.4742ZM39.7844 15.4742H42.2155V17.9052H39.7844V15.4742ZM44.6465 15.4742H47.0775V17.9052H44.6465V15.4742ZM49.5085 15.4742H51.9396V17.9052H49.5085V15.4742ZM54.3706 15.4742H56.8016V17.9052H54.3706V15.4742ZM59.2327 15.4742H61.6637V17.9052H59.2327V15.4742ZM64.0947 15.4742H66.5258V17.9052H64.0947V15.4742ZM66.5258 15.4742H68.9568V17.9052H66.5258V15.4742ZM68.9568 15.4742H71.3878V17.9052H68.9568V15.4742ZM71.3878 15.4742H73.8188V17.9052H71.3878V15.4742ZM73.8188 15.4742H76.2499V17.9052H73.8188V15.4742ZM76.2499 15.4742H78.6809V17.9052H76.2499V15.4742ZM78.6809 15.4742H81.1119V17.9052H78.6809V15.4742ZM22.7672 17.9052H25.1982V20.3362H22.7672V17.9052ZM25.1982 17.9052H27.6293V20.3362H25.1982V17.9052ZM27.6293 17.9052H30.0603V20.3362H27.6293V17.9052ZM32.4913 17.9052H34.9224V20.3362H32.4913V17.9052ZM34.9224 17.9052H37.3534V20.3362H34.9224V17.9052ZM37.3534 17.9052H39.7844V20.3362H37.3534V17.9052ZM42.2155 17.9052H44.6465V20.3362H42.2155V17.9052ZM51.9396 17.9052H54.3706V20.3362H51.9396V17.9052ZM54.3706 17.9052H56.8016V20.3362H54.3706V17.9052ZM56.8016 17.9052H59.2327V20.3362H56.8016V17.9052ZM3.31897 20.3362H5.75V22.7673H3.31897V20.3362ZM10.6121 20.3362H13.0431V22.7673H10.6121V20.3362ZM15.4741 20.3362H17.9052V22.7673H15.4741V20.3362ZM20.3362 20.3362H22.7672V22.7673H20.3362V20.3362ZM25.1982 20.3362H27.6293V22.7673H25.1982V20.3362ZM32.4913 20.3362H34.9224V22.7673H32.4913V20.3362ZM34.9224 20.3362H37.3534V22.7673H34.9224V20.3362ZM37.3534 20.3362H39.7844V22.7673H37.3534V20.3362ZM39.7844 20.3362H42.2155V22.7673H39.7844V20.3362ZM42.2155 20.3362H44.6465V22.7673H42.2155V20.3362ZM47.0775 20.3362H49.5085V22.7673H47.0775V20.3362ZM49.5085 20.3362H51.9396V22.7673H49.5085V20.3362ZM51.9396 20.3362H54.3706V22.7673H51.9396V20.3362ZM59.2327 20.3362H61.6637V22.7673H59.2327V20.3362ZM61.6637 20.3362H64.0947V22.7673H61.6637V20.3362ZM66.5258 20.3362H68.9568V22.7673H66.5258V20.3362ZM68.9568 20.3362H71.3878V22.7673H68.9568V20.3362ZM73.8188 20.3362H76.2499V22.7673H73.8188V20.3362ZM0.887939 22.7673H3.31897V25.1983H0.887939V22.7673ZM8.18103 22.7673H10.6121V25.1983H8.18103V22.7673ZM10.6121 22.7673H13.0431V25.1983H10.6121V22.7673ZM20.3362 22.7673H22.7672V25.1983H20.3362V22.7673ZM22.7672 22.7673H25.1982V25.1983H22.7672V22.7673ZM39.7844 22.7673H42.2155V25.1983H39.7844V22.7673ZM49.5085 22.7673H51.9396V25.1983H49.5085V22.7673ZM56.8016 22.7673H59.2327V25.1983H56.8016V22.7673ZM61.6637 22.7673H64.0947V25.1983H61.6637V22.7673ZM71.3878 22.7673H73.8188V25.1983H71.3878V22.7673ZM73.8188 22.7673H76.2499V25.1983H73.8188V22.7673ZM76.2499 22.7673H78.6809V25.1983H76.2499V22.7673ZM0.887939 25.1983H3.31897V27.6293H0.887939V25.1983ZM3.31897 25.1983H5.75V27.6293H3.31897V25.1983ZM5.75 25.1983H8.18103V27.6293H5.75V25.1983ZM8.18103 25.1983H10.6121V27.6293H8.18103V25.1983ZM13.0431 25.1983H15.4741V27.6293H13.0431V25.1983ZM15.4741 25.1983H17.9052V27.6293H15.4741V25.1983ZM17.9052 25.1983H20.3362V27.6293H17.9052V25.1983ZM22.7672 25.1983H25.1982V27.6293H22.7672V25.1983ZM30.0603 25.1983H32.4913V27.6293H30.0603V25.1983ZM42.2155 25.1983H44.6465V27.6293H42.2155V25.1983ZM51.9396 25.1983H54.3706V27.6293H51.9396V25.1983ZM54.3706 25.1983H56.8016V27.6293H54.3706V25.1983ZM56.8016 25.1983H59.2327V27.6293H56.8016V25.1983ZM59.2327 25.1983H61.6637V27.6293H59.2327V25.1983ZM71.3878 25.1983H73.8188V27.6293H71.3878V25.1983ZM76.2499 25.1983H78.6809V27.6293H76.2499V25.1983ZM3.31897 27.6293H5.75V30.0604H3.31897V27.6293ZM8.18103 27.6293H10.6121V30.0604H8.18103V27.6293ZM17.9052 27.6293H20.3362V30.0604H17.9052V27.6293ZM25.1982 27.6293H27.6293V30.0604H25.1982V27.6293ZM27.6293 27.6293H30.0603V30.0604H27.6293V27.6293ZM39.7844 27.6293H42.2155V30.0604H39.7844V27.6293ZM42.2155 27.6293H44.6465V30.0604H42.2155V27.6293ZM44.6465 27.6293H47.0775V30.0604H44.6465V27.6293ZM51.9396 27.6293H54.3706V30.0604H51.9396V27.6293ZM61.6637 27.6293H64.0947V30.0604H61.6637V27.6293ZM76.2499 27.6293H78.6809V30.0604H76.2499V27.6293ZM78.6809 27.6293H81.1119V30.0604H78.6809V27.6293ZM3.31897 30.0604H5.75V32.4914H3.31897V30.0604ZM5.75 30.0604H8.18103V32.4914H5.75V30.0604ZM13.0431 30.0604H15.4741V32.4914H13.0431V30.0604ZM15.4741 30.0604H17.9052V32.4914H15.4741V30.0604ZM17.9052 30.0604H20.3362V32.4914H17.9052V30.0604ZM22.7672 30.0604H25.1982V32.4914H22.7672V30.0604ZM25.1982 30.0604H27.6293V32.4914H25.1982V30.0604ZM34.9224 30.0604H37.3534V32.4914H34.9224V30.0604ZM39.7844 30.0604H42.2155V32.4914H39.7844V30.0604ZM44.6465 30.0604H47.0775V32.4914H44.6465V30.0604ZM49.5085 30.0604H51.9396V32.4914H49.5085V30.0604ZM56.8016 30.0604H59.2327V32.4914H56.8016V30.0604ZM59.2327 30.0604H61.6637V32.4914H59.2327V30.0604ZM64.0947 30.0604H66.5258V32.4914H64.0947V30.0604ZM68.9568 30.0604H71.3878V32.4914H68.9568V30.0604ZM71.3878 30.0604H73.8188V32.4914H71.3878V30.0604ZM78.6809 30.0604H81.1119V32.4914H78.6809V30.0604ZM0.887939 32.4914H3.31897V34.9224H0.887939V32.4914ZM3.31897 32.4914H5.75V34.9224H3.31897V32.4914ZM5.75 32.4914H8.18103V34.9224H5.75V32.4914ZM8.18103 32.4914H10.6121V34.9224H8.18103V32.4914ZM17.9052 32.4914H20.3362V34.9224H17.9052V32.4914ZM22.7672 32.4914H25.1982V34.9224H22.7672V32.4914ZM32.4913 32.4914H34.9224V34.9224H32.4913V32.4914ZM47.0775 32.4914H49.5085V34.9224H47.0775V32.4914ZM51.9396 32.4914H54.3706V34.9224H51.9396V32.4914ZM54.3706 32.4914H56.8016V34.9224H54.3706V32.4914ZM66.5258 32.4914H68.9568V34.9224H66.5258V32.4914ZM3.31897 34.9224H5.75V37.3535H3.31897V34.9224ZM8.18103 34.9224H10.6121V37.3535H8.18103V34.9224ZM10.6121 34.9224H13.0431V37.3535H10.6121V34.9224ZM13.0431 34.9224H15.4741V37.3535H13.0431V34.9224ZM15.4741 34.9224H17.9052V37.3535H15.4741V34.9224ZM17.9052 34.9224H20.3362V37.3535H17.9052V34.9224ZM20.3362 34.9224H22.7672V37.3535H20.3362V34.9224ZM22.7672 34.9224H25.1982V37.3535H22.7672V34.9224ZM37.3534 34.9224H39.7844V37.3535H37.3534V34.9224ZM42.2155 34.9224H44.6465V37.3535H42.2155V34.9224ZM44.6465 34.9224H47.0775V37.3535H44.6465V34.9224ZM47.0775 34.9224H49.5085V37.3535H47.0775V34.9224ZM61.6637 34.9224H64.0947V37.3535H61.6637V34.9224ZM64.0947 34.9224H66.5258V37.3535H64.0947V34.9224ZM76.2499 34.9224H78.6809V37.3535H76.2499V34.9224ZM3.31897 37.3535H5.75V39.7845H3.31897V37.3535ZM5.75 37.3535H8.18103V39.7845H5.75V37.3535ZM8.18103 37.3535H10.6121V39.7845H8.18103V37.3535ZM10.6121 37.3535H13.0431V39.7845H10.6121V37.3535ZM17.9052 37.3535H20.3362V39.7845H17.9052V37.3535ZM20.3362 37.3535H22.7672V39.7845H20.3362V37.3535ZM22.7672 37.3535H25.1982V39.7845H22.7672V37.3535ZM25.1982 37.3535H27.6293V39.7845H25.1982V37.3535ZM30.0603 37.3535H32.4913V39.7845H30.0603V37.3535ZM32.4913 37.3535H34.9224V39.7845H32.4913V37.3535ZM39.7844 37.3535H42.2155V39.7845H39.7844V37.3535ZM42.2155 37.3535H44.6465V39.7845H42.2155V37.3535ZM47.0775 37.3535H49.5085V39.7845H47.0775V37.3535ZM49.5085 37.3535H51.9396V39.7845H49.5085V37.3535ZM51.9396 37.3535H54.3706V39.7845H51.9396V37.3535ZM54.3706 37.3535H56.8016V39.7845H54.3706V37.3535ZM59.2327 37.3535H61.6637V39.7845H59.2327V37.3535ZM61.6637 37.3535H64.0947V39.7845H61.6637V37.3535ZM64.0947 37.3535H66.5258V39.7845H64.0947V37.3535ZM66.5258 37.3535H68.9568V39.7845H66.5258V37.3535ZM68.9568 37.3535H71.3878V39.7845H68.9568V37.3535ZM3.31897 39.7845H5.75V42.2155H3.31897V39.7845ZM13.0431 39.7845H15.4741V42.2155H13.0431V39.7845ZM15.4741 39.7845H17.9052V42.2155H15.4741V39.7845ZM17.9052 39.7845H20.3362V42.2155H17.9052V39.7845ZM25.1982 39.7845H27.6293V42.2155H25.1982V39.7845ZM27.6293 39.7845H30.0603V42.2155H27.6293V39.7845ZM30.0603 39.7845H32.4913V42.2155H30.0603V39.7845ZM32.4913 39.7845H34.9224V42.2155H32.4913V39.7845ZM37.3534 39.7845H39.7844V42.2155H37.3534V39.7845ZM42.2155 39.7845H44.6465V42.2155H42.2155V39.7845ZM49.5085 39.7845H51.9396V42.2155H49.5085V39.7845ZM51.9396 39.7845H54.3706V42.2155H51.9396V39.7845ZM54.3706 39.7845H56.8016V42.2155H54.3706V39.7845ZM56.8016 39.7845H59.2327V42.2155H56.8016V39.7845ZM59.2327 39.7845H61.6637V42.2155H59.2327V39.7845ZM64.0947 39.7845H66.5258V42.2155H64.0947V39.7845ZM68.9568 39.7845H71.3878V42.2155H68.9568V39.7845ZM76.2499 39.7845H78.6809V42.2155H76.2499V39.7845ZM5.75 42.2155H8.18103V44.6465H5.75V42.2155ZM13.0431 42.2155H15.4741V44.6465H13.0431V42.2155ZM17.9052 42.2155H20.3362V44.6465H17.9052V42.2155ZM22.7672 42.2155H25.1982V44.6465H22.7672V42.2155ZM27.6293 42.2155H30.0603V44.6465H27.6293V42.2155ZM30.0603 42.2155H32.4913V44.6465H30.0603V42.2155ZM32.4913 42.2155H34.9224V44.6465H32.4913V42.2155ZM34.9224 42.2155H37.3534V44.6465H34.9224V42.2155ZM37.3534 42.2155H39.7844V44.6465H37.3534V42.2155ZM39.7844 42.2155H42.2155V44.6465H39.7844V42.2155ZM42.2155 42.2155H44.6465V44.6465H42.2155V42.2155ZM51.9396 42.2155H54.3706V44.6465H51.9396V42.2155ZM54.3706 42.2155H56.8016V44.6465H54.3706V42.2155ZM56.8016 42.2155H59.2327V44.6465H56.8016V42.2155ZM61.6637 42.2155H64.0947V44.6465H61.6637V42.2155ZM71.3878 42.2155H73.8188V44.6465H71.3878V42.2155ZM73.8188 42.2155H76.2499V44.6465H73.8188V42.2155ZM76.2499 42.2155H78.6809V44.6465H76.2499V42.2155ZM0.887939 44.6465H3.31897V47.0776H0.887939V44.6465ZM10.6121 44.6465H13.0431V47.0776H10.6121V44.6465ZM13.0431 44.6465H15.4741V47.0776H13.0431V44.6465ZM15.4741 44.6465H17.9052V47.0776H15.4741V44.6465ZM17.9052 44.6465H20.3362V47.0776H17.9052V44.6465ZM22.7672 44.6465H25.1982V47.0776H22.7672V44.6465ZM25.1982 44.6465H27.6293V47.0776H25.1982V44.6465ZM32.4913 44.6465H34.9224V47.0776H32.4913V44.6465ZM37.3534 44.6465H39.7844V47.0776H37.3534V44.6465ZM49.5085 44.6465H51.9396V47.0776H49.5085V44.6465ZM56.8016 44.6465H59.2327V47.0776H56.8016V44.6465ZM66.5258 44.6465H68.9568V47.0776H66.5258V44.6465ZM71.3878 44.6465H73.8188V47.0776H71.3878V44.6465ZM76.2499 44.6465H78.6809V47.0776H76.2499V44.6465ZM0.887939 47.0776H3.31897V49.5086H0.887939V47.0776ZM3.31897 47.0776H5.75V49.5086H3.31897V47.0776ZM5.75 47.0776H8.18103V49.5086H5.75V47.0776ZM8.18103 47.0776H10.6121V49.5086H8.18103V47.0776ZM13.0431 47.0776H15.4741V49.5086H13.0431V47.0776ZM20.3362 47.0776H22.7672V49.5086H20.3362V47.0776ZM27.6293 47.0776H30.0603V49.5086H27.6293V47.0776ZM42.2155 47.0776H44.6465V49.5086H42.2155V47.0776ZM44.6465 47.0776H47.0775V49.5086H44.6465V47.0776ZM47.0775 47.0776H49.5085V49.5086H47.0775V47.0776ZM54.3706 47.0776H56.8016V49.5086H54.3706V47.0776ZM64.0947 47.0776H66.5258V49.5086H64.0947V47.0776ZM66.5258 47.0776H68.9568V49.5086H66.5258V47.0776ZM76.2499 47.0776H78.6809V49.5086H76.2499V47.0776ZM78.6809 47.0776H81.1119V49.5086H78.6809V47.0776ZM3.31897 49.5086H5.75V51.9396H3.31897V49.5086ZM15.4741 49.5086H17.9052V51.9396H15.4741V49.5086ZM20.3362 49.5086H22.7672V51.9396H20.3362V49.5086ZM22.7672 49.5086H25.1982V51.9396H22.7672V49.5086ZM25.1982 49.5086H27.6293V51.9396H25.1982V49.5086ZM30.0603 49.5086H32.4913V51.9396H30.0603V49.5086ZM32.4913 49.5086H34.9224V51.9396H32.4913V49.5086ZM34.9224 49.5086H37.3534V51.9396H34.9224V49.5086ZM37.3534 49.5086H39.7844V51.9396H37.3534V49.5086ZM47.0775 49.5086H49.5085V51.9396H47.0775V49.5086ZM54.3706 49.5086H56.8016V51.9396H54.3706V49.5086ZM59.2327 49.5086H61.6637V51.9396H59.2327V49.5086ZM64.0947 49.5086H66.5258V51.9396H64.0947V49.5086ZM68.9568 49.5086H71.3878V51.9396H68.9568V49.5086ZM71.3878 49.5086H73.8188V51.9396H71.3878V49.5086ZM0.887939 51.9396H3.31897V54.3707H0.887939V51.9396ZM5.75 51.9396H8.18103V54.3707H5.75V51.9396ZM10.6121 51.9396H13.0431V54.3707H10.6121V51.9396ZM13.0431 51.9396H15.4741V54.3707H13.0431V51.9396ZM17.9052 51.9396H20.3362V54.3707H17.9052V51.9396ZM20.3362 51.9396H22.7672V54.3707H20.3362V51.9396ZM22.7672 51.9396H25.1982V54.3707H22.7672V51.9396ZM30.0603 51.9396H32.4913V54.3707H30.0603V51.9396ZM32.4913 51.9396H34.9224V54.3707H32.4913V51.9396ZM34.9224 51.9396H37.3534V54.3707H34.9224V51.9396ZM37.3534 51.9396H39.7844V54.3707H37.3534V51.9396ZM44.6465 51.9396H47.0775V54.3707H44.6465V51.9396ZM47.0775 51.9396H49.5085V54.3707H47.0775V51.9396ZM49.5085 51.9396H51.9396V54.3707H49.5085V51.9396ZM59.2327 51.9396H61.6637V54.3707H59.2327V51.9396ZM61.6637 51.9396H64.0947V54.3707H61.6637V51.9396ZM66.5258 51.9396H68.9568V54.3707H66.5258V51.9396ZM71.3878 51.9396H73.8188V54.3707H71.3878V51.9396ZM73.8188 51.9396H76.2499V54.3707H73.8188V51.9396ZM76.2499 51.9396H78.6809V54.3707H76.2499V51.9396ZM8.18103 54.3707H10.6121V56.8017H8.18103V54.3707ZM15.4741 54.3707H17.9052V56.8017H15.4741V54.3707ZM17.9052 54.3707H20.3362V56.8017H17.9052V54.3707ZM20.3362 54.3707H22.7672V56.8017H20.3362V54.3707ZM22.7672 54.3707H25.1982V56.8017H22.7672V54.3707ZM37.3534 54.3707H39.7844V56.8017H37.3534V54.3707ZM39.7844 54.3707H42.2155V56.8017H39.7844V54.3707ZM42.2155 54.3707H44.6465V56.8017H42.2155V54.3707ZM44.6465 54.3707H47.0775V56.8017H44.6465V54.3707ZM49.5085 54.3707H51.9396V56.8017H49.5085V54.3707ZM56.8016 54.3707H59.2327V56.8017H56.8016V54.3707ZM59.2327 54.3707H61.6637V56.8017H59.2327V54.3707ZM61.6637 54.3707H64.0947V56.8017H61.6637V54.3707ZM64.0947 54.3707H66.5258V56.8017H64.0947V54.3707ZM68.9568 54.3707H71.3878V56.8017H68.9568V54.3707ZM71.3878 54.3707H73.8188V56.8017H71.3878V54.3707ZM73.8188 54.3707H76.2499V56.8017H73.8188V54.3707ZM76.2499 54.3707H78.6809V56.8017H76.2499V54.3707ZM10.6121 56.8017H13.0431V59.2327H10.6121V56.8017ZM17.9052 56.8017H20.3362V59.2327H17.9052V56.8017ZM22.7672 56.8017H25.1982V59.2327H22.7672V56.8017ZM32.4913 56.8017H34.9224V59.2327H32.4913V56.8017ZM34.9224 56.8017H37.3534V59.2327H34.9224V56.8017ZM37.3534 56.8017H39.7844V59.2327H37.3534V56.8017ZM44.6465 56.8017H47.0775V59.2327H44.6465V56.8017ZM51.9396 56.8017H54.3706V59.2327H51.9396V56.8017ZM54.3706 56.8017H56.8016V59.2327H54.3706V56.8017ZM61.6637 56.8017H64.0947V59.2327H61.6637V56.8017ZM78.6809 56.8017H81.1119V59.2327H78.6809V56.8017ZM0.887939 59.2327H3.31897V61.6638H0.887939V59.2327ZM3.31897 59.2327H5.75V61.6638H3.31897V59.2327ZM5.75 59.2327H8.18103V61.6638H5.75V59.2327ZM8.18103 59.2327H10.6121V61.6638H8.18103V59.2327ZM15.4741 59.2327H17.9052V61.6638H15.4741V59.2327ZM20.3362 59.2327H22.7672V61.6638H20.3362V59.2327ZM25.1982 59.2327H27.6293V61.6638H25.1982V59.2327ZM27.6293 59.2327H30.0603V61.6638H27.6293V59.2327ZM30.0603 59.2327H32.4913V61.6638H30.0603V59.2327ZM32.4913 59.2327H34.9224V61.6638H32.4913V59.2327ZM47.0775 59.2327H49.5085V61.6638H47.0775V59.2327ZM51.9396 59.2327H54.3706V61.6638H51.9396V59.2327ZM54.3706 59.2327H56.8016V61.6638H54.3706V59.2327ZM59.2327 59.2327H61.6637V61.6638H59.2327V59.2327ZM61.6637 59.2327H64.0947V61.6638H61.6637V59.2327ZM64.0947 59.2327H66.5258V61.6638H64.0947V59.2327ZM66.5258 59.2327H68.9568V61.6638H66.5258V59.2327ZM68.9568 59.2327H71.3878V61.6638H68.9568V59.2327ZM71.3878 59.2327H73.8188V61.6638H71.3878V59.2327ZM76.2499 59.2327H78.6809V61.6638H76.2499V59.2327ZM78.6809 59.2327H81.1119V61.6638H78.6809V59.2327ZM20.3362 61.6638H22.7672V64.0948H20.3362V61.6638ZM25.1982 61.6638H27.6293V64.0948H25.1982V61.6638ZM30.0603 61.6638H32.4913V64.0948H30.0603V61.6638ZM32.4913 61.6638H34.9224V64.0948H32.4913V61.6638ZM44.6465 61.6638H47.0775V64.0948H44.6465V61.6638ZM56.8016 61.6638H59.2327V64.0948H56.8016V61.6638ZM59.2327 61.6638H61.6637V64.0948H59.2327V61.6638ZM68.9568 61.6638H71.3878V64.0948H68.9568V61.6638ZM73.8188 61.6638H76.2499V64.0948H73.8188V61.6638ZM76.2499 61.6638H78.6809V64.0948H76.2499V61.6638ZM0.887939 64.0948H3.31897V66.5258H0.887939V64.0948ZM3.31897 64.0948H5.75V66.5258H3.31897V64.0948ZM5.75 64.0948H8.18103V66.5258H5.75V64.0948ZM8.18103 64.0948H10.6121V66.5258H8.18103V64.0948ZM10.6121 64.0948H13.0431V66.5258H10.6121V64.0948ZM13.0431 64.0948H15.4741V66.5258H13.0431V64.0948ZM15.4741 64.0948H17.9052V66.5258H15.4741V64.0948ZM22.7672 64.0948H25.1982V66.5258H22.7672V64.0948ZM25.1982 64.0948H27.6293V66.5258H25.1982V64.0948ZM27.6293 64.0948H30.0603V66.5258H27.6293V64.0948ZM30.0603 64.0948H32.4913V66.5258H30.0603V64.0948ZM34.9224 64.0948H37.3534V66.5258H34.9224V64.0948ZM39.7844 64.0948H42.2155V66.5258H39.7844V64.0948ZM49.5085 64.0948H51.9396V66.5258H49.5085V64.0948ZM51.9396 64.0948H54.3706V66.5258H51.9396V64.0948ZM54.3706 64.0948H56.8016V66.5258H54.3706V64.0948ZM59.2327 64.0948H61.6637V66.5258H59.2327V64.0948ZM64.0947 64.0948H66.5258V66.5258H64.0947V64.0948ZM68.9568 64.0948H71.3878V66.5258H68.9568V64.0948ZM71.3878 64.0948H73.8188V66.5258H71.3878V64.0948ZM0.887939 66.5258H3.31897V68.9568H0.887939V66.5258ZM15.4741 66.5258H17.9052V68.9568H15.4741V66.5258ZM22.7672 66.5258H25.1982V68.9568H22.7672V66.5258ZM30.0603 66.5258H32.4913V68.9568H30.0603V66.5258ZM34.9224 66.5258H37.3534V68.9568H34.9224V66.5258ZM37.3534 66.5258H39.7844V68.9568H37.3534V66.5258ZM42.2155 66.5258H44.6465V68.9568H42.2155V66.5258ZM44.6465 66.5258H47.0775V68.9568H44.6465V66.5258ZM51.9396 66.5258H54.3706V68.9568H51.9396V66.5258ZM59.2327 66.5258H61.6637V68.9568H59.2327V66.5258ZM68.9568 66.5258H71.3878V68.9568H68.9568V66.5258ZM76.2499 66.5258H78.6809V68.9568H76.2499V66.5258ZM78.6809 66.5258H81.1119V68.9568H78.6809V66.5258ZM0.887939 68.9568H3.31897V71.3879H0.887939V68.9568ZM5.75 68.9568H8.18103V71.3879H5.75V68.9568ZM8.18103 68.9568H10.6121V71.3879H8.18103V68.9568ZM10.6121 68.9568H13.0431V71.3879H10.6121V68.9568ZM15.4741 68.9568H17.9052V71.3879H15.4741V68.9568ZM20.3362 68.9568H22.7672V71.3879H20.3362V68.9568ZM22.7672 68.9568H25.1982V71.3879H22.7672V68.9568ZM25.1982 68.9568H27.6293V71.3879H25.1982V68.9568ZM27.6293 68.9568H30.0603V71.3879H27.6293V68.9568ZM30.0603 68.9568H32.4913V71.3879H30.0603V68.9568ZM37.3534 68.9568H39.7844V71.3879H37.3534V68.9568ZM42.2155 68.9568H44.6465V71.3879H42.2155V68.9568ZM44.6465 68.9568H47.0775V71.3879H44.6465V68.9568ZM47.0775 68.9568H49.5085V71.3879H47.0775V68.9568ZM49.5085 68.9568H51.9396V71.3879H49.5085V68.9568ZM59.2327 68.9568H61.6637V71.3879H59.2327V68.9568ZM61.6637 68.9568H64.0947V71.3879H61.6637V68.9568ZM64.0947 68.9568H66.5258V71.3879H64.0947V68.9568ZM66.5258 68.9568H68.9568V71.3879H66.5258V68.9568ZM68.9568 68.9568H71.3878V71.3879H68.9568V68.9568ZM71.3878 68.9568H73.8188V71.3879H71.3878V68.9568ZM76.2499 68.9568H78.6809V71.3879H76.2499V68.9568ZM78.6809 68.9568H81.1119V71.3879H78.6809V68.9568ZM0.887939 71.3879H3.31897V73.8189H0.887939V71.3879ZM5.75 71.3879H8.18103V73.8189H5.75V71.3879ZM8.18103 71.3879H10.6121V73.8189H8.18103V71.3879ZM10.6121 71.3879H13.0431V73.8189H10.6121V71.3879ZM15.4741 71.3879H17.9052V73.8189H15.4741V71.3879ZM25.1982 71.3879H27.6293V73.8189H25.1982V71.3879ZM27.6293 71.3879H30.0603V73.8189H27.6293V71.3879ZM30.0603 71.3879H32.4913V73.8189H30.0603V71.3879ZM42.2155 71.3879H44.6465V73.8189H42.2155V71.3879ZM44.6465 71.3879H47.0775V73.8189H44.6465V71.3879ZM47.0775 71.3879H49.5085V73.8189H47.0775V71.3879ZM54.3706 71.3879H56.8016V73.8189H54.3706V71.3879ZM56.8016 71.3879H59.2327V73.8189H56.8016V71.3879ZM59.2327 71.3879H61.6637V73.8189H59.2327V71.3879ZM64.0947 71.3879H66.5258V73.8189H64.0947V71.3879ZM66.5258 71.3879H68.9568V73.8189H66.5258V71.3879ZM68.9568 71.3879H71.3878V73.8189H68.9568V71.3879ZM71.3878 71.3879H73.8188V73.8189H71.3878V71.3879ZM73.8188 71.3879H76.2499V73.8189H73.8188V71.3879ZM76.2499 71.3879H78.6809V73.8189H76.2499V71.3879ZM0.887939 73.8189H3.31897V76.2499H0.887939V73.8189ZM5.75 73.8189H8.18103V76.2499H5.75V73.8189ZM8.18103 73.8189H10.6121V76.2499H8.18103V73.8189ZM10.6121 73.8189H13.0431V76.2499H10.6121V73.8189ZM15.4741 73.8189H17.9052V76.2499H15.4741V73.8189ZM22.7672 73.8189H25.1982V76.2499H22.7672V73.8189ZM27.6293 73.8189H30.0603V76.2499H27.6293V73.8189ZM34.9224 73.8189H37.3534V76.2499H34.9224V73.8189ZM39.7844 73.8189H42.2155V76.2499H39.7844V73.8189ZM44.6465 73.8189H47.0775V76.2499H44.6465V73.8189ZM47.0775 73.8189H49.5085V76.2499H47.0775V73.8189ZM54.3706 73.8189H56.8016V76.2499H54.3706V73.8189ZM56.8016 73.8189H59.2327V76.2499H56.8016V73.8189ZM64.0947 73.8189H66.5258V76.2499H64.0947V73.8189ZM66.5258 73.8189H68.9568V76.2499H66.5258V73.8189ZM68.9568 73.8189H71.3878V76.2499H68.9568V73.8189ZM71.3878 73.8189H73.8188V76.2499H71.3878V73.8189ZM0.887939 76.2499H3.31897V78.681H0.887939V76.2499ZM15.4741 76.2499H17.9052V78.681H15.4741V76.2499ZM20.3362 76.2499H22.7672V78.681H20.3362V76.2499ZM22.7672 76.2499H25.1982V78.681H22.7672V76.2499ZM25.1982 76.2499H27.6293V78.681H25.1982V76.2499ZM27.6293 76.2499H30.0603V78.681H27.6293V76.2499ZM30.0603 76.2499H32.4913V78.681H30.0603V76.2499ZM34.9224 76.2499H37.3534V78.681H34.9224V76.2499ZM37.3534 76.2499H39.7844V78.681H37.3534V76.2499ZM39.7844 76.2499H42.2155V78.681H39.7844V76.2499ZM42.2155 76.2499H44.6465V78.681H42.2155V76.2499ZM44.6465 76.2499H47.0775V78.681H44.6465V76.2499ZM47.0775 76.2499H49.5085V78.681H47.0775V76.2499ZM49.5085 76.2499H51.9396V78.681H49.5085V76.2499ZM51.9396 76.2499H54.3706V78.681H51.9396V76.2499ZM59.2327 76.2499H61.6637V78.681H59.2327V76.2499ZM61.6637 76.2499H64.0947V78.681H61.6637V76.2499ZM71.3878 76.2499H73.8188V78.681H71.3878V76.2499ZM0.887939 78.681H3.31897V81.112H0.887939V78.681ZM3.31897 78.681H5.75V81.112H3.31897V78.681ZM5.75 78.681H8.18103V81.112H5.75V78.681ZM8.18103 78.681H10.6121V81.112H8.18103V78.681ZM10.6121 78.681H13.0431V81.112H10.6121V78.681ZM13.0431 78.681H15.4741V81.112H13.0431V78.681ZM15.4741 78.681H17.9052V81.112H15.4741V78.681ZM22.7672 78.681H25.1982V81.112H22.7672V78.681ZM27.6293 78.681H30.0603V81.112H27.6293V78.681ZM30.0603 78.681H32.4913V81.112H30.0603V78.681ZM37.3534 78.681H39.7844V81.112H37.3534V78.681ZM44.6465 78.681H47.0775V81.112H44.6465V78.681ZM49.5085 78.681H51.9396V81.112H49.5085V78.681ZM51.9396 78.681H54.3706V81.112H51.9396V78.681ZM54.3706 78.681H56.8016V81.112H54.3706V78.681ZM56.8016 78.681H59.2327V81.112H56.8016V78.681ZM59.2327 78.681H61.6637V81.112H59.2327V78.681ZM61.6637 78.681H64.0947V81.112H61.6637V78.681ZM64.0947 78.681H66.5258V81.112H64.0947V78.681ZM78.6809 78.681H81.1119V81.112H78.6809V78.681Z" fill="black"/>
</svg>
