<svg width="88" height="89" viewBox="0 0 88 89" fill="none" xmlns="http://www.w3.org/2000/svg">
<g clip-path="url(#clip0_2_1274)">
<rect x="0.286865" y="0.746521" width="87.6231" height="87.6231" rx="43.8116" fill="white" fill-opacity="0.2"/>
<path d="M26.1288 34.2897C26.1288 35.7052 24.9772 36.8568 23.5617 36.8568H20.9946V41.991H23.5617C24.4617 41.991 25.3253 41.8344 26.1288 41.5495V57.3935H31.263C31.263 53.5791 31.263 32.8703 31.263 31.7227H26.1288V34.2897Z" fill="white"/>
<path d="M44.0985 31.7227C39.852 31.7227 36.3972 35.1774 36.3972 39.4239C36.3972 41.3949 37.1424 43.1944 38.3645 44.5581C37.1424 45.9217 36.3972 47.7212 36.3972 49.6922C36.3972 53.9387 39.852 57.3935 44.0985 57.3935C48.3449 57.3935 51.7997 53.9387 51.7997 49.6922C51.7997 47.7212 51.0546 45.9217 49.8325 44.5581C51.0546 43.1944 51.7997 41.3949 51.7997 39.4239C51.7997 35.1774 48.3449 31.7227 44.0985 31.7227ZM44.0985 36.8568C45.514 36.8568 46.6656 38.0084 46.6656 39.4239C46.6656 40.8394 45.514 41.991 44.0985 41.991C42.683 41.991 41.5314 40.8394 41.5314 39.4239C41.5314 38.0084 42.683 36.8568 44.0985 36.8568ZM44.0985 52.2593C42.683 52.2593 41.5314 51.1077 41.5314 49.6922C41.5314 48.2768 42.683 47.1252 44.0985 47.1252C45.514 47.1252 46.6656 48.2768 46.6656 49.6922C46.6656 51.1077 45.514 52.2593 44.0985 52.2593Z" fill="white"/>
<path d="M64.635 36.8568H59.5009V41.991H54.3667V47.1251H59.5009V52.2593H64.635V47.1251H69.7692V41.991H64.635V36.8568Z" fill="white"/>
<path d="M44.0984 0.746521C19.9747 0.746521 0.286865 20.4359 0.286865 44.5581C0.286865 68.6818 19.9762 88.3696 44.0984 88.3696C68.2222 88.3696 87.91 68.6803 87.91 44.5581C87.91 20.4343 68.2206 0.746521 44.0984 0.746521ZM44.0984 83.2355C22.7716 83.2355 5.42103 65.8849 5.42103 44.5581C5.42103 23.2313 22.7716 5.88069 44.0984 5.88069C65.4252 5.88069 82.7758 23.2313 82.7758 44.5581C82.7758 65.8849 65.4252 83.2355 44.0984 83.2355Z" fill="white"/>
</g>
<defs>
<clipPath id="clip0_2_1274">
<rect x="0.286865" y="0.746521" width="87.6231" height="87.6231" rx="43.8116" fill="white"/>
</clipPath>
</defs>
</svg>
