<svg width="56" height="56" viewBox="0 0 56 56" fill="none" xmlns="http://www.w3.org/2000/svg">
<g clip-path="url(#clip0_2_1550)">
<rect width="56" height="56" rx="28" fill="white" fill-opacity="0.2"/>
<path d="M16.5156 21.4375C16.5156 22.3421 15.7796 23.0781 14.875 23.0781H13.2344V26.3594H14.875C15.4502 26.3594 16.0021 26.2593 16.5156 26.0772V36.2031H19.7969C19.7969 33.7654 19.7969 20.5303 19.7969 19.7969H16.5156V21.4375Z" fill="white"/>
<path d="M28 19.7969C25.2861 19.7969 23.0781 22.0048 23.0781 24.7188C23.0781 25.9784 23.5543 27.1285 24.3354 28C23.5543 28.8715 23.0781 30.0216 23.0781 31.2812C23.0781 33.9952 25.2861 36.2031 28 36.2031C30.7139 36.2031 32.9219 33.9952 32.9219 31.2812C32.9219 30.0216 32.4457 28.8715 31.6646 28C32.4457 27.1285 32.9219 25.9784 32.9219 24.7188C32.9219 22.0048 30.7139 19.7969 28 19.7969ZM28 23.0781C28.9046 23.0781 29.6406 23.8141 29.6406 24.7188C29.6406 25.6234 28.9046 26.3594 28 26.3594C27.0954 26.3594 26.3594 25.6234 26.3594 24.7188C26.3594 23.8141 27.0954 23.0781 28 23.0781ZM28 32.9219C27.0954 32.9219 26.3594 32.1859 26.3594 31.2812C26.3594 30.3766 27.0954 29.6406 28 29.6406C28.9046 29.6406 29.6406 30.3766 29.6406 31.2812C29.6406 32.1859 28.9046 32.9219 28 32.9219Z" fill="white"/>
<path d="M41.125 23.0781H37.8437V26.3594H34.5625V29.6406H37.8437V32.9219H41.125V29.6406H44.4062V26.3594H41.125V23.0781Z" fill="white"/>
<path d="M28 0C12.5825 0 0 12.5835 0 28C0 43.4175 12.5835 56 28 56C43.4175 56 56 43.4165 56 28C56 12.5825 43.4165 0 28 0ZM28 52.7188C14.37 52.7188 3.28125 41.63 3.28125 28C3.28125 14.37 14.37 3.28125 28 3.28125C41.63 3.28125 52.7188 14.37 52.7188 28C52.7188 41.63 41.63 52.7188 28 52.7188Z" fill="white"/>
</g>
<defs>
<clipPath id="clip0_2_1550">
<rect width="56" height="56" rx="28" fill="white"/>
</clipPath>
</defs>
</svg>
