<svg width="140" height="140" viewBox="0 0 140 140" fill="none" xmlns="http://www.w3.org/2000/svg">
<g clip-path="url(#clip0_274_6245)">
<path d="M41.2891 53.5938C41.2891 55.8554 39.4491 57.6953 37.1875 57.6953H33.0859V65.8984H37.1875C38.6255 65.8984 40.0053 65.6482 41.2891 65.193V90.5078H49.4922C49.4922 84.4134 49.4922 51.3259 49.4922 49.4922H41.2891V53.5938Z" fill="#C63D46"/>
<path d="M70 49.4922C63.2152 49.4922 57.6953 55.0121 57.6953 61.7969C57.6953 64.9461 58.8859 67.8213 60.8385 70C58.8859 72.1787 57.6953 75.0539 57.6953 78.2031C57.6953 84.9879 63.2152 90.5078 70 90.5078C76.7848 90.5078 82.3047 84.9879 82.3047 78.2031C82.3047 75.0539 81.1141 72.1787 79.1615 70C81.1141 67.8213 82.3047 64.9461 82.3047 61.7969C82.3047 55.0121 76.7848 49.4922 70 49.4922ZM70 57.6953C72.2616 57.6953 74.1016 59.5353 74.1016 61.7969C74.1016 64.0585 72.2616 65.8984 70 65.8984C67.7384 65.8984 65.8984 64.0585 65.8984 61.7969C65.8984 59.5353 67.7384 57.6953 70 57.6953ZM70 82.3047C67.7384 82.3047 65.8984 80.4647 65.8984 78.2031C65.8984 75.9415 67.7384 74.1016 70 74.1016C72.2616 74.1016 74.1016 75.9415 74.1016 78.2031C74.1016 80.4647 72.2616 82.3047 70 82.3047Z" fill="#C63D46"/>
<path d="M102.812 57.6953H94.6094V65.8984H86.4062V74.1016H94.6094V82.3047H102.812V74.1016H111.016V65.8984H102.812V57.6953Z" fill="#C63D46"/>
<path d="M70 0C31.4562 0 0 31.4587 0 70C0 108.544 31.4587 140 70 140C108.544 140 140 108.541 140 70C140 31.4562 108.541 0 70 0ZM70 131.797C35.925 131.797 8.20312 104.075 8.20312 70C8.20312 35.925 35.925 8.20312 70 8.20312C104.075 8.20312 131.797 35.925 131.797 70C131.797 104.075 104.075 131.797 70 131.797Z" fill="#C63D46"/>
</g>
<defs>
<clipPath id="clip0_274_6245">
<rect width="140" height="140" fill="white"/>
</clipPath>
</defs>
</svg>
