<svg width="95" height="95" viewBox="0 0 95 95" fill="none" xmlns="http://www.w3.org/2000/svg">
<g opacity="0.9">
<rect width="95" height="95" rx="46" fill="#D1646B"/>
<rect x="3" y="3" width="89" height="89" rx="43" stroke="#C63D46" stroke-opacity="0.7" stroke-width="6"/>
</g>
<path fill-rule="evenodd" clip-rule="evenodd" d="M30.9261 69.1982V75.9999L23 70.2763L23.1517 63.4638L30.9261 69.1982ZM26.5251 68.7919C26.1359 68.7919 25.8198 69.1023 25.8196 69.4853C25.8197 69.8683 26.1358 70.1796 26.5251 70.1796C26.9144 70.1796 27.2297 69.8682 27.2298 69.4853C27.2296 69.1024 26.9144 68.792 26.5251 68.7919Z" fill="white"/>
<path fill-rule="evenodd" clip-rule="evenodd" d="M39.2561 70.2743L31.494 75.9999V69.2011L39.2561 63.4745V70.2743ZM33.9282 71.1503C33.5389 71.1503 33.2228 71.4607 33.2227 71.8437C33.2228 72.2267 33.5389 72.538 33.9282 72.538C34.3174 72.5379 34.6328 72.2266 34.6329 71.8437C34.6327 71.4608 34.3174 71.1505 33.9282 71.1503ZM37.1006 69.0693C36.7113 69.0693 36.3961 69.3797 36.3959 69.7626C36.396 70.1456 36.7113 70.4569 37.1006 70.457C37.4899 70.457 37.8051 70.1456 37.8053 69.7626C37.8051 69.3797 37.4898 69.0693 37.1006 69.0693ZM33.9282 68.7226C33.5389 68.7226 33.2228 69.033 33.2227 69.416C33.2228 69.7989 33.5389 70.1103 33.9282 70.1103C34.3174 70.1101 34.6328 69.7988 34.6329 69.416C34.6328 69.033 34.3174 68.7227 33.9282 68.7226ZM37.1006 66.6415C36.7113 66.6416 36.3961 66.952 36.3959 67.3349C36.396 67.7179 36.7113 68.0292 37.1006 68.0292C37.4899 68.0292 37.8051 67.7179 37.8053 67.3349C37.8051 66.9519 37.4899 66.6415 37.1006 66.6415Z" fill="white"/>
<path fill-rule="evenodd" clip-rule="evenodd" d="M39.0629 62.8261L31.1818 68.7226L23.3007 62.8261L31.1818 56.9999L39.0629 62.8261ZM27.9354 62.1327C27.546 62.1327 27.2299 62.4431 27.2298 62.8261C27.23 63.2091 27.5461 63.5195 27.9354 63.5195C28.3246 63.5193 28.6399 63.209 28.6401 62.8261C28.64 62.4432 28.3246 62.1329 27.9354 62.1327ZM31.4605 62.1327C31.0712 62.1327 30.755 62.4431 30.755 62.8261C30.7551 63.2091 31.0712 63.5195 31.4605 63.5195C31.8497 63.5194 32.1651 63.209 32.1652 62.8261C32.1651 62.4431 31.8498 62.1329 31.4605 62.1327ZM34.9857 62.1327C34.5963 62.1327 34.2802 62.4431 34.2801 62.8261C34.2802 63.2091 34.5964 63.5195 34.9857 63.5195C35.3749 63.5194 35.6902 63.209 35.6903 62.8261C35.6903 62.4431 35.3749 62.1328 34.9857 62.1327Z" fill="white"/>
<path d="M52.9051 33.2597H51.0803L51.4596 30.6796H53.2843L52.9051 33.2597Z" fill="white"/>
<path fill-rule="evenodd" clip-rule="evenodd" d="M32.7341 30.5956C35.1181 21.096 54.8606 11.598 66.1493 27.5966C68.1145 30.3824 67.053 35.0946 67.5039 36.0956C68.0725 37.3545 71.9804 43.0387 72.0195 43.0956C72.0195 44.0954 69.7613 44.0959 68.8577 44.5956C68.4063 46.5954 68.7075 48.2624 69.3093 49.5956V52.5956L68.8577 54.0956C68.5568 55.0954 68.8576 56.7011 68.8577 57.5956C68.8577 59.0958 65.6966 60.5955 59.8266 60.0956C58.9238 61.5955 58.3743 65.8467 56.8668 65.9999C54.0987 66.2787 47.4915 65.9981 46.481 65.9999C47.4771 65.9981 47.3841 65.1024 47.3841 63.999V44.999C47.3836 43.895 46.5749 42.9992 45.5779 42.999H33.8374C33.5404 42.999 33.2598 43.08 33.0127 43.2206C31.9636 39.5034 31.5877 35.1652 32.7341 30.5956ZM44.1447 36.1396C42.9711 36.1397 42.7178 36.6 42.7177 37.6396C42.7177 38.6795 42.9709 39.12 44.1447 39.1201C45.3185 39.12 45.5893 38.6795 45.5893 37.6396C45.5893 36.5999 45.3184 36.1396 44.1447 36.1396ZM49.9426 28.7597H47.9379L47.7933 30.6796H49.6719L49.2926 33.2597H47.5949L47.4502 35.1796H49.0033L48.4433 39.08H50.2319L50.8096 35.1796H52.6343L52.0558 39.08H53.8443L54.422 35.1796H56.4452L56.5898 33.2597H54.7113L55.0905 30.6796H56.7883L56.9329 28.7597H55.3613L55.939 24.8398H54.1151L53.5551 28.7597H51.7488L52.3089 24.8398H50.5203L49.9426 28.7597ZM42.7715 28.4599L43.4762 35.1201H44.8308L45.517 28.4599V24.6601H42.7715V28.4599Z" fill="white"/>
<path d="M44.5989 47.5908H43.8422L44.2188 46.0546L44.5989 47.5908Z" fill="white"/>
<path fill-rule="evenodd" clip-rule="evenodd" d="M44.6747 43.9999C45.6723 43.9999 46.481 44.8954 46.481 45.9999V63.9999C46.4809 65.1044 45.6722 65.9999 44.6747 65.9999H41.0623V61.9999L32.0311 55.3329V45.9999C32.0311 44.8954 32.8398 43.9999 33.8374 43.9999H44.6747ZM41.3198 49.9999C40.4979 49.9999 39.7701 50.445 39.3125 51.1298C38.8549 50.445 38.1271 49.9999 37.3052 49.9999C35.9199 50.0002 34.7969 51.2593 34.7969 52.8124C34.7972 55 39.3125 58.9999 39.3125 58.9999C39.3125 58.9999 43.8278 55 43.8281 52.8124C43.8281 51.2593 42.7051 50.0002 41.3198 49.9999ZM42.8685 48.9999H43.4938L43.6843 48.2236H44.7576L44.9481 48.9999H45.5779L44.4631 44.9999H43.9789L42.8685 48.9999Z" fill="white"/>
</svg>
