<svg width="50" height="50" viewBox="0 0 50 50" fill="none" xmlns="http://www.w3.org/2000/svg">
<path d="M31.8574 15.9785C32.3977 15.4382 33.2741 15.4382 33.8144 15.9785C34.3544 16.5187 34.3544 17.3943 33.8144 17.9345L26.831 24.917L33.8144 31.9004C34.3547 32.4406 34.3546 33.3171 33.8144 33.8574C33.2741 34.3977 32.3977 34.3977 31.8574 33.8574L24.874 26.874L17.9345 33.8144C17.3943 34.3544 16.5187 34.3544 15.9785 33.8144C15.4382 33.2741 15.4382 32.3977 15.9785 31.8574L22.9179 24.9179L15.9785 17.9785C15.4382 17.4382 15.4382 16.5618 15.9785 16.0215C16.5187 15.4814 17.3942 15.4815 17.9345 16.0215L24.874 22.9609L31.8574 15.9785Z" fill="#385AC9"/>
<circle cx="25" cy="25" r="24" stroke="#385AC9" stroke-width="2"/>
</svg>
