<svg width="266" height="175" viewBox="0 0 266 175" fill="none" xmlns="http://www.w3.org/2000/svg">
<rect width="366.621" height="52" transform="translate(27.8633 -47) rotate(32.4016)" fill="#A047FF"/>
<path d="M94.7868 25.7934C95.6698 24.402 96.7693 23.3564 98.0852 22.6565C99.4232 21.9517 100.825 21.6383 102.292 21.7163C103.781 21.7894 105.2 22.2546 106.551 23.1119C108.132 24.115 109.259 25.3991 109.934 26.9641C110.608 28.5291 110.727 30.1777 110.291 31.9097L107.029 29.8392C107.133 28.958 106.995 28.1599 106.615 27.4449C106.249 26.7385 105.681 26.141 104.911 25.6523C104.086 25.1293 103.226 24.8579 102.329 24.8381C101.454 24.8134 100.611 25.0366 99.8005 25.5075C99.0035 25.9871 98.3049 26.6997 97.7047 27.6453C97.1131 28.5774 96.7658 29.513 96.6626 30.4518C96.5815 31.3858 96.7341 32.2501 97.1204 33.0449C97.5288 33.8346 98.145 34.491 98.969 35.014C99.739 35.5027 100.522 35.7625 101.317 35.7935C102.134 35.8195 102.919 35.5976 103.672 35.128L106.935 37.1985C105.544 38.3439 103.998 38.9446 102.295 39.0007C100.613 39.0518 98.9758 38.5715 97.3817 37.5598C96.0308 36.7025 95.0012 35.6226 94.2928 34.3202C93.6064 33.0129 93.293 31.6107 93.3526 30.1135C93.4256 28.6249 93.9037 27.1849 94.7868 25.7934ZM113.004 47.5029C111.68 46.6627 110.661 45.5803 109.948 44.2559C109.235 42.9314 108.901 41.5163 108.947 40.0106C109.002 38.4913 109.47 37.036 110.353 35.6445C111.228 34.2666 112.337 33.2363 113.68 32.5536C115.031 31.8574 116.458 31.5501 117.96 31.6317C119.462 31.7134 120.875 32.1743 122.199 33.0145C123.536 33.8633 124.555 34.9456 125.255 36.2615C125.968 37.5859 126.291 39.0035 126.223 40.5142C126.177 42.02 125.716 43.4618 124.842 44.8397C123.959 46.2311 122.842 47.275 121.49 47.9712C120.161 48.6624 118.745 48.9673 117.243 48.8856C115.741 48.804 114.328 48.3431 113.004 47.5029ZM114.611 44.97C115.462 45.5101 116.332 45.7968 117.221 45.8301C118.118 45.8499 118.976 45.6175 119.795 45.133C120.614 44.6485 121.324 43.9335 121.924 42.9878C122.524 42.0422 122.865 41.1024 122.946 40.1684C123.035 39.221 122.876 38.3524 122.468 37.5626C122.059 36.7728 121.43 36.1078 120.579 35.5677C119.727 35.0275 118.851 34.7366 117.949 34.6947C117.06 34.6614 116.207 34.887 115.387 35.3715C114.577 35.8425 113.872 36.5508 113.271 37.4964C112.671 38.4421 112.326 39.3886 112.237 40.3361C112.147 41.2835 112.302 42.1589 112.702 42.9622C113.124 43.7606 113.76 44.4298 114.611 44.97ZM146.836 48.9345L137.859 63.0785L135.022 61.278L140.861 52.0784L131.233 58.8731L129.085 57.5099L131.114 45.8925L125.275 55.0922L122.438 53.2917L131.415 39.1478L134.637 41.1926L132.461 54.5644L143.634 46.9026L146.836 48.9345ZM152.477 52.5151L143.501 66.659L140.664 64.8585L149.64 50.7146L152.477 52.5151ZM158.401 76.1155L155.564 74.3151L155.3 60.5321L149.14 70.2383L146.303 68.4378L155.293 54.2737L158.13 56.0741L158.38 69.8773L164.553 60.1509L167.39 61.9513L158.401 76.1155ZM177.328 74.2563C177.381 73.4562 177.223 72.7207 176.852 72.0499C176.482 71.3791 175.919 70.8036 175.162 70.3235C174.325 69.7919 173.462 69.5095 172.573 69.4762C171.685 69.443 170.835 69.6618 170.025 70.1328C169.214 70.6038 168.517 71.2986 167.934 72.2172C167.334 73.1628 166.994 74.1026 166.913 75.0366C166.845 75.9791 167.022 76.8495 167.444 77.6479C167.866 78.4463 168.516 79.1241 169.394 79.6814C170.475 80.3672 171.54 80.6451 172.589 80.515C173.646 80.3714 174.609 79.8548 175.477 78.9653L170.613 75.8788L171.989 73.7106L179.649 78.5718L178.08 81.044C177.265 81.9101 176.281 82.5648 175.128 83.0079C173.975 83.4511 172.743 83.6164 171.431 83.5039C170.141 83.3864 168.888 82.9419 167.672 82.1703C166.308 81.3043 165.265 80.2159 164.543 78.9049C163.843 77.5891 163.523 76.1825 163.582 74.6854C163.655 73.1967 164.133 71.7567 165.016 70.3653C165.9 68.9739 166.999 67.9282 168.315 67.2284C169.653 66.5236 171.062 66.2145 172.542 66.301C174.044 66.3827 175.471 66.8522 176.821 67.7095C178.415 68.7212 179.552 69.9918 180.23 71.5212C180.916 73.0371 181.036 74.639 180.591 76.3269L177.328 74.2563ZM186.38 94.0717C185.394 93.4459 184.609 92.7111 184.027 91.8676C183.458 91.0326 183.145 90.1519 183.088 89.2254C183.032 88.299 183.272 87.3992 183.807 86.5261L186.846 88.4551C186.518 89.0617 186.429 89.6497 186.58 90.2189C186.744 90.7967 187.15 91.2913 187.798 91.7028C188.46 92.123 189.079 92.2977 189.654 92.227C190.238 92.1429 190.693 91.8441 191.019 91.3308C191.285 90.912 191.375 90.4861 191.29 90.053C191.205 89.6199 191.013 89.2048 190.716 88.8075C190.44 88.4054 190.025 87.8954 189.47 87.2776C188.723 86.4244 188.14 85.6851 187.722 85.0598C187.326 84.4295 187.086 83.7181 187.002 82.9254C186.939 82.1279 187.191 81.2833 187.757 80.3917C188.288 79.5541 188.961 78.9575 189.774 78.6019C190.587 78.2463 191.475 78.1464 192.437 78.3023C193.408 78.4447 194.38 78.8246 195.352 79.4419C196.811 80.3678 197.766 81.476 198.217 82.7664C198.69 84.0519 198.57 85.3595 197.859 86.6894L194.738 84.7089C195.02 84.2054 195.064 83.674 194.869 83.1147C194.696 82.5504 194.293 82.0668 193.658 81.6638C193.104 81.3123 192.568 81.1712 192.05 81.2406C191.546 81.3185 191.123 81.6276 190.78 82.168C190.54 82.5462 190.46 82.9409 190.54 83.3519C190.642 83.7579 190.824 84.1578 191.086 84.5513C191.37 84.94 191.786 85.45 192.332 86.0813C193.08 86.9345 193.658 87.6805 194.067 88.3194C194.477 88.9582 194.719 89.6807 194.795 90.4868C194.871 91.293 194.63 92.1351 194.073 93.0132C193.593 93.7697 192.951 94.3478 192.148 94.7476C191.344 95.1474 190.44 95.3031 189.435 95.2148C188.439 95.1129 187.42 94.7319 186.38 94.0717ZM200.41 102.976C199.086 102.136 198.067 101.053 197.354 99.729C196.641 98.4045 196.307 96.9894 196.353 95.4836C196.408 93.9644 196.877 92.509 197.76 91.1176C198.634 89.7397 199.743 88.7094 201.086 88.0267C202.437 87.3305 203.864 87.0232 205.366 87.1048C206.868 87.1864 208.281 87.6473 209.605 88.4875C210.943 89.3363 211.961 90.4187 212.661 91.7345C213.374 93.059 213.697 94.4766 213.629 95.9873C213.583 97.493 213.123 98.9349 212.248 100.313C211.365 101.704 210.248 102.748 208.896 103.444C207.567 104.136 206.151 104.44 204.649 104.359C203.147 104.277 201.734 103.816 200.41 102.976ZM202.017 100.443C202.869 100.983 203.738 101.27 204.627 101.303C205.524 101.323 206.382 101.091 207.201 100.606C208.02 100.122 208.73 99.4065 209.33 98.4609C209.93 97.5153 210.271 96.5755 210.352 95.6415C210.442 94.694 210.282 93.8254 209.874 93.0356C209.466 92.2458 208.836 91.5809 207.985 91.0407C207.134 90.5006 206.257 90.2096 205.355 90.1678C204.467 90.1345 203.613 90.3601 202.794 90.8446C201.983 91.3156 201.278 92.0239 200.678 92.9695C200.077 93.9151 199.733 94.8617 199.643 95.8091C199.553 96.7566 199.708 97.632 200.108 98.4353C200.53 99.2336 201.166 99.9029 202.017 100.443ZM216.32 113.073C214.996 112.233 213.977 111.151 213.264 109.826C212.551 108.502 212.217 107.087 212.263 105.581C212.318 104.062 212.787 102.606 213.67 101.215C214.544 99.8371 215.653 98.8068 216.996 98.1241C218.347 97.4279 219.774 97.1206 221.276 97.2022C222.778 97.2838 224.191 97.7448 225.515 98.585C226.853 99.4338 227.871 100.516 228.571 101.832C229.284 103.156 229.607 104.574 229.539 106.085C229.493 107.59 229.033 109.032 228.158 110.41C227.275 111.802 226.158 112.845 224.806 113.542C223.477 114.233 222.061 114.538 220.559 114.456C219.057 114.375 217.644 113.914 216.32 113.073ZM217.928 110.54C218.779 111.081 219.648 111.367 220.537 111.401C221.434 111.42 222.292 111.188 223.111 110.703C223.93 110.219 224.64 109.504 225.24 108.558C225.84 107.613 226.181 106.673 226.262 105.739C226.352 104.791 226.192 103.923 225.784 103.133C225.376 102.343 224.746 101.678 223.895 101.138C223.044 100.598 222.167 100.307 221.265 100.265C220.377 100.232 219.523 100.458 218.704 100.942C217.893 101.413 217.188 102.121 216.588 103.067C215.987 104.013 215.643 104.959 215.553 105.907C215.463 106.854 215.618 107.729 216.018 108.533C216.44 109.331 217.076 110 217.928 110.54ZM237.852 126.54L235.015 124.739L234.752 110.956L228.592 120.663L225.755 118.862L234.744 104.698L237.581 106.498L237.831 120.302L244.004 110.575L246.841 112.376L237.852 126.54Z" fill="white"/>
</svg>
