<svg width="253" height="234" viewBox="0 0 253 234" fill="none" xmlns="http://www.w3.org/2000/svg">
<rect width="366.621" height="79.6913" transform="translate(54.6411 -60) rotate(43.2875)" fill="#FF7300"/>
<path d="M75.6774 14.2792C77.184 12.6797 78.8869 11.5874 80.7861 11.0025C82.7154 10.4166 84.6303 10.3593 86.5309 10.8307C88.4616 11.3012 90.2034 12.2678 91.7563 13.7305C93.5732 15.4419 94.7261 17.4071 95.215 19.6261C95.7039 21.845 95.4449 24.0335 94.4379 26.1916L90.6876 22.659C91.0463 21.5315 91.0668 20.4519 90.7493 19.42C90.4472 18.4028 89.8536 17.4773 88.9684 16.6436C88.0212 15.7513 86.9627 15.1793 85.7931 14.9275C84.6537 14.6748 83.494 14.7548 82.3141 15.1673C81.1498 15.5945 80.0556 16.3517 79.0317 17.4387C78.0224 18.5102 77.332 19.6476 76.9605 20.851C76.6192 22.0534 76.6013 23.2236 76.907 24.3614C77.2428 25.4983 77.8844 26.5129 78.8316 27.4052C79.7168 28.2389 80.6761 28.7762 81.7095 29.017C82.7731 29.2568 83.8569 29.164 84.961 28.7386L88.7113 32.2712C86.6026 33.4208 84.4262 33.8179 82.182 33.4624C79.9679 33.1061 77.9447 32.0648 76.1123 30.3388C74.5594 28.8761 73.4831 27.2029 72.8835 25.3193C72.3141 23.4347 72.2568 21.5198 72.7118 19.5745C73.1822 17.6438 74.1708 15.8787 75.6774 14.2792ZM94.0631 47.2914C92.5413 45.8579 91.4801 44.1843 90.8796 42.2705C90.2791 40.3567 90.1985 38.4198 90.6379 36.4599C91.092 34.4844 92.0723 32.6969 93.579 31.0974C95.0709 29.5134 96.7821 28.4436 98.7123 27.8878C100.657 27.3166 102.603 27.2735 104.549 27.7586C106.495 28.2437 108.229 29.203 109.751 30.6365C111.288 32.0846 112.35 33.7583 112.935 35.6574C113.535 37.5712 113.601 39.5085 113.131 41.4694C112.692 43.4294 111.726 45.2013 110.234 46.7853C108.727 48.3848 107.001 49.4701 105.057 50.0414C103.142 50.6118 101.211 50.6544 99.2652 50.1693C97.319 49.6842 95.585 48.7249 94.0631 47.2914ZM96.8058 44.3797C97.7841 45.3012 98.8507 45.8956 100.006 46.1629C101.175 46.4147 102.357 46.3266 103.552 45.8985C104.746 45.4704 105.856 44.7128 106.88 43.6258C107.903 42.5387 108.586 41.394 108.927 40.1915C109.283 38.9736 109.293 37.7961 108.958 36.6592C108.622 35.5223 107.965 34.493 106.986 33.5715C106.008 32.65 104.934 32.0482 103.763 31.7663C102.608 31.499 101.433 31.5794 100.239 32.0075C99.0591 32.4201 97.9571 33.1699 96.9332 34.2569C95.9093 35.3439 95.2194 36.4964 94.8634 37.7144C94.5074 38.9324 94.49 40.1176 94.8112 41.2701C95.1626 42.4216 95.8274 43.4582 96.8058 44.3797ZM138 57.6849L122.685 73.9438L119.424 70.872L129.385 60.2968L115.068 66.769L112.599 64.4433L118.181 49.7431L108.22 60.3184L104.959 57.2466L120.274 40.9877L123.977 44.4764L117.761 61.4366L134.32 54.2182L138 57.6849ZM144.485 63.7936L129.17 80.0525L125.909 76.9807L141.224 60.7219L144.485 63.7936ZM146.298 96.1862L143.037 93.1145L146.163 75.0016L135.653 86.1592L132.392 83.0874L147.729 66.8052L150.99 69.877L147.842 88.0132L158.374 76.8323L161.635 79.9041L146.298 96.1862ZM171.549 98.518C171.82 97.4836 171.798 96.4807 171.482 95.5092C171.166 94.5377 170.573 93.6423 169.704 92.8232C168.741 91.9163 167.682 91.3292 166.527 91.0619C165.372 90.7946 164.205 90.8672 163.025 91.2798C161.845 91.6924 160.757 92.4266 159.763 93.4826C158.739 94.5696 158.056 95.7144 157.715 96.9168C157.389 98.1339 157.402 99.3182 157.753 100.47C158.105 101.621 158.785 102.673 159.794 103.623C161.037 104.793 162.361 105.425 163.767 105.519C165.188 105.597 166.579 105.164 167.939 104.217L162.349 98.9515L164.696 96.4591L173.501 104.753L170.824 107.595C169.539 108.523 168.086 109.133 166.465 109.423C164.843 109.713 163.188 109.619 161.499 109.141C159.839 108.663 158.311 107.765 156.913 106.449C155.345 104.971 154.253 103.283 153.638 101.385C153.053 99.486 152.988 97.5637 153.443 95.6184C153.913 93.6877 154.902 91.9226 156.409 90.3231C157.915 88.7236 159.618 87.6314 161.517 87.0464C163.447 86.4605 165.369 86.4106 167.285 86.8966C169.232 87.3817 170.981 88.3556 172.534 89.8183C174.366 91.5444 175.534 93.494 176.037 95.6673C176.554 97.825 176.308 99.9528 175.299 102.05L171.549 98.518ZM178.411 126.742C177.278 125.675 176.436 124.515 175.885 123.264C175.35 122.027 175.162 120.795 175.322 119.568C175.481 118.341 176.021 117.223 176.942 116.215L180.436 119.506C179.854 120.217 179.589 120.965 179.643 121.748C179.712 122.546 180.119 123.296 180.865 123.998C181.626 124.715 182.392 125.099 183.163 125.151C183.949 125.188 184.62 124.912 185.175 124.322C185.629 123.84 185.854 123.305 185.852 122.717C185.849 122.128 185.703 121.537 185.414 120.942C185.155 120.346 184.739 119.573 184.168 118.624C183.404 117.319 182.827 116.205 182.438 115.281C182.078 114.356 181.943 113.364 182.032 112.305C182.151 111.245 182.693 110.202 183.659 109.177C184.566 108.214 185.596 107.603 186.75 107.342C187.905 107.081 189.092 107.174 190.313 107.62C191.548 108.051 192.725 108.793 193.843 109.846C195.52 111.426 196.491 113.117 196.756 114.92C197.052 116.723 196.566 118.405 195.3 119.967L191.713 116.588C192.208 116 192.399 115.315 192.285 114.533C192.202 113.751 191.795 113.016 191.065 112.329C190.428 111.729 189.762 111.409 189.067 111.37C188.387 111.345 187.754 111.643 187.169 112.264C186.76 112.699 186.556 113.196 186.557 113.754C186.589 114.311 186.727 114.881 186.971 115.462C187.245 116.042 187.66 116.815 188.217 117.779C188.98 119.084 189.55 120.207 189.925 121.146C190.3 122.086 190.436 123.093 190.332 124.167C190.229 125.242 189.701 126.284 188.75 127.293C187.931 128.163 186.946 128.758 185.793 129.08C184.641 129.401 183.418 129.377 182.124 129.008C180.844 128.624 179.607 127.869 178.411 126.742ZM194.539 141.934C193.017 140.5 191.956 138.827 191.356 136.913C190.755 134.999 190.675 133.062 191.114 131.102C191.568 129.127 192.548 127.339 194.055 125.74C195.547 124.156 197.258 123.086 199.188 122.53C201.133 121.959 203.079 121.916 205.025 122.401C206.971 122.886 208.705 123.845 210.227 125.279C211.764 126.727 212.826 128.401 213.411 130.3C214.011 132.214 214.077 134.151 213.607 136.112C213.168 138.072 212.202 139.844 210.71 141.428C209.203 143.027 207.477 144.113 205.533 144.684C203.618 145.254 201.688 145.297 199.741 144.812C197.795 144.327 196.061 143.367 194.539 141.934ZM197.282 139.022C198.26 139.944 199.327 140.538 200.482 140.805C201.651 141.057 202.833 140.969 204.028 140.541C205.222 140.113 206.332 139.355 207.356 138.268C208.379 137.181 209.062 136.036 209.403 134.834C209.759 133.616 209.77 132.439 209.434 131.302C209.098 130.165 208.441 129.135 207.462 128.214C206.484 127.292 205.41 126.691 204.239 126.409C203.084 126.141 201.91 126.222 200.715 126.65C199.535 127.063 198.433 127.812 197.409 128.899C196.385 129.986 195.695 131.139 195.339 132.357C194.983 133.575 194.966 134.76 195.287 135.913C195.639 137.064 196.303 138.101 197.282 139.022ZM212.828 159.161C211.306 157.728 210.245 156.054 209.645 154.14C209.044 152.226 208.964 150.289 209.403 148.329C209.857 146.354 210.837 144.567 212.344 142.967C213.836 141.383 215.547 140.313 217.477 139.757C219.422 139.186 221.368 139.143 223.314 139.628C225.26 140.113 226.994 141.073 228.516 142.506C230.053 143.954 231.115 145.628 231.7 147.527C232.3 149.441 232.366 151.378 231.896 153.339C231.457 155.299 230.491 157.071 228.999 158.655C227.492 160.254 225.767 161.34 223.822 161.911C221.907 162.481 219.977 162.524 218.03 162.039C216.084 161.554 214.35 160.595 212.828 159.161ZM215.571 156.249C216.549 157.171 217.616 157.765 218.771 158.033C219.94 158.284 221.122 158.196 222.317 157.768C223.511 157.34 224.621 156.582 225.645 155.495C226.669 154.408 227.351 153.264 227.693 152.061C228.048 150.843 228.059 149.666 227.723 148.529C227.387 147.392 226.73 146.363 225.752 145.441C224.773 144.52 223.699 143.918 222.528 143.636C221.373 143.369 220.199 143.449 219.004 143.877C217.824 144.29 216.722 145.04 215.698 146.127C214.674 147.214 213.984 148.366 213.628 149.584C213.272 150.802 213.255 151.987 213.576 153.14C213.928 154.291 214.593 155.328 215.571 156.249ZM237.63 182.215L234.369 179.143L237.495 161.03L226.985 172.188L223.724 169.116L239.061 152.834L242.322 155.906L239.174 174.042L249.706 162.861L252.967 165.933L237.63 182.215Z" fill="white"/>
</svg>
