<svg width="446" height="307" viewBox="0 0 446 307" fill="none" xmlns="http://www.w3.org/2000/svg">
<rect width="683.157" height="110.092" transform="translate(75.5093 -135.182) rotate(43.2875)" fill="#FF7300"/>
<path d="M196.141 53.5167C197.742 51.8172 199.552 50.6567 201.569 50.0352C203.619 49.4126 205.654 49.3518 207.673 49.8527C209.725 50.3526 211.575 51.3796 213.225 52.9337C215.156 54.7521 216.381 56.8401 216.9 59.1978C217.42 61.5554 217.144 63.8807 216.074 66.1736L212.09 62.4203C212.471 61.2223 212.493 60.0751 212.155 58.9788C211.834 57.898 211.204 56.9147 210.263 56.0288C209.257 55.0808 208.132 54.473 206.889 54.2055C205.679 53.9371 204.447 54.022 203.193 54.4604C201.956 54.9143 200.793 55.7187 199.705 56.8737C198.633 58.0121 197.899 59.2206 197.505 60.4992C197.142 61.7768 197.123 63.0201 197.448 64.229C197.805 65.437 198.486 66.515 199.493 67.4631C200.433 68.3489 201.452 68.9198 202.551 69.1756C203.681 69.4304 204.832 69.3318 206.005 68.8799L209.99 72.6332C207.749 73.8547 205.437 74.2766 203.053 73.8989C200.7 73.5202 198.55 72.4139 196.603 70.58C194.953 69.0259 193.81 67.2481 193.173 65.2468C192.568 63.2445 192.507 61.2098 192.99 59.1429C193.49 57.0915 194.541 55.2161 196.141 53.5167ZM215.676 88.5921C214.059 87.0691 212.932 85.2908 212.294 83.2574C211.656 81.224 211.57 79.1661 212.037 77.0837C212.519 74.9847 213.561 73.0855 215.162 71.386C216.747 69.7031 218.565 68.5664 220.616 67.9759C222.682 67.3689 224.749 67.3232 226.817 67.8386C228.885 68.354 230.728 69.3733 232.345 70.8963C233.978 72.435 235.106 74.2132 235.727 76.2311C236.365 78.2644 236.435 80.3229 235.936 82.4063C235.469 84.4887 234.443 86.3715 232.858 88.0544C231.257 89.7539 229.423 90.9071 227.357 91.514C225.322 92.1201 223.271 92.1653 221.203 91.6499C219.136 91.1345 217.293 90.1152 215.676 88.5921ZM218.59 85.4985C219.63 86.4776 220.763 87.1092 221.99 87.3932C223.233 87.6607 224.489 87.567 225.758 87.1122C227.027 86.6573 228.206 85.8524 229.294 84.6974C230.382 83.5424 231.107 82.3262 231.47 81.0486C231.848 79.7545 231.858 78.5034 231.502 77.2954C231.145 76.0874 230.447 74.9939 229.407 74.0148C228.368 73.0356 227.226 72.3963 225.983 72.0968C224.755 71.8127 223.507 71.8982 222.238 72.353C220.984 72.7914 219.814 73.588 218.726 74.743C217.638 75.898 216.905 77.1225 216.526 78.4166C216.148 79.7107 216.13 80.97 216.471 82.1945C216.844 83.418 217.551 84.5193 218.59 85.4985ZM262.359 99.6353L246.087 116.91L242.622 113.647L253.206 102.41L237.994 109.287L235.371 106.816L241.301 91.1971L230.718 102.433L227.253 99.1696L243.525 81.8945L247.46 85.6012L240.855 103.621L258.449 95.9519L262.359 99.6353ZM269.25 106.126L252.978 123.401L249.513 120.137L265.785 102.862L269.25 106.126ZM271.176 140.543L267.711 137.279L271.032 118.034L259.866 129.889L256.401 126.625L272.696 109.326L276.161 112.589L272.817 131.859L284.007 119.979L287.472 123.243L271.176 140.543ZM298.005 143.02C298.293 141.921 298.269 140.856 297.933 139.824C297.598 138.791 296.968 137.84 296.044 136.97C295.021 136.006 293.896 135.382 292.669 135.098C291.442 134.814 290.202 134.891 288.948 135.33C287.694 135.768 286.539 136.548 285.482 137.67C284.394 138.825 283.669 140.042 283.306 141.319C282.96 142.612 282.974 143.871 283.347 145.094C283.72 146.318 284.443 147.435 285.516 148.445C286.836 149.688 288.243 150.36 289.737 150.459C291.247 150.542 292.724 150.081 294.169 149.076L288.229 143.481L290.724 140.833L300.079 149.645L297.235 152.664C295.87 153.651 294.325 154.299 292.603 154.607C290.88 154.915 289.122 154.815 287.326 154.308C285.563 153.799 283.939 152.845 282.455 151.447C280.788 149.877 279.628 148.084 278.974 146.067C278.353 144.049 278.284 142.007 278.767 139.94C279.267 137.888 280.317 136.013 281.918 134.313C283.519 132.614 285.328 131.453 287.346 130.832C289.396 130.209 291.439 130.156 293.475 130.673C295.543 131.188 297.402 132.223 299.052 133.777C300.998 135.611 302.239 137.682 302.773 139.992C303.323 142.284 303.062 144.545 301.99 146.774L298.005 143.02ZM305.296 173.009C304.092 171.874 303.197 170.642 302.612 169.313C302.044 167.999 301.844 166.69 302.014 165.386C302.183 164.082 302.757 162.895 303.735 161.823L307.447 165.32C306.829 166.076 306.548 166.87 306.605 167.702C306.678 168.55 307.111 169.347 307.903 170.093C308.711 170.854 309.525 171.263 310.345 171.319C311.18 171.358 311.892 171.064 312.483 170.437C312.965 169.925 313.204 169.357 313.202 168.732C313.199 168.106 313.044 167.478 312.736 166.845C312.461 166.212 312.02 165.392 311.412 164.384C310.601 162.997 309.988 161.812 309.574 160.831C309.192 159.848 309.048 158.794 309.143 157.669C309.27 156.542 309.846 155.435 310.872 154.346C311.835 153.323 312.93 152.673 314.156 152.396C315.383 152.118 316.645 152.217 317.942 152.691C319.254 153.149 320.504 153.938 321.692 155.057C323.474 156.735 324.506 158.532 324.788 160.448C325.102 162.363 324.586 164.15 323.24 165.81L319.429 162.22C319.956 161.595 320.158 160.867 320.037 160.037C319.948 159.206 319.516 158.425 318.741 157.694C318.064 157.057 317.356 156.718 316.618 156.675C315.895 156.649 315.223 156.966 314.601 157.626C314.166 158.088 313.95 158.615 313.951 159.209C313.985 159.801 314.131 160.406 314.39 161.023C314.681 161.64 315.123 162.461 315.715 163.485C316.526 164.872 317.131 166.065 317.529 167.063C317.928 168.061 318.072 169.131 317.962 170.273C317.852 171.415 317.292 172.522 316.282 173.594C315.411 174.518 314.364 175.151 313.139 175.492C311.915 175.833 310.615 175.808 309.241 175.416C307.881 175.008 306.567 174.206 305.296 173.009ZM322.432 189.15C320.815 187.627 319.688 185.848 319.049 183.815C318.411 181.782 318.326 179.724 318.793 177.641C319.275 175.542 320.317 173.643 321.918 171.944C323.503 170.261 325.321 169.124 327.372 168.533C329.438 167.927 331.505 167.881 333.573 168.396C335.641 168.912 337.483 169.931 339.1 171.454C340.734 172.993 341.861 174.771 342.483 176.789C343.121 178.822 343.19 180.88 342.692 182.964C342.225 185.046 341.199 186.929 339.613 188.612C338.013 190.311 336.179 191.465 334.113 192.072C332.078 192.678 330.027 192.723 327.959 192.208C325.891 191.692 324.049 190.673 322.432 189.15ZM325.346 186.056C326.386 187.035 327.519 187.667 328.746 187.951C329.989 188.218 331.245 188.125 332.514 187.67C333.783 187.215 334.962 186.41 336.049 185.255C337.137 184.1 337.863 182.884 338.225 181.606C338.604 180.312 338.614 179.061 338.257 177.853C337.901 176.645 337.202 175.551 336.163 174.572C335.124 173.593 333.982 172.954 332.738 172.654C331.511 172.37 330.263 172.456 328.994 172.911C327.74 173.349 326.569 174.146 325.481 175.301C324.394 176.456 323.66 177.68 323.282 178.974C322.904 180.268 322.886 181.528 323.227 182.752C323.6 183.976 324.307 185.077 325.346 186.056ZM341.864 207.454C340.247 205.931 339.12 204.152 338.482 202.119C337.844 200.086 337.758 198.028 338.225 195.945C338.707 193.846 339.749 191.947 341.35 190.248C342.935 188.565 344.753 187.428 346.804 186.837C348.87 186.23 350.937 186.185 353.005 186.7C355.073 187.216 356.916 188.235 358.532 189.758C360.166 191.296 361.293 193.075 361.915 195.093C362.553 197.126 362.623 199.184 362.124 201.268C361.657 203.35 360.631 205.233 359.045 206.916C357.445 208.615 355.611 209.769 353.545 210.376C351.51 210.982 349.459 211.027 347.391 210.511C345.323 209.996 343.481 208.977 341.864 207.454ZM344.778 204.36C345.818 205.339 346.951 205.971 348.178 206.255C349.421 206.522 350.677 206.428 351.946 205.974C353.215 205.519 354.394 204.714 355.482 203.559C356.569 202.404 357.295 201.188 357.657 199.91C358.036 198.616 358.046 197.365 357.69 196.157C357.333 194.949 356.635 193.855 355.595 192.876C354.556 191.897 353.414 191.258 352.17 190.958C350.943 190.674 349.695 190.76 348.426 191.215C347.172 191.653 346.001 192.45 344.914 193.605C343.826 194.759 343.093 195.984 342.714 197.278C342.336 198.572 342.318 199.832 342.659 201.056C343.032 202.28 343.739 203.381 344.778 204.36ZM368.216 231.949L364.751 228.685L368.072 209.44L356.906 221.295L353.441 218.031L369.736 200.731L373.201 203.995L369.856 223.265L381.046 211.385L384.511 214.649L368.216 231.949Z" fill="white"/>
</svg>
