<svg width="282" height="197" viewBox="0 0 282 197" fill="none" xmlns="http://www.w3.org/2000/svg">
<rect width="366.621" height="52" transform="translate(27.8643 -44) rotate(32.4016)" fill="#A047FF"/>
<path d="M94.7868 28.7934C95.6698 27.402 96.7693 26.3564 98.0852 25.6565C99.4232 24.9517 100.825 24.6383 102.292 24.7163C103.781 24.7894 105.2 25.2546 106.551 26.1119C108.132 27.115 109.259 28.3991 109.934 29.9641C110.608 31.5291 110.727 33.1777 110.291 34.9097L107.029 32.8392C107.133 31.958 106.995 31.1599 106.615 30.4449C106.249 29.7385 105.681 29.141 104.911 28.6523C104.086 28.1293 103.226 27.8579 102.329 27.8381C101.454 27.8134 100.611 28.0366 99.8005 28.5075C99.0035 28.9871 98.3049 29.6997 97.7047 30.6453C97.1131 31.5774 96.7658 32.513 96.6626 33.4518C96.5815 34.3858 96.7341 35.2501 97.1204 36.0449C97.5288 36.8346 98.145 37.491 98.969 38.014C99.739 38.5027 100.522 38.7625 101.317 38.7935C102.134 38.8195 102.919 38.5976 103.672 38.128L106.935 40.1985C105.544 41.3439 103.998 41.9446 102.295 42.0007C100.613 42.0518 98.9758 41.5715 97.3817 40.5598C96.0308 39.7025 95.0012 38.6226 94.2928 37.3202C93.6064 36.0129 93.293 34.6107 93.3526 33.1135C93.4256 31.6249 93.9037 30.1849 94.7868 28.7934ZM113.004 50.5029C111.68 49.6627 110.661 48.5803 109.948 47.2559C109.235 45.9314 108.901 44.5163 108.947 43.0106C109.002 41.4913 109.47 40.036 110.353 38.6445C111.228 37.2666 112.337 36.2363 113.68 35.5536C115.031 34.8574 116.458 34.5501 117.96 34.6317C119.462 34.7134 120.875 35.1743 122.199 36.0145C123.536 36.8633 124.555 37.9456 125.255 39.2615C125.968 40.5859 126.291 42.0035 126.223 43.5142C126.177 45.02 125.716 46.4618 124.842 47.8397C123.959 49.2311 122.842 50.275 121.49 50.9712C120.161 51.6624 118.745 51.9673 117.243 51.8856C115.741 51.804 114.328 51.3431 113.004 50.5029ZM114.611 47.97C115.462 48.5101 116.332 48.7968 117.221 48.8301C118.118 48.8499 118.976 48.6175 119.795 48.133C120.614 47.6485 121.324 46.9335 121.924 45.9878C122.524 45.0422 122.865 44.1024 122.946 43.1684C123.035 42.221 122.876 41.3524 122.468 40.5626C122.059 39.7728 121.43 39.1078 120.579 38.5677C119.727 38.0275 118.851 37.7366 117.949 37.6947C117.06 37.6614 116.207 37.887 115.387 38.3715C114.577 38.8425 113.872 39.5508 113.271 40.4964C112.671 41.4421 112.326 42.3886 112.237 43.3361C112.147 44.2835 112.302 45.1589 112.702 45.9622C113.124 46.7606 113.76 47.4298 114.611 47.97ZM146.836 51.9345L137.859 66.0785L135.022 64.278L140.861 55.0784L131.233 61.8731L129.085 60.5099L131.114 48.8925L125.275 58.0922L122.438 56.2917L131.415 42.1478L134.637 44.1926L132.461 57.5644L143.634 49.9026L146.836 51.9345ZM152.477 55.5151L143.501 69.659L140.664 67.8585L149.64 53.7146L152.477 55.5151ZM158.401 79.1155L155.564 77.3151L155.3 63.5321L149.14 73.2383L146.303 71.4378L155.293 57.2737L158.13 59.0741L158.38 72.8773L164.553 63.1509L167.39 64.9513L158.401 79.1155ZM177.328 77.2563C177.381 76.4562 177.223 75.7207 176.852 75.0499C176.482 74.3791 175.919 73.8036 175.162 73.3235C174.325 72.7919 173.462 72.5095 172.573 72.4762C171.685 72.443 170.835 72.6618 170.025 73.1328C169.214 73.6038 168.517 74.2986 167.934 75.2172C167.334 76.1628 166.994 77.1026 166.913 78.0366C166.845 78.9791 167.022 79.8495 167.444 80.6479C167.866 81.4463 168.516 82.1241 169.394 82.6814C170.475 83.3672 171.54 83.6451 172.589 83.515C173.646 83.3714 174.609 82.8548 175.477 81.9653L170.613 78.8788L171.989 76.7106L179.649 81.5718L178.08 84.044C177.265 84.9101 176.281 85.5648 175.128 86.0079C173.975 86.4511 172.743 86.6164 171.431 86.5039C170.141 86.3864 168.888 85.9419 167.672 85.1703C166.308 84.3043 165.265 83.2159 164.543 81.9049C163.843 80.5891 163.523 79.1825 163.582 77.6854C163.655 76.1967 164.133 74.7567 165.016 73.3653C165.9 71.9739 166.999 70.9282 168.315 70.2284C169.653 69.5236 171.062 69.2145 172.542 69.301C174.044 69.3827 175.471 69.8522 176.821 70.7095C178.415 71.7212 179.552 72.9918 180.23 74.5212C180.916 76.0371 181.036 77.639 180.591 79.3269L177.328 77.2563ZM186.38 97.0717C185.394 96.4459 184.609 95.7111 184.027 94.8676C183.458 94.0326 183.145 93.1519 183.088 92.2254C183.032 91.299 183.272 90.3992 183.807 89.5261L186.846 91.4551C186.518 92.0617 186.429 92.6497 186.58 93.2189C186.744 93.7967 187.15 94.2913 187.798 94.7028C188.46 95.123 189.079 95.2977 189.654 95.227C190.238 95.1429 190.693 94.8441 191.019 94.3308C191.285 93.912 191.375 93.4861 191.29 93.053C191.205 92.6199 191.013 92.2048 190.716 91.8075C190.44 91.4054 190.025 90.8954 189.47 90.2776C188.723 89.4244 188.14 88.6851 187.722 88.0598C187.326 87.4295 187.086 86.7181 187.002 85.9254C186.939 85.1279 187.191 84.2833 187.757 83.3917C188.288 82.5541 188.961 81.9575 189.774 81.6019C190.587 81.2463 191.475 81.1464 192.437 81.3023C193.408 81.4447 194.38 81.8246 195.352 82.4419C196.811 83.3678 197.766 84.476 198.217 85.7664C198.69 87.0519 198.57 88.3595 197.859 89.6894L194.738 87.7089C195.02 87.2054 195.064 86.674 194.869 86.1147C194.696 85.5504 194.293 85.0668 193.658 84.6638C193.104 84.3123 192.568 84.1712 192.05 84.2406C191.546 84.3185 191.123 84.6276 190.78 85.168C190.54 85.5462 190.46 85.9409 190.54 86.3519C190.642 86.7579 190.824 87.1578 191.086 87.5513C191.37 87.94 191.786 88.45 192.332 89.0813C193.08 89.9345 193.658 90.6805 194.067 91.3194C194.477 91.9582 194.719 92.6807 194.795 93.4868C194.871 94.293 194.63 95.1351 194.073 96.0132C193.593 96.7697 192.951 97.3478 192.148 97.7476C191.344 98.1474 190.44 98.3031 189.435 98.2148C188.439 98.1129 187.42 97.7319 186.38 97.0717ZM200.41 105.976C199.086 105.136 198.067 104.053 197.354 102.729C196.641 101.405 196.307 99.9894 196.353 98.4836C196.408 96.9644 196.877 95.509 197.76 94.1176C198.634 92.7397 199.743 91.7094 201.086 91.0267C202.437 90.3305 203.864 90.0232 205.366 90.1048C206.868 90.1864 208.281 90.6473 209.605 91.4875C210.943 92.3363 211.961 93.4187 212.661 94.7345C213.374 96.059 213.697 97.4766 213.629 98.9873C213.583 100.493 213.123 101.935 212.248 103.313C211.365 104.704 210.248 105.748 208.896 106.444C207.567 107.136 206.151 107.44 204.649 107.359C203.147 107.277 201.734 106.816 200.41 105.976ZM202.017 103.443C202.869 103.983 203.738 104.27 204.627 104.303C205.524 104.323 206.382 104.091 207.201 103.606C208.02 103.122 208.73 102.407 209.33 101.461C209.93 100.515 210.271 99.5755 210.352 98.6415C210.442 97.694 210.282 96.8254 209.874 96.0356C209.466 95.2458 208.836 94.5809 207.985 94.0407C207.134 93.5006 206.257 93.2096 205.355 93.1678C204.467 93.1345 203.613 93.3601 202.794 93.8446C201.983 94.3156 201.278 95.0239 200.678 95.9695C200.077 96.9151 199.733 97.8617 199.643 98.8091C199.553 99.7566 199.708 100.632 200.108 101.435C200.53 102.234 201.166 102.903 202.017 103.443ZM216.32 116.073C214.996 115.233 213.977 114.151 213.264 112.826C212.551 111.502 212.217 110.087 212.263 108.581C212.318 107.062 212.787 105.606 213.67 104.215C214.544 102.837 215.653 101.807 216.996 101.124C218.347 100.428 219.774 100.121 221.276 100.202C222.778 100.284 224.191 100.745 225.515 101.585C226.853 102.434 227.871 103.516 228.571 104.832C229.284 106.156 229.607 107.574 229.539 109.085C229.493 110.59 229.033 112.032 228.158 113.41C227.275 114.802 226.158 115.845 224.806 116.542C223.477 117.233 222.061 117.538 220.559 117.456C219.057 117.375 217.644 116.914 216.32 116.073ZM217.928 113.54C218.779 114.081 219.648 114.367 220.537 114.401C221.434 114.42 222.292 114.188 223.111 113.703C223.93 113.219 224.64 112.504 225.24 111.558C225.84 110.613 226.181 109.673 226.262 108.739C226.352 107.791 226.192 106.923 225.784 106.133C225.376 105.343 224.746 104.678 223.895 104.138C223.044 103.598 222.167 103.307 221.265 103.265C220.377 103.232 219.523 103.458 218.704 103.942C217.893 104.413 217.188 105.121 216.588 106.067C215.987 107.013 215.643 107.959 215.553 108.907C215.463 109.854 215.618 110.729 216.018 111.533C216.44 112.331 217.076 113 217.928 113.54ZM237.852 129.54L235.015 127.739L234.752 113.956L228.592 123.663L225.755 121.862L234.744 107.698L237.581 109.498L237.831 123.302L244.004 113.575L246.841 115.376L237.852 129.54Z" fill="white"/>
</svg>
