<svg width="296" height="120" viewBox="0 0 296 120" fill="none" xmlns="http://www.w3.org/2000/svg">
<g filter="url(#filter0_d_349_22821)">
<path d="M158.5 0L292 49.5V112L10 2.33333H7L4 0H158.5Z" fill="#A047FF"/>
</g>
<path d="M123.812 18.6201C124.342 17.2055 125.132 16.0603 126.18 15.1846C127.248 14.3003 128.447 13.755 129.777 13.5487C131.126 13.3337 132.487 13.4836 133.861 13.9982C135.468 14.6004 136.721 15.5399 137.621 16.8168C138.521 18.0937 138.938 19.5502 138.873 21.1861L135.557 19.9433C135.484 19.1331 135.21 18.443 134.735 17.8733C134.273 17.3086 133.65 16.8796 132.868 16.5863C132.03 16.2723 131.207 16.191 130.398 16.3423C129.609 16.4849 128.894 16.8439 128.256 17.4191C127.631 17.9995 127.139 18.7704 126.779 19.7317C126.424 20.6794 126.288 21.5841 126.372 22.4458C126.476 23.2989 126.775 24.0456 127.272 24.6857C127.787 25.3173 128.463 25.7901 129.301 26.104C130.084 26.3974 130.835 26.483 131.554 26.3609C132.292 26.2303 132.955 25.8834 133.542 25.3202L136.859 26.563C135.827 27.8525 134.553 28.6827 133.035 29.0539C131.537 29.4165 129.977 29.2941 128.357 28.6869C126.983 28.1722 125.856 27.3975 124.975 26.3626C124.113 25.3191 123.568 24.1202 123.339 22.7658C123.124 21.4167 123.282 20.0347 123.812 18.6201ZM144.244 34.6637C142.898 34.1594 141.781 33.3803 140.891 32.3265C140.002 31.2728 139.436 30.0661 139.194 28.7067C138.956 27.3334 139.103 25.9395 139.633 24.5249C140.158 23.124 140.958 21.9909 142.034 21.1254C143.116 20.2462 144.338 19.7018 145.701 19.492C147.064 19.2822 148.418 19.4295 149.764 19.9339C151.124 20.4434 152.241 21.2224 153.117 22.2711C154.006 23.3248 154.563 24.5357 154.786 25.9038C155.029 27.2633 154.888 28.6435 154.363 30.0444C153.833 31.459 153.027 32.6059 151.946 33.4851C150.883 34.3556 149.671 34.8958 148.308 35.1056C146.945 35.3154 145.59 35.1681 144.244 34.6637ZM145.209 32.0886C146.075 32.4128 146.909 32.5061 147.712 32.3686C148.521 32.2173 149.247 31.8472 149.89 31.2583C150.534 30.6693 151.036 29.8942 151.396 28.9328C151.756 27.9714 151.885 27.0641 151.782 26.211C151.684 25.3441 151.377 24.5949 150.862 23.9633C150.347 23.3317 149.656 22.8538 148.791 22.5296C147.926 22.2054 147.085 22.1095 146.268 22.2419C145.464 22.3794 144.741 22.7426 144.097 23.3316C143.459 23.9068 142.96 24.6751 142.599 25.6365C142.239 26.5979 142.108 27.512 142.206 28.3789C142.304 29.2457 142.608 30.0018 143.118 30.6471C143.647 31.2839 144.344 31.7643 145.209 32.0886ZM174.865 29.5744L169.476 43.954L166.592 42.8733L170.097 33.5203L162.74 41.4297L160.556 40.6114L160.188 29.8072L156.683 39.1602L153.799 38.0794L159.187 23.6998L162.463 24.9272L163.03 37.333L171.61 28.3547L174.865 29.5744ZM180.6 31.7236L175.212 46.1032L172.328 45.0225L177.716 30.6429L180.6 31.7236ZM190.36 51.7796L187.476 50.6989L184.643 38.3838L180.946 48.2518L178.062 47.171L183.458 32.7708L186.342 33.8515L189.167 46.1872L192.872 36.2986L195.756 37.3794L190.36 51.7796ZM206.99 46.5459C206.887 45.8181 206.606 45.1882 206.147 44.6562C205.689 44.1241 205.075 43.714 204.306 43.4258C203.455 43.1068 202.627 43.016 201.824 43.1535C201.021 43.291 200.3 43.6474 199.661 44.2226C199.023 44.7979 198.529 45.5524 198.179 46.4863C197.818 47.4477 197.69 48.355 197.793 49.2081C197.91 50.0664 198.233 50.8139 198.762 51.4506C199.291 52.0873 200.001 52.573 200.894 52.9075C201.993 53.3192 203.001 53.3679 203.917 53.0535C204.839 52.7254 205.605 52.0806 206.216 51.1192L201.272 49.2665L202.098 47.0621L209.885 49.9801L208.943 52.4935C208.375 53.424 207.616 54.1967 206.665 54.8115C205.714 55.4262 204.64 55.8067 203.442 55.953C202.262 56.0906 201.055 55.9278 199.819 55.4646C198.431 54.9448 197.29 54.1649 196.396 53.1249C195.52 52.0763 194.968 50.8748 194.739 49.5204C194.524 48.1713 194.682 46.7893 195.212 45.3747C195.742 43.9601 196.531 42.8149 197.58 41.9392C198.648 41.0549 199.853 40.5121 201.197 40.311C202.56 40.1012 203.929 40.2536 205.302 40.7683C206.923 41.3755 208.181 42.3013 209.077 43.5457C209.979 44.7762 210.389 46.1906 210.307 47.7888L206.99 46.5459ZM218.843 62.617C217.841 62.2413 216.999 61.73 216.317 61.083C215.649 60.4412 215.203 59.71 214.978 58.8895C214.752 58.069 214.798 57.2167 215.113 56.3326L218.204 57.4905C218.023 58.0965 218.054 58.6407 218.297 59.123C218.553 59.6105 219.01 59.9777 219.669 60.2247C220.342 60.4769 220.93 60.5171 221.433 60.3453C221.941 60.1598 222.293 59.8061 222.489 59.2842C222.648 58.8584 222.649 58.4593 222.491 58.0868C222.333 57.7144 222.083 57.378 221.741 57.0777C221.419 56.7688 220.95 56.3895 220.335 55.9399C219.504 55.3153 218.842 54.7618 218.349 54.2796C217.876 53.7888 217.526 53.1958 217.301 52.5006C217.095 51.7968 217.162 50.9917 217.501 50.0853C217.82 49.2338 218.311 48.5719 218.974 48.0997C219.636 47.6274 220.414 47.3706 221.306 47.3292C222.204 47.274 223.147 47.4317 224.136 47.8023C225.62 48.3581 226.685 49.1723 227.332 50.245C227.999 51.3092 228.138 52.5048 227.75 53.8318L224.578 52.643C224.736 52.1383 224.675 51.6533 224.395 51.1882C224.134 50.7145 223.68 50.3567 223.035 50.1148C222.472 49.9038 221.964 49.8782 221.513 50.0379C221.075 50.2028 220.754 50.56 220.548 51.1093C220.404 51.4939 220.406 51.863 220.556 52.2165C220.724 52.5615 220.963 52.8859 221.272 53.1897C221.6 53.4849 222.068 53.8641 222.678 54.3274C223.509 54.9521 224.168 55.5124 224.656 56.0084C225.143 56.5043 225.497 57.1068 225.717 57.8157C225.937 58.5246 225.88 59.3254 225.545 60.2181C225.257 60.9872 224.79 61.6268 224.145 62.1368C223.5 62.6468 222.718 62.9568 221.799 63.0669C220.886 63.1632 219.901 63.0133 218.843 62.617ZM233.107 67.9618C231.761 67.4575 230.643 66.6784 229.754 65.6247C228.865 64.5709 228.299 63.3643 228.056 62.0048C227.819 60.6316 227.965 59.2376 228.495 57.823C229.02 56.4221 229.821 55.289 230.897 54.4235C231.978 53.5444 233.2 52.9999 234.563 52.7901C235.926 52.5804 237.281 52.7277 238.627 53.232C239.986 53.7415 241.104 54.5206 241.98 55.5692C242.869 56.623 243.426 57.8339 243.649 59.202C243.892 60.5614 243.75 61.9416 243.225 63.3425C242.695 64.7571 241.89 65.904 240.808 66.7832C239.746 67.6538 238.533 68.1939 237.17 68.4037C235.807 68.6135 234.453 68.4662 233.107 67.9618ZM234.072 65.3867C234.937 65.7109 235.772 65.8043 236.575 65.6667C237.383 65.5155 238.109 65.1454 238.753 64.5564C239.397 63.9675 239.899 63.1923 240.259 62.2309C240.619 61.2695 240.748 60.3622 240.644 59.5091C240.546 58.6423 240.24 57.893 239.725 57.2615C239.209 56.6299 238.519 56.152 237.654 55.8278C236.789 55.5035 235.948 55.4076 235.13 55.54C234.327 55.6775 233.604 56.0408 232.96 56.6297C232.322 57.2049 231.822 57.9733 231.462 58.9346C231.102 59.896 230.971 60.8102 231.069 61.677C231.167 62.5439 231.471 63.3 231.981 63.9453C232.51 64.582 233.207 65.0625 234.072 65.3867ZM249.282 74.0229C247.936 73.5186 246.819 72.7395 245.929 71.6857C245.04 70.632 244.474 69.4253 244.231 68.0658C243.994 66.6926 244.141 65.2987 244.671 63.8841C245.196 62.4832 245.996 61.35 247.072 60.4846C248.153 59.6054 249.375 59.061 250.738 58.8512C252.101 58.6414 253.456 58.7887 254.802 59.2931C256.161 59.8026 257.279 60.5816 258.155 61.6302C259.044 62.684 259.601 63.8949 259.824 65.263C260.067 66.6225 259.925 68.0027 259.4 69.4036C258.87 70.8182 258.065 71.9651 256.983 72.8442C255.921 73.7148 254.708 74.255 253.346 74.4648C251.983 74.6745 250.628 74.5273 249.282 74.0229ZM250.247 71.4478C251.112 71.772 251.947 71.8653 252.75 71.7278C253.559 71.5765 254.285 71.2064 254.928 70.6175C255.572 70.0285 256.074 69.2533 256.434 68.292C256.794 67.3306 256.923 66.4233 256.819 65.5702C256.721 64.7033 256.415 63.9541 255.9 63.3225C255.385 62.6909 254.694 62.213 253.829 61.8888C252.964 61.5646 252.123 61.4687 251.306 61.6011C250.502 61.7386 249.779 62.1018 249.135 62.6908C248.497 63.266 247.997 64.0343 247.637 64.9957C247.277 65.9571 247.146 66.8712 247.244 67.7381C247.342 68.6049 247.646 69.361 248.156 70.0063C248.685 70.6431 249.382 71.1235 250.247 71.4478ZM271.136 82.0472L268.251 80.9665L265.418 68.6514L261.721 78.5194L258.837 77.4386L264.233 63.0384L267.117 64.1191L269.942 76.4548L273.647 66.5662L276.532 67.647L271.136 82.0472Z" fill="white"/>
<defs>
<filter id="filter0_d_349_22821" x="0" y="0" width="296" height="120" filterUnits="userSpaceOnUse" color-interpolation-filters="sRGB">
<feFlood flood-opacity="0" result="BackgroundImageFix"/>
<feColorMatrix in="SourceAlpha" type="matrix" values="0 0 0 0 0 0 0 0 0 0 0 0 0 0 0 0 0 0 127 0" result="hardAlpha"/>
<feOffset dy="4"/>
<feGaussianBlur stdDeviation="2"/>
<feComposite in2="hardAlpha" operator="out"/>
<feColorMatrix type="matrix" values="0 0 0 0 0 0 0 0 0 0 0 0 0 0 0 0 0 0 0.25 0"/>
<feBlend mode="normal" in2="BackgroundImageFix" result="effect1_dropShadow_349_22821"/>
<feBlend mode="normal" in="SourceGraphic" in2="effect1_dropShadow_349_22821" result="shape"/>
</filter>
</defs>
</svg>
