<svg width="95" height="95" viewBox="0 0 95 95" fill="none" xmlns="http://www.w3.org/2000/svg">
<circle cx="47.5" cy="47.5" r="47.5" fill="#3851C9" fill-opacity="0.12"/>
<path d="M46.6513 24.8809C34.1882 24.8809 24.0322 35.0368 24.0322 47.4999C24.0322 59.963 34.1882 70.119 46.6513 70.119C59.1144 70.119 69.2703 59.963 69.2703 47.4999C69.2703 35.0368 59.1144 24.8809 46.6513 24.8809ZM57.4632 42.2975L44.6382 55.1225C44.3215 55.4392 43.8918 55.6201 43.4394 55.6201C42.987 55.6201 42.5572 55.4392 42.2406 55.1225L35.8394 48.7213C35.1834 48.0654 35.1834 46.9797 35.8394 46.3237C36.4953 45.6678 37.581 45.6678 38.237 46.3237L43.4394 51.5261L55.0656 39.8999C55.7215 39.244 56.8072 39.244 57.4632 39.8999C58.1191 40.5559 58.1191 41.619 57.4632 42.2975Z" fill="#385AC9"/>
</svg>
