<svg width="28" height="22" viewBox="0 0 28 22" fill="none" xmlns="http://www.w3.org/2000/svg">
<path d="M27.7208 20.222C18.5743 14.688 9.42675 25.7546 0.280273 20.222C0.280273 14.0744 0.280273 7.92618 0.280273 1.77845C9.42675 7.31177 18.5744 -3.75478 27.7208 1.77845V20.222Z" fill="#CCCBCA"/>
<path d="M27.4992 19.8656C18.5014 14.6849 9.50571 25.3036 0.508789 20.1321C0.508789 14.1347 0.508789 8.13624 0.508789 2.13875C9.50571 7.31094 18.5014 -3.30774 27.4992 1.87294V19.8656Z" fill="#B02A3D"/>
<path d="M27.4992 4.6393C18.5014 -0.541384 9.50571 10.0773 0.508789 4.90511C0.508789 4.44411 0.508789 3.98301 0.508789 3.522C9.50571 8.69419 18.5014 -1.92449 27.4992 3.25629V4.6393Z" fill="white"/>
<path d="M27.4992 7.40555C18.5014 2.22487 9.50571 12.8439 0.508789 7.67127C0.508789 7.21026 0.508789 6.74926 0.508789 6.28816C9.50571 11.4599 18.5014 0.84166 27.4992 6.02244V7.40555Z" fill="white"/>
<path d="M27.4992 10.1717C18.5014 4.99103 9.50571 15.61 0.508789 10.4374C0.508789 9.97643 0.508789 9.51542 0.508789 9.05432C9.50571 14.2261 18.5014 3.60782 27.4992 8.7885V10.1717Z" fill="white"/>
<path d="M27.4992 12.9385C18.5014 7.75743 9.50571 18.3764 0.508789 13.2035C0.508789 12.7433 0.508789 12.2814 0.508789 11.8212C9.50571 16.9926 18.5014 6.37432 27.4992 11.5547V12.9385Z" fill="white"/>
<path d="M27.4992 15.7046C18.5014 10.5235 9.50571 21.1426 0.508789 15.9696C0.508789 15.5094 0.508789 15.0475 0.508789 14.5873C9.50571 19.7588 18.5014 9.14043 27.4992 14.3208V15.7046Z" fill="white"/>
<path d="M27.4992 18.4708C18.5014 13.2902 9.50571 23.9088 0.508789 18.736C0.508789 18.2757 0.508789 17.8139 0.508789 17.3536C9.50571 22.525 18.5014 11.9064 27.4992 17.087V18.4708Z" fill="white"/>
<path d="M14.0042 2.00317C9.50571 3.36297 5.00691 4.72514 0.508789 2.1387V11.821C5.00681 14.4075 9.50571 13.0452 14.0042 11.6845C14.0042 8.45772 14.0042 5.2304 14.0042 2.00317Z" fill="#434177"/>
<path d="M1.39063 3.77049C1.35033 3.87668 1.31003 3.98208 1.26973 4.08669C1.26894 4.08669 1.26973 4.08975 1.27131 4.09133C1.27289 4.09291 1.27437 4.0936 1.27595 4.0936C1.38135 4.06723 1.48674 4.03937 1.59214 4.00914C1.69833 4.13232 1.80363 4.25323 1.90982 4.37176C1.90982 4.37176 1.91061 4.37334 1.9114 4.37334C1.91367 4.37493 1.91525 4.37334 1.91525 4.37107V4.36949C1.87495 4.22932 1.83385 4.08906 1.79365 3.948C1.89974 3.9154 2.00524 3.88142 2.11133 3.84497C2.11212 3.84339 2.11291 3.8427 2.11212 3.84033C2.11133 3.83796 2.11054 3.83727 2.10826 3.83569C1.97807 3.78689 1.84788 3.73414 1.71769 3.67912C1.67739 3.53807 1.6363 3.39632 1.59609 3.25457C1.5953 3.25141 1.58987 3.24914 1.58829 3.25141C1.54799 3.3576 1.50848 3.46368 1.46817 3.56908C1.33798 3.51021 1.207 3.44748 1.07691 3.38239C1.07533 3.3816 1.07306 3.38081 1.07227 3.38318C1.07227 3.38318 1.07306 3.38624 1.07385 3.38861C1.17914 3.51792 1.28523 3.64583 1.39063 3.77049Z" fill="white"/>
<path d="M3.61046 4.51903C3.57015 4.6345 3.52995 4.74987 3.48955 4.86465C3.48955 4.86544 3.49034 4.86772 3.49113 4.86851C3.49271 4.87009 3.49508 4.87009 3.49577 4.87009C3.60117 4.81734 3.70726 4.7639 3.81266 4.70809C3.91796 4.80568 4.02335 4.901 4.12875 4.99554C4.12954 4.99633 4.13033 4.99633 4.13181 4.99633C4.13339 4.99633 4.13488 4.99554 4.13488 4.99326V4.99168C4.09457 4.8607 4.05437 4.72982 4.01397 4.59884C4.11937 4.54145 4.22477 4.48179 4.33016 4.42143C4.33244 4.41985 4.33323 4.41837 4.33244 4.41679C4.33085 4.41452 4.33016 4.41373 4.32858 4.41294C4.19839 4.39358 4.06741 4.37184 3.93732 4.34784C3.89702 4.21617 3.85592 4.0844 3.81572 3.95272C3.81493 3.94956 3.8095 3.94808 3.80871 3.95114C3.7684 4.06741 3.72731 4.18288 3.68711 4.29825C3.55692 4.27119 3.42594 4.24096 3.29584 4.20836C3.29505 4.20836 3.29357 4.20836 3.29199 4.21064C3.29199 4.21222 3.29199 4.2138 3.29426 4.21528C3.39976 4.31831 3.50506 4.41985 3.61046 4.51903Z" fill="white"/>
<path d="M5.83096 4.77338C5.79066 4.89735 5.74957 5.02053 5.70937 5.14301C5.70937 5.1438 5.70937 5.14687 5.71095 5.14766C5.71253 5.14845 5.7149 5.14845 5.71559 5.14766C5.82089 5.07406 5.92717 4.99889 6.03247 4.92293C6.13787 4.99968 6.24327 5.07555 6.34867 5.14993C6.34946 5.15072 6.35094 5.15072 6.35173 5.15072C6.35331 5.15072 6.35568 5.14914 6.35568 5.14686C6.35568 5.14607 6.35568 5.14528 6.35568 5.14528C6.31538 5.02211 6.27428 4.89883 6.23398 4.77486C6.33938 4.69732 6.44557 4.6184 6.55087 4.53848C6.55245 4.5369 6.55314 4.53453 6.55245 4.53305C6.55166 4.53078 6.55087 4.53078 6.54859 4.53078C6.4184 4.53463 6.28742 4.53779 6.15733 4.53858C6.11703 4.41461 6.07673 4.29065 6.03642 4.16668C6.03484 4.16352 6.02951 4.16352 6.02872 4.16668C5.98842 4.29065 5.94732 4.41461 5.90712 4.53779C5.77693 4.53621 5.64595 4.53236 5.51586 4.52614C5.51428 4.52614 5.51349 4.52693 5.5127 4.5292C5.5127 4.53078 5.5127 4.53226 5.51428 4.53384C5.61948 4.61533 5.72556 4.69515 5.83096 4.77338Z" fill="white"/>
<path d="M8.05108 4.64005C8.01078 4.76945 7.96969 4.89885 7.92949 5.02825C7.92949 5.02904 7.93028 5.03052 7.93176 5.03131C7.93255 5.0321 7.93403 5.0321 7.9364 5.03131C8.0418 4.94142 8.1472 4.85074 8.25259 4.75937C8.35799 4.82062 8.46418 4.88107 8.56948 4.94063C8.57027 4.94142 8.57106 4.94063 8.57175 4.94063C8.57402 4.94063 8.5756 4.93836 8.5756 4.93599C8.5756 4.93599 8.5756 4.93441 8.57481 4.93441C8.53451 4.81667 8.49421 4.69961 8.45391 4.58187C8.5593 4.48892 8.66549 4.39596 8.77079 4.30143C8.77237 4.29916 8.77306 4.29748 8.77237 4.296C8.77158 4.29373 8.77079 4.29373 8.76842 4.29373C8.63833 4.31625 8.50804 4.33709 8.37795 4.35655C8.33764 4.23881 8.29655 4.12096 8.25625 4.00243C8.25546 3.99937 8.25003 4.00016 8.24854 4.00322C8.20824 4.13341 8.16794 4.26281 8.12764 4.39221C7.99755 4.41009 7.86647 4.42629 7.73637 4.44101C7.7341 4.4418 7.73321 4.44259 7.73242 4.44496C7.73242 4.44654 7.73242 4.44802 7.734 4.4496C7.8396 4.51371 7.94569 4.57722 8.05108 4.64005Z" fill="white"/>
<path d="M10.2709 4.22303C10.2306 4.35707 10.1903 4.49042 10.15 4.62368C10.15 4.62447 10.15 4.62674 10.1516 4.62753C10.1524 4.62832 10.1546 4.62753 10.1562 4.62674C10.2616 4.52529 10.367 4.42454 10.4724 4.3222C10.5778 4.37258 10.684 4.42296 10.7893 4.47333H10.7925C10.794 4.47333 10.7955 4.47027 10.7955 4.46869C10.7955 4.4679 10.7955 4.46711 10.7947 4.46642C10.7544 4.35253 10.7149 4.23942 10.6746 4.12543C10.78 4.02241 10.8853 3.91938 10.9908 3.81546C10.9931 3.81319 10.9931 3.81161 10.9931 3.81003C10.9915 3.80845 10.9908 3.80766 10.9891 3.80845C10.8582 3.84174 10.728 3.87513 10.5971 3.90762C10.5568 3.79294 10.5166 3.67905 10.4762 3.56516C10.4754 3.56209 10.47 3.56358 10.4693 3.56674C10.429 3.70078 10.3879 3.83413 10.3476 3.96808C10.2174 3.99909 10.0864 4.02932 9.9563 4.05797C9.95472 4.05876 9.95403 4.05955 9.95245 4.06192C9.95166 4.06419 9.95245 4.06498 9.95472 4.06656C10.0602 4.11931 10.1656 4.17117 10.2709 4.22303Z" fill="white"/>
<path d="M12.4919 3.62961C12.4516 3.76524 12.4105 3.90155 12.3703 4.03718C12.3703 4.03718 12.3703 4.04034 12.3719 4.04113C12.3735 4.04113 12.3749 4.04034 12.3765 4.03955C12.4819 3.93257 12.5881 3.8249 12.6934 3.71723C12.7988 3.76296 12.9041 3.80781 13.0095 3.85355C13.0103 3.85355 13.0119 3.85354 13.0127 3.85275C13.0142 3.85275 13.0165 3.85048 13.0165 3.84811C13.0165 3.84811 13.0165 3.84653 13.0157 3.84574C12.9754 3.73422 12.9351 3.6226 12.8948 3.51098C13.0001 3.40331 13.1064 3.29485 13.2117 3.18708C13.2133 3.18481 13.2133 3.18323 13.2133 3.18165C13.2125 3.17928 13.2117 3.17928 13.2094 3.18007C13.0792 3.21889 12.9483 3.25761 12.8182 3.29633C12.7779 3.18402 12.7376 3.0724 12.6973 2.96009C12.6957 2.95781 12.6902 2.9593 12.6895 2.96236C12.6492 3.09798 12.6082 3.2343 12.5679 3.36992C12.4377 3.40795 12.3067 3.44588 12.1766 3.48312C12.175 3.48391 12.1743 3.4847 12.1735 3.48697C12.1719 3.48925 12.1735 3.49004 12.1743 3.49162C12.2804 3.53814 12.3858 3.58388 12.4919 3.62961Z" fill="white"/>
<path d="M2.38027 5.49636C2.37948 5.49715 2.38027 5.49873 2.38107 5.50179C2.38334 5.50337 2.38492 5.50337 2.38571 5.50337C2.49101 5.46307 2.59719 5.42049 2.70259 5.37703C2.80799 5.48707 2.91339 5.59484 3.01878 5.70093C3.01878 5.70093 3.02106 5.70172 3.02185 5.70172C3.02491 5.7033 3.0257 5.70093 3.0257 5.69935V5.69777C2.9854 5.56214 2.9443 5.42662 2.9041 5.29099C3.0095 5.24526 3.11569 5.19804 3.22099 5.14845C3.22257 5.14687 3.22257 5.14539 3.22257 5.14539C3.22178 5.14233 3.22099 5.14075 3.21871 5.14075C3.08852 5.10657 2.95754 5.07022 2.82735 5.0315C2.78705 4.89518 2.74684 4.75877 2.70644 4.62166C2.70486 4.61939 2.69953 4.61702 2.69874 4.61939C2.65844 4.73091 2.61893 4.84254 2.57862 4.95416C2.44764 4.91079 2.31676 4.86575 2.18568 4.81695C2.18489 4.81695 2.18341 4.81695 2.18262 4.81853C2.18262 4.81853 2.18262 4.8208 2.1842 4.82396C2.2896 4.93934 2.39578 5.05333 2.50108 5.16495C2.46088 5.27548 2.42058 5.38632 2.38027 5.49636Z" fill="white"/>
<path d="M4.59941 6.01155C4.59941 6.01155 4.6002 6.01382 4.60168 6.01619C4.60247 6.01698 4.60474 6.01777 4.60632 6.01698C4.71172 5.95268 4.81712 5.88758 4.92252 5.82011C5.02791 5.90694 5.1341 5.99298 5.2394 6.07664C5.24019 6.07664 5.24098 6.07664 5.24167 6.07743C5.24394 6.07743 5.24552 6.07516 5.24552 6.07358C5.24552 6.07279 5.24552 6.072 5.24473 6.072C5.20443 5.94487 5.16413 5.81863 5.12383 5.6915C5.22923 5.62256 5.33541 5.55282 5.44071 5.48229C5.44229 5.48002 5.44387 5.47844 5.44229 5.47765C5.4415 5.47537 5.44071 5.47458 5.43844 5.47458C5.30825 5.46757 5.17806 5.45908 5.04797 5.44821C5.00766 5.32039 4.96657 5.19257 4.92627 5.06465C4.92548 5.06238 4.92005 5.06159 4.91847 5.06386C4.87816 5.18398 4.83865 5.30409 4.79835 5.42411C4.66747 5.41018 4.53718 5.39467 4.4063 5.3761C4.40392 5.37531 4.40313 5.3761 4.40234 5.37847C4.40234 5.37847 4.40234 5.38074 4.40392 5.38311C4.50932 5.47458 4.61551 5.56437 4.72081 5.65268C4.6807 5.7729 4.63961 5.89222 4.59941 6.01155Z" fill="white"/>
<path d="M6.82041 6.07967C6.82041 6.07967 6.82041 6.08204 6.82199 6.08431C6.82278 6.0851 6.82515 6.0851 6.82663 6.08431C6.93203 6.00143 7.03743 5.91767 7.14282 5.83252C7.24812 5.90147 7.35441 5.96963 7.45971 6.0363H7.46277C7.46435 6.03551 7.46593 6.03314 7.46593 6.03166C7.46593 6.03166 7.46593 6.03008 7.46514 6.03008C7.42484 5.90996 7.38533 5.78985 7.34503 5.66983C7.45042 5.58379 7.55582 5.49707 7.66122 5.40866C7.66359 5.40639 7.66438 5.40481 7.66359 5.40402C7.66201 5.40174 7.66122 5.40085 7.65964 5.40085C7.52945 5.41557 7.39846 5.42802 7.26837 5.43879C7.22807 5.31788 7.18698 5.19707 7.14678 5.07617C7.14599 5.07389 7.14055 5.07389 7.13976 5.07617C7.09946 5.20399 7.05837 5.33112 7.01816 5.45815C6.88797 5.46664 6.75699 5.47365 6.6269 5.47909C6.62532 5.47909 6.62463 5.47988 6.62305 5.48215C6.62305 5.48215 6.62305 5.48442 6.62532 5.48679C6.73072 5.5589 6.83611 5.63022 6.94151 5.69986C6.90101 5.82709 6.86071 5.95343 6.82041 6.07967Z" fill="white"/>
<path d="M9.04042 5.80705C9.04042 5.80705 9.04121 5.80932 9.042 5.8117C9.04358 5.81249 9.04506 5.81169 9.04664 5.8109C9.15204 5.7141 9.25823 5.6172 9.36353 5.51872C9.46892 5.57532 9.57432 5.63034 9.67972 5.68457H9.68199H9.68278C9.68436 5.68378 9.68673 5.68071 9.68673 5.67913C9.68673 5.67913 9.68673 5.67755 9.68594 5.67834C9.64564 5.56287 9.60534 5.4474 9.56504 5.33123C9.67034 5.23275 9.77652 5.13436 9.88192 5.0344C9.8835 5.03134 9.8835 5.02976 9.8835 5.02976C9.88271 5.02749 9.88192 5.0267 9.87965 5.0267C9.74946 5.05613 9.61848 5.0832 9.48838 5.11036C9.44808 4.9941 9.40778 4.87784 9.36748 4.76167C9.3659 4.7593 9.36046 4.76088 9.35967 4.76325C9.31937 4.89571 9.27828 5.02828 9.23808 5.15995C9.10789 5.18553 8.9769 5.20954 8.84681 5.23196C8.84523 5.23196 8.84454 5.23275 8.84375 5.23591C8.84375 5.23591 8.84375 5.23818 8.84533 5.23976C8.95073 5.29784 9.05692 5.35524 9.16221 5.41174C9.12172 5.54351 9.08072 5.67528 9.04042 5.80705Z" fill="white"/>
<path d="M11.2599 5.29858C11.2599 5.29858 11.2599 5.30085 11.2621 5.30243C11.2629 5.30322 11.2644 5.30243 11.2668 5.30164C11.3722 5.19624 11.4775 5.09084 11.5829 4.98475C11.6883 5.03276 11.7945 5.08087 11.8998 5.12808C11.9006 5.12729 11.9013 5.12729 11.902 5.12729C11.9043 5.1265 11.9059 5.12344 11.9059 5.12186C11.9059 5.12186 11.9059 5.12028 11.9051 5.12107C11.8648 5.00787 11.8246 4.89556 11.7842 4.78245C11.8896 4.67706 11.9958 4.57018 12.1011 4.46399C12.1027 4.46093 12.1027 4.45935 12.1027 4.45935C12.1019 4.45707 12.1011 4.45628 12.0988 4.45707C11.9678 4.49421 11.8376 4.53066 11.7068 4.56711C11.6665 4.45401 11.6269 4.34081 11.5866 4.22771C11.5858 4.22534 11.5804 4.22692 11.5788 4.22998C11.5385 4.36481 11.4982 4.50044 11.4579 4.63527C11.3277 4.67093 11.1968 4.7058 11.0667 4.73988C11.0644 4.73988 11.0636 4.74146 11.0628 4.74373C11.062 4.74452 11.0628 4.746 11.0644 4.74758C11.1697 4.79638 11.276 4.84518 11.3813 4.89328C11.3413 5.02812 11.3002 5.16374 11.2599 5.29858Z" fill="white"/>
<path d="M1.26973 5.98994C1.26894 5.99073 1.26973 5.9938 1.27131 5.99538C1.27289 5.99696 1.27437 5.99775 1.27595 5.99775C1.38135 5.97058 1.48674 5.94194 1.59214 5.91171C1.69833 6.03499 1.80363 6.15658 1.90982 6.27591C1.90982 6.2767 1.91061 6.2767 1.9114 6.2767C1.91446 6.27828 1.91525 6.27749 1.91525 6.27443C1.91525 6.27443 1.91525 6.27364 1.91525 6.27285C1.87495 6.13258 1.83385 5.99231 1.79365 5.85126C1.89974 5.81866 2.00524 5.78468 2.11133 5.74823C2.11212 5.74665 2.11291 5.74596 2.11212 5.74359C2.11133 5.74122 2.11054 5.74053 2.10826 5.73894C1.97807 5.69015 1.84788 5.6374 1.71769 5.58238C1.67739 5.44063 1.6363 5.29878 1.59609 5.15704C1.5953 5.15466 1.58987 5.1516 1.58829 5.15387C1.54799 5.26006 1.50848 5.36694 1.46817 5.47234C1.33798 5.41347 1.207 5.35074 1.07691 5.28565C1.07533 5.28486 1.07306 5.28407 1.07227 5.28644C1.07227 5.28802 1.07306 5.2895 1.07385 5.29187C1.17924 5.42127 1.28543 5.54909 1.39073 5.67385C1.35023 5.77994 1.30993 5.88455 1.26973 5.98994Z" fill="white"/>
<path d="M3.48955 6.76762C3.48955 6.76921 3.49034 6.77158 3.49113 6.77227C3.49271 6.77385 3.49508 6.77385 3.49577 6.77385C3.60117 6.7211 3.70726 6.66618 3.81266 6.61037C3.91796 6.70796 4.02335 6.80407 4.12875 6.8994H4.13181C4.13339 6.8994 4.13488 6.8994 4.13488 6.89624C4.13488 6.89624 4.13488 6.89544 4.13488 6.89465C4.09457 6.76367 4.05437 6.63279 4.01397 6.50181C4.11937 6.44442 4.22477 6.38476 4.33016 6.3244C4.33244 6.32282 4.33323 6.32134 4.33244 6.31976C4.33085 6.31739 4.33016 6.3166 4.32858 6.31581C4.19839 6.29645 4.06741 6.27472 3.93732 6.25071C3.89702 6.11904 3.85592 5.98727 3.81572 5.8548C3.81493 5.85243 3.8095 5.85085 3.80871 5.85322C3.7684 5.96939 3.72731 6.08565 3.68711 6.20112C3.55692 6.17396 3.42594 6.14373 3.29584 6.11124C3.29505 6.11124 3.29357 6.11124 3.29199 6.11351C3.29199 6.11509 3.29199 6.11667 3.29426 6.11815C3.39966 6.22118 3.50506 6.32272 3.61036 6.4219C3.57015 6.53757 3.52985 6.65304 3.48955 6.76762Z" fill="white"/>
<path d="M5.70937 7.04604C5.70937 7.04831 5.70937 7.05069 5.71095 7.05148C5.71253 7.05227 5.7149 7.05227 5.71559 7.05148C5.82089 6.97709 5.92717 6.90192 6.03247 6.82517C6.13787 6.90271 6.24327 6.97858 6.34867 7.05375H6.35173C6.35331 7.05375 6.35568 7.05296 6.35568 7.04989V7.04831C6.31538 6.92514 6.27428 6.80186 6.23398 6.67789C6.33938 6.60035 6.44557 6.52143 6.55087 6.44151C6.55245 6.43993 6.55314 6.43756 6.55245 6.43608C6.55176 6.4346 6.55087 6.43302 6.54859 6.43381C6.4184 6.43766 6.28742 6.44082 6.15733 6.44161C6.11703 6.31764 6.07673 6.19368 6.03642 6.06892C6.03484 6.06655 6.02951 6.06655 6.02872 6.06892C5.98842 6.19288 5.94732 6.31685 5.90712 6.44082C5.77693 6.43924 5.64595 6.43539 5.51586 6.42917C5.51428 6.42917 5.51349 6.42996 5.5127 6.43223C5.5127 6.43381 5.5127 6.43529 5.51428 6.43687C5.61967 6.51826 5.72576 6.59808 5.83116 6.67631C5.79076 6.80038 5.74967 6.92356 5.70937 7.04604Z" fill="white"/>
<path d="M7.92949 6.93132C7.92949 6.9329 7.93028 6.93518 7.93176 6.93518C7.93255 6.93597 7.93403 6.93597 7.9364 6.93518C8.0418 6.8446 8.1472 6.75392 8.25259 6.66166C8.35799 6.72359 8.46418 6.78404 8.56948 6.8445C8.57027 6.84371 8.57106 6.84371 8.57175 6.84371C8.57402 6.84371 8.5756 6.84213 8.5756 6.83906C8.5756 6.83906 8.5756 6.83748 8.57481 6.83827C8.53451 6.72053 8.49421 6.60269 8.45391 6.48494C8.5593 6.39199 8.66549 6.29904 8.77079 6.20451C8.77237 6.20223 8.77306 6.20055 8.77237 6.19907C8.77168 6.19759 8.77079 6.1968 8.76842 6.1968C8.63833 6.21932 8.50804 6.24016 8.37795 6.25962C8.33764 6.14109 8.29655 6.02325 8.25625 5.90471C8.25546 5.90244 8.25003 5.90313 8.24854 5.9055C8.20824 6.03569 8.16794 6.16588 8.12764 6.29518C7.99755 6.31306 7.86647 6.32936 7.73637 6.34408C7.7341 6.34487 7.73321 6.34566 7.73242 6.34793C7.73242 6.34951 7.73242 6.35099 7.734 6.35258C7.8394 6.41688 7.94549 6.4804 8.05089 6.54322C8.01078 6.67242 7.96969 6.80182 7.92949 6.93132Z" fill="white"/>
<path d="M10.15 6.52675C10.15 6.52833 10.15 6.5306 10.1516 6.53139C10.1524 6.53218 10.1546 6.53139 10.1562 6.5306C10.2616 6.42915 10.367 6.32682 10.4724 6.22458C10.5778 6.27575 10.684 6.32682 10.7893 6.3772C10.7901 6.37641 10.7909 6.37641 10.7925 6.37641C10.794 6.37562 10.7955 6.37482 10.7955 6.37176C10.7955 6.37176 10.7955 6.37018 10.7947 6.37018C10.7544 6.25629 10.7149 6.1424 10.6746 6.0285C10.78 5.92548 10.8853 5.82245 10.9908 5.71853C10.9931 5.71626 10.9931 5.71468 10.9931 5.7131C10.9915 5.71152 10.9908 5.71083 10.9891 5.71152C10.8582 5.74481 10.728 5.7781 10.5971 5.8107C10.5568 5.69601 10.5166 5.58133 10.4762 5.46744C10.4754 5.46517 10.47 5.46665 10.4693 5.46902C10.429 5.60306 10.3879 5.73711 10.3476 5.87115C10.2174 5.90217 10.0864 5.93239 9.9563 5.96104C9.95472 5.96183 9.95403 5.96262 9.95245 5.96499C9.95166 5.96726 9.95245 5.96805 9.95472 5.96963C10.0601 6.02238 10.1655 6.07424 10.2709 6.1261C10.2306 6.26024 10.1903 6.39349 10.15 6.52675Z" fill="white"/>
<path d="M12.3703 5.94019C12.3703 5.94177 12.3703 5.94404 12.3719 5.94483C12.3735 5.94483 12.3749 5.94483 12.3765 5.94325C12.4819 5.83558 12.5881 5.72781 12.6934 5.61935C12.7988 5.66588 12.9041 5.71161 13.0095 5.75725C13.0103 5.75646 13.0119 5.75646 13.0127 5.75567C13.0142 5.75567 13.0165 5.75409 13.0165 5.75103C13.0165 5.75103 13.0165 5.74945 13.0157 5.74945C12.9754 5.63783 12.9351 5.52551 12.8948 5.41389C13.0001 5.30622 13.1064 5.19776 13.2117 5.09C13.2133 5.08772 13.2133 5.08614 13.2133 5.08456C13.2125 5.08219 13.2117 5.08219 13.2094 5.08298C13.0792 5.1218 12.9483 5.16052 12.8182 5.19925C12.7779 5.08693 12.7376 4.97462 12.6973 4.86221C12.6957 4.86063 12.6902 4.86221 12.6895 4.86448C12.6492 5.0009 12.6082 5.13642 12.5679 5.27284C12.4377 5.31087 12.3067 5.3488 12.1766 5.38604C12.175 5.38683 12.1743 5.38762 12.1735 5.38989C12.1719 5.39226 12.1735 5.39305 12.1743 5.39453C12.2805 5.44106 12.3859 5.48669 12.492 5.53243C12.4516 5.66815 12.4106 5.80457 12.3703 5.94019Z" fill="white"/>
<path d="M2.73402 6.53689C2.73165 6.53225 2.727 6.53146 2.72552 6.53462C2.68522 6.64614 2.64571 6.75776 2.60541 6.86938C2.47521 6.82671 2.34423 6.78186 2.21414 6.73455C2.21187 6.73376 2.21029 6.73376 2.21029 6.73376C2.2095 6.73534 2.21029 6.7384 2.21108 6.73919C2.31648 6.85545 2.42257 6.96935 2.52796 7.08087C2.48766 7.1917 2.44736 7.30164 2.40706 7.41089C2.40627 7.41326 2.40706 7.41484 2.40785 7.41632C2.41022 7.4179 2.4118 7.4179 2.41249 7.4179C2.51779 7.3776 2.62407 7.33572 2.72937 7.29235C2.83477 7.40091 2.94096 7.50858 3.04626 7.61398C3.04784 7.61556 3.04784 7.61556 3.04853 7.61556C3.05011 7.61635 3.05317 7.61556 3.05317 7.61398C3.05317 7.6124 3.05238 7.61082 3.05238 7.61082C3.01208 7.47598 2.97178 7.34115 2.93148 7.20632C3.03687 7.15979 3.14306 7.111 3.24836 7.06141C3.24915 7.06062 3.24994 7.05835 3.24915 7.05676C3.24915 7.05676 3.24688 7.05439 3.2453 7.05439C3.11511 7.02111 2.98413 6.98466 2.85403 6.94594C2.81383 6.81041 2.77432 6.674 2.73402 6.53689Z" fill="white"/>
<path d="M4.95374 6.97381C4.95216 6.96986 4.94752 6.96916 4.94525 6.97302C4.90495 7.09392 4.86543 7.21394 4.82513 7.33406C4.69494 7.32092 4.56396 7.30462 4.43387 7.28674C4.43229 7.28674 4.43001 7.28674 4.43001 7.28674C4.42922 7.28901 4.43001 7.29138 4.43081 7.29217C4.5361 7.38443 4.64229 7.47432 4.74769 7.56263C4.70739 7.68196 4.66718 7.80128 4.62678 7.91982C4.62599 7.92219 4.62678 7.92377 4.62836 7.92446C4.62915 7.92604 4.62994 7.92604 4.63064 7.92604C4.63133 7.92604 4.63291 7.92604 4.63291 7.92604C4.73831 7.86173 4.8437 7.79664 4.9491 7.72917C5.05529 7.8159 5.16069 7.90046 5.26678 7.98412C5.26678 7.98412 5.26757 7.98491 5.26836 7.98491C5.27142 7.98491 5.273 7.98333 5.273 7.98175C5.273 7.98017 5.27221 7.97948 5.27221 7.97948C5.23191 7.85324 5.19239 7.7269 5.15209 7.59977C5.25749 7.53082 5.36289 7.4603 5.46828 7.38819C5.46908 7.38819 5.46987 7.38591 5.46908 7.38433C5.46908 7.38433 5.46749 7.38206 5.46512 7.38206C5.33503 7.37584 5.20474 7.36734 5.07465 7.35727C5.03435 7.22955 4.99405 7.10163 4.95374 6.97381Z" fill="white"/>
<path d="M6.96828 7.60528C6.92797 7.73162 6.88846 7.85707 6.84816 7.98341C6.84737 7.98568 6.84816 7.98726 6.84895 7.98805C6.85053 7.98884 6.8528 7.98884 6.85359 7.98805C6.95899 7.90517 7.06439 7.8222 7.16979 7.73695C7.27597 7.80511 7.38137 7.87258 7.48746 7.93846C7.48746 7.93846 7.48825 7.93925 7.48983 7.93925C7.4921 7.93925 7.49447 7.93698 7.49447 7.93698C7.49447 7.93382 7.49289 7.93382 7.49289 7.93382C7.45259 7.81291 7.41308 7.69359 7.37278 7.57357C7.47818 7.48753 7.58357 7.40002 7.68897 7.31092C7.69055 7.31013 7.69124 7.30785 7.69055 7.30627C7.69055 7.30627 7.68828 7.30469 7.6866 7.30548C7.55641 7.31941 7.42553 7.33255 7.29533 7.34341C7.25503 7.22251 7.21404 7.1016 7.17374 6.9808C7.17295 6.97694 7.16751 6.97773 7.16682 6.98159C7.12652 7.10872 7.08622 7.23575 7.04592 7.36278C6.91573 7.37206 6.78474 7.37907 6.65455 7.38451C6.65297 7.3853 6.6507 7.38609 6.6507 7.38609C6.64991 7.38836 6.6507 7.39073 6.65228 7.39152C6.75748 7.46353 6.86288 7.53475 6.96828 7.60528Z" fill="white"/>
<path d="M9.1884 7.31325C9.1481 7.44492 9.10859 7.5759 9.06829 7.70688C9.0675 7.71005 9.06829 7.71153 9.06908 7.71153C9.07135 7.71232 9.07293 7.71153 9.07372 7.71074C9.17912 7.61462 9.28531 7.51782 9.39061 7.42013C9.496 7.47594 9.60209 7.53017 9.70749 7.5844H9.70976C9.71203 7.58361 9.71361 7.58213 9.71361 7.58055C9.71361 7.57897 9.71361 7.57818 9.71361 7.57818C9.67331 7.4628 9.63222 7.34802 9.59202 7.23265C9.69811 7.13347 9.8036 7.0343 9.90969 6.93354C9.91048 6.93275 9.91127 6.92969 9.91048 6.9289C9.90969 6.92811 9.90821 6.92732 9.90663 6.92811C9.77644 6.95675 9.64546 6.98461 9.51536 7.01177C9.47506 6.89551 9.43476 6.77925 9.39446 6.66308C9.39288 6.65992 9.38744 6.66071 9.38665 6.66466C9.34635 6.79713 9.30615 6.92969 9.26575 7.06136C9.13477 7.08695 9.00458 7.11095 8.87369 7.13416C8.8729 7.13416 8.87142 7.13495 8.87142 7.13495C8.87063 7.13811 8.87142 7.13959 8.87221 7.14038C8.97761 7.19936 9.08301 7.25665 9.1884 7.31325Z" fill="white"/>
<path d="M11.6146 6.12688C11.6139 6.12382 11.6076 6.1253 11.6068 6.12925C11.5665 6.26488 11.527 6.39971 11.4867 6.53454C11.3565 6.5702 11.2256 6.60507 11.0955 6.63915C11.0939 6.63994 11.0916 6.64073 11.0908 6.64221C11.0908 6.64379 11.0916 6.64607 11.0924 6.64607C11.1978 6.69565 11.304 6.74445 11.4093 6.79246C11.369 6.92729 11.3288 7.06213 11.2884 7.19617C11.2876 7.19933 11.2884 7.20012 11.29 7.20081C11.2907 7.2016 11.2915 7.20081 11.2923 7.20081C11.2923 7.20081 11.2931 7.20081 11.2946 7.19923C11.4 7.09462 11.5054 6.99002 11.6108 6.88462C11.7169 6.93193 11.8223 6.97836 11.9285 7.02489C11.9293 7.02568 11.9293 7.02568 11.9293 7.02568C11.9323 7.02489 11.9339 7.0234 11.9339 7.02182C11.9339 7.01955 11.9339 7.01955 11.9339 7.01955C11.8936 6.90635 11.8525 6.79404 11.8122 6.68242C11.9184 6.57544 12.0238 6.46856 12.1299 6.36158C12.1307 6.36 12.1315 6.35773 12.1307 6.35615C12.1299 6.35536 12.1291 6.35536 12.1268 6.35615C11.9966 6.39329 11.8664 6.42974 11.7362 6.46619C11.6959 6.35319 11.6548 6.23998 11.6146 6.12688Z" fill="white"/>
<path d="M1.62937 7.0708C1.62858 7.06695 1.62314 7.06379 1.62235 7.06774C1.58205 7.17383 1.54175 7.28001 1.50145 7.3862C1.37047 7.32733 1.24028 7.2653 1.10939 7.2003C1.1086 7.19951 1.10712 7.19951 1.10712 7.20109C1.10554 7.20267 1.10712 7.20494 1.10791 7.20652C1.21331 7.33592 1.31871 7.46305 1.42401 7.58771C1.3837 7.6939 1.34419 7.79851 1.30389 7.9039C1.3031 7.90549 1.30389 7.90776 1.30468 7.90855C1.30626 7.91082 1.30863 7.9125 1.30932 7.91082C1.41472 7.88445 1.52091 7.8558 1.62621 7.82478C1.73151 7.94727 1.8369 8.06808 1.9423 8.18671C1.94309 8.18671 1.94388 8.1875 1.94536 8.18829C1.94764 8.18908 1.94843 8.18908 1.94843 8.18602C1.94843 8.18444 1.94843 8.18375 1.94843 8.18375C1.90812 8.04427 1.86792 7.904 1.82752 7.76374C1.93292 7.73045 2.0391 7.69558 2.1444 7.65834C2.14598 7.65834 2.14668 7.65676 2.14598 7.65449C2.14598 7.65291 2.14371 7.65142 2.14213 7.65054C2.01194 7.60174 1.88096 7.54978 1.75087 7.49486C1.71076 7.35361 1.66967 7.21255 1.62937 7.0708Z" fill="white"/>
<path d="M3.85 7.76112C3.84842 7.75648 3.84308 7.75568 3.84229 7.75954C3.80199 7.87501 3.76248 7.99117 3.72218 8.10665C3.5912 8.08027 3.46101 8.05005 3.33012 8.01834C3.32854 8.01755 3.32696 8.01834 3.32617 8.01992C3.32617 8.0215 3.32617 8.02377 3.32775 8.02456C3.43315 8.12759 3.53924 8.22834 3.64464 8.32752C3.60433 8.44289 3.56403 8.55837 3.52373 8.67315C3.52294 8.67542 3.52373 8.677 3.52452 8.67779C3.52689 8.68006 3.52847 8.68006 3.52916 8.67937C3.63446 8.62593 3.74075 8.5717 3.84605 8.51589C3.95145 8.61269 4.05684 8.70802 4.16224 8.80255H4.1653C4.16688 8.80334 4.16925 8.80255 4.16925 8.80018C4.16925 8.7986 4.16925 8.79791 4.16925 8.79791C4.12895 8.66771 4.08786 8.53673 4.04756 8.40664C4.15375 8.34856 4.25914 8.28811 4.36523 8.22686C4.36602 8.22607 4.36681 8.22459 4.36602 8.22222C4.36523 8.22064 4.36444 8.21985 4.36217 8.21985C4.23198 8.20049 4.101 8.17955 3.9709 8.15554C3.9306 8.02377 3.8903 7.89279 3.85 7.76112Z" fill="white"/>
<path d="M6.06982 7.96798C6.06903 7.96412 6.0636 7.96412 6.06202 7.96798C6.02172 8.09195 5.98221 8.21591 5.9419 8.33909C5.81102 8.3383 5.68083 8.33445 5.54985 8.32902C5.54985 8.32902 5.54669 8.32981 5.5459 8.33129C5.5459 8.33356 5.5459 8.33514 5.54748 8.33593C5.65278 8.41732 5.75897 8.49714 5.86436 8.57537C5.82406 8.69865 5.78376 8.82183 5.74346 8.945C5.74267 8.94728 5.74346 8.94886 5.74504 8.94965C5.74662 8.95123 5.74731 8.95123 5.74968 8.94965C5.85508 8.87527 5.96048 8.80009 6.06587 8.72334C6.17127 8.8 6.27746 8.87596 6.38276 8.95034H6.38503C6.3873 8.95034 6.38888 8.94955 6.38888 8.94728C6.38888 8.94569 6.38888 8.945 6.38888 8.945C6.34858 8.82173 6.30759 8.69855 6.26728 8.57616C6.37268 8.49793 6.47887 8.41811 6.58417 8.33751C6.58575 8.33672 6.58723 8.33524 6.58575 8.33287C6.58496 8.33129 6.58417 8.3306 6.58259 8.3306C6.4525 8.33524 6.32141 8.3383 6.19132 8.33988C6.15122 8.21591 6.11013 8.09195 6.06982 7.96798Z" fill="white"/>
<path d="M8.29043 7.79916C8.28964 7.7953 8.28421 7.79609 8.28351 7.79995C8.24321 7.93014 8.20212 8.05954 8.16182 8.18894C8.03163 8.20751 7.90065 8.22381 7.77045 8.23853C7.76966 8.23932 7.76818 8.24011 7.7666 8.24159C7.7666 8.24386 7.7666 8.24554 7.76887 8.24623C7.87427 8.31054 7.97967 8.37405 8.08507 8.43687C8.04476 8.56628 8.00446 8.69568 7.96416 8.82429C7.96416 8.82666 7.96416 8.82824 7.96574 8.82893C7.96732 8.82962 7.96959 8.82972 7.97038 8.82814C8.07578 8.73825 8.18197 8.64678 8.28737 8.55462C8.39276 8.61655 8.49816 8.67701 8.60346 8.73667C8.60425 8.73667 8.60504 8.73667 8.60662 8.73588C8.6082 8.73588 8.60968 8.73509 8.60968 8.73203V8.72976C8.56938 8.6127 8.52908 8.49575 8.48878 8.3779C8.59418 8.28495 8.69947 8.19111 8.80497 8.09589C8.80724 8.0951 8.80724 8.09362 8.80724 8.09125C8.80566 8.08966 8.80497 8.08897 8.80329 8.08966C8.6731 8.11219 8.54212 8.13303 8.41203 8.15318C8.37182 8.03553 8.33083 7.917 8.29043 7.79916Z" fill="white"/>
<path d="M10.5111 7.35817C10.5096 7.35432 10.5041 7.3559 10.5033 7.35975C10.463 7.4938 10.422 7.62784 10.3817 7.7611C10.2515 7.7928 10.1213 7.82303 9.99116 7.85178C9.98889 7.85257 9.98809 7.85336 9.9873 7.85563C9.9873 7.85721 9.9873 7.85869 9.98889 7.85948C10.0943 7.91223 10.2005 7.96488 10.3058 8.01684C10.2655 8.15009 10.2244 8.28334 10.1842 8.4166C10.1842 8.41887 10.1842 8.42124 10.1858 8.42124C10.1873 8.42282 10.1888 8.42203 10.1904 8.42045C10.2958 8.3189 10.402 8.21667 10.5073 8.11433C10.6127 8.1655 10.718 8.21578 10.8234 8.26615C10.825 8.26536 10.8257 8.26536 10.8265 8.26536C10.8281 8.26457 10.8304 8.26309 10.8304 8.26072C10.8304 8.26072 10.8304 8.25845 10.8296 8.25914C10.7893 8.14525 10.749 8.03215 10.7087 7.91815C10.814 7.81513 10.9203 7.71131 11.0256 7.6074C11.0272 7.60581 11.0272 7.60433 11.0272 7.60196C11.0264 7.60038 11.0256 7.60038 11.0233 7.60038C10.8931 7.63446 10.7621 7.66785 10.632 7.70035C10.5917 7.58675 10.5514 7.47207 10.5111 7.35817Z" fill="white"/>
<path d="M12.7309 6.75164C12.7301 6.74858 12.7246 6.75006 12.7231 6.75392C12.6828 6.89033 12.6425 7.02585 12.6021 7.16148C12.472 7.19941 12.341 7.23744 12.2109 7.27537C12.2086 7.27537 12.2078 7.27695 12.207 7.27843C12.207 7.2808 12.207 7.28238 12.2086 7.28238C12.314 7.32891 12.4202 7.37534 12.5255 7.42107C12.4852 7.55669 12.4442 7.69301 12.4039 7.82863C12.4039 7.83091 12.4039 7.83249 12.4062 7.83249C12.407 7.83328 12.4085 7.83328 12.4108 7.83091C12.5162 7.72393 12.6215 7.61626 12.727 7.50859C12.8323 7.55423 12.9385 7.59917 13.0439 7.6449C13.0447 7.64411 13.0455 7.64411 13.0462 7.64411C13.0484 7.64332 13.0501 7.64184 13.0501 7.63947C13.0501 7.63789 13.0501 7.6372 13.0493 7.6372C13.009 7.52558 12.9688 7.41406 12.9284 7.30244C13.0338 7.19398 13.14 7.08631 13.2453 6.97775C13.2469 6.97617 13.2469 6.97469 13.2469 6.97232C13.2461 6.97153 13.2446 6.97074 13.2438 6.97074C13.1136 7.01025 12.9826 7.04897 12.8526 7.08769C12.8123 6.97558 12.7712 6.86395 12.7309 6.75164Z" fill="white"/>
<path d="M1.77201 9.37603C1.73171 9.23576 1.69141 9.0947 1.65111 8.95295C1.64953 8.94831 1.64488 8.94673 1.6433 8.94989C1.603 9.05608 1.5627 9.16217 1.5224 9.26836C1.39221 9.21027 1.26123 9.14824 1.13113 9.08393C1.12886 9.08235 1.12728 9.08235 1.12728 9.08393C1.12649 9.08631 1.12728 9.08789 1.12807 9.08937C1.23337 9.21798 1.33956 9.34501 1.44495 9.47056C1.40465 9.57586 1.36445 9.68135 1.32405 9.78586C1.32326 9.78813 1.32405 9.78892 1.32563 9.79208C1.32642 9.79287 1.32721 9.79287 1.3279 9.79366C1.32869 9.79366 1.33027 9.79445 1.33027 9.79445C1.43567 9.76739 1.54176 9.73785 1.64716 9.70694C1.75255 9.82932 1.85874 9.95023 1.96404 10.0688C1.96483 10.0696 1.96562 10.0696 1.96562 10.0696C1.96562 10.0696 1.96562 10.0696 1.96641 10.0703C1.96868 10.0711 1.97026 10.0696 1.97026 10.0681C1.97026 10.0658 1.96947 10.065 1.96947 10.065C1.92917 9.92554 1.88966 9.78606 1.84936 9.64579C1.95476 9.61171 2.06015 9.57684 2.16555 9.53891C2.16634 9.53891 2.16713 9.53733 2.16634 9.53496C2.16634 9.53338 2.16476 9.5319 2.16239 9.53111C2.0323 9.48211 1.90211 9.43095 1.77201 9.37603Z" fill="white"/>
<path d="M3.99172 10.0323C3.95142 9.90058 3.91122 9.7696 3.87082 9.63783C3.86924 9.63318 3.86459 9.63239 3.86311 9.63625C3.82281 9.75251 3.78251 9.86788 3.74221 9.98415C3.61201 9.95708 3.48103 9.92834 3.35084 9.89663C3.34926 9.89584 3.34699 9.89584 3.34699 9.89742C3.3462 9.89969 3.34699 9.90127 3.34857 9.90285C3.45397 10.0052 3.55937 10.1058 3.66476 10.2051C3.62446 10.3205 3.58495 10.436 3.54465 10.5506C3.54307 10.553 3.54465 10.5538 3.54544 10.5561C3.54702 10.5577 3.54929 10.5577 3.55008 10.5577C3.65627 10.5042 3.76167 10.4492 3.86775 10.3926C3.97315 10.4903 4.07855 10.5856 4.18395 10.679C4.18395 10.679 4.18474 10.679 4.18553 10.6805C4.18859 10.6805 4.19017 10.679 4.19017 10.6774C4.19017 10.6743 4.18938 10.6743 4.18938 10.6743C4.14908 10.5437 4.10957 10.4135 4.06926 10.2827C4.17466 10.2246 4.28006 10.1641 4.38546 10.1029C4.38704 10.1021 4.38773 10.1006 4.38704 10.0982C4.38704 10.0967 4.38477 10.096 4.38319 10.0952C4.2529 10.0764 4.12201 10.0555 3.99172 10.0323Z" fill="white"/>
<path d="M6.21175 10.212C6.17145 10.0888 6.13115 9.96482 6.09085 9.84085C6.08927 9.8369 6.08462 9.8369 6.08304 9.84085C6.04274 9.96482 6.00254 10.0888 5.96214 10.2128C5.83194 10.2112 5.70175 10.2081 5.57166 10.2027C5.56929 10.2027 5.56771 10.2035 5.56771 10.2051C5.56692 10.2073 5.56771 10.2089 5.5685 10.2097C5.6739 10.2911 5.7793 10.3701 5.88469 10.4483C5.84439 10.5723 5.80488 10.6959 5.76458 10.8184C5.76379 10.82 5.76458 10.8215 5.76537 10.823C5.76764 10.8246 5.76922 10.8246 5.77001 10.8246C5.87541 10.7486 5.9816 10.6743 6.08689 10.5963C6.19229 10.6743 6.29838 10.7486 6.40378 10.823H6.40605C6.40832 10.823 6.41069 10.8214 6.41069 10.8199C6.41069 10.8183 6.4099 10.8168 6.4099 10.8168C6.3696 10.6944 6.3293 10.5715 6.289 10.4483C6.39439 10.3701 6.50058 10.2903 6.60588 10.2097C6.60588 10.2097 6.60746 10.2074 6.60667 10.2051C6.60667 10.2035 6.6044 10.2027 6.60282 10.2027C6.47292 10.2081 6.34194 10.2113 6.21175 10.212Z" fill="white"/>
<path d="M8.43148 10.0229C8.39118 9.90516 8.35087 9.78653 8.31057 9.66878C8.30978 9.66493 8.30514 9.66572 8.30277 9.66957C8.26247 9.79977 8.22295 9.92917 8.18265 10.0594C8.05246 10.0772 7.92148 10.0942 7.79129 10.1089C7.78902 10.1089 7.78665 10.1105 7.78744 10.112C7.78665 10.1143 7.78744 10.1151 7.78823 10.1166C7.89362 10.181 7.99981 10.2445 8.10521 10.3065C8.06491 10.4359 8.02461 10.5653 7.9843 10.6943C7.98351 10.6974 7.9843 10.6974 7.98588 10.699C7.98747 10.7005 7.98895 10.7005 7.99053 10.699C8.09592 10.6087 8.20132 10.5173 8.30672 10.425C8.41281 10.4863 8.51831 10.5466 8.62439 10.6063H8.62597C8.62914 10.6055 8.63062 10.6032 8.63062 10.6017C8.63062 10.6001 8.62983 10.5994 8.62983 10.5994C8.58953 10.4823 8.55001 10.3646 8.50971 10.2475C8.61511 10.1538 8.72041 10.06 8.82581 9.96473C8.8266 9.96394 8.82739 9.96245 8.8266 9.96008C8.8266 9.9585 8.82502 9.9585 8.82274 9.9585C8.69255 9.98112 8.56167 10.0028 8.43148 10.0229Z" fill="white"/>
<path d="M10.6528 9.56801C10.6125 9.45412 10.5714 9.34023 10.5312 9.22633C10.5304 9.22248 10.5257 9.22327 10.5241 9.22791C10.4838 9.36196 10.4435 9.49531 10.4032 9.62926C10.273 9.66027 10.1421 9.6905 10.012 9.71993C10.0104 9.72073 10.0081 9.72221 10.0081 9.723C10.0073 9.72606 10.0081 9.72764 10.0097 9.72764C10.1151 9.78029 10.2204 9.83294 10.3259 9.88411C10.2856 10.0181 10.2461 10.1515 10.2058 10.2848C10.2042 10.287 10.2058 10.2878 10.2066 10.2902C10.2082 10.2902 10.2104 10.2902 10.2112 10.2886C10.3166 10.1872 10.422 10.0848 10.5273 9.98259C10.6335 10.0338 10.7389 10.084 10.845 10.1345C10.845 10.1337 10.8458 10.1337 10.8466 10.1337C10.8497 10.1329 10.8505 10.1306 10.8505 10.1291V10.1268C10.8102 10.0129 10.7699 9.89981 10.7296 9.78582C10.8349 9.68279 10.9411 9.57898 11.0465 9.47506C11.0481 9.47348 11.0488 9.472 11.0481 9.46963C11.0481 9.46805 11.0458 9.46805 11.0442 9.46805C10.9138 9.50213 10.7829 9.53541 10.6528 9.56801Z" fill="white"/>
<path d="M13.2635 8.83808C13.1333 8.8769 13.0024 8.91562 12.8723 8.95434C12.832 8.84282 12.7917 8.73041 12.7514 8.6181C12.7498 8.61504 12.7444 8.61652 12.7436 8.62037C12.7033 8.75678 12.663 8.89231 12.6227 9.02793C12.4917 9.06675 12.3615 9.10468 12.2306 9.14183C12.2298 9.14183 12.2283 9.14341 12.2275 9.14489C12.2275 9.14716 12.2275 9.14884 12.2291 9.14953C12.3344 9.19606 12.4398 9.24169 12.5452 9.28743C12.5049 9.42384 12.4654 9.55937 12.4251 9.69499C12.4243 9.69726 12.4251 9.69805 12.4259 9.69963C12.4282 9.69963 12.4297 9.69963 12.4305 9.69884C12.5359 9.59117 12.6421 9.48271 12.7474 9.37495C12.8528 9.42068 12.9582 9.46641 13.0636 9.51205C13.0644 9.51126 13.0659 9.51126 13.0667 9.51126C13.0689 9.51047 13.0705 9.50741 13.0705 9.50583C13.0705 9.50425 13.0705 9.50346 13.0705 9.50346C13.0302 9.39194 12.9892 9.28031 12.9489 9.16869C13.0551 9.06023 13.1605 8.95177 13.2666 8.84332C13.2674 8.84252 13.2682 8.84104 13.2674 8.83867C13.2674 8.83729 13.2651 8.83729 13.2635 8.83808Z" fill="white"/>
<path d="M1.74467 11.2601C1.70437 11.119 1.66407 10.9781 1.62376 10.8354C1.62218 10.8324 1.61754 10.8292 1.61685 10.8324C1.57655 10.9393 1.53545 11.0462 1.49515 11.1516C1.36506 11.0927 1.23398 11.0307 1.10389 10.9656C1.10231 10.964 1.09994 10.964 1.09994 10.9656C1.09915 10.9656 1.09994 10.9687 1.10073 10.9703C1.20612 11.1004 1.31231 11.2275 1.41761 11.353C1.37731 11.4584 1.33701 11.5638 1.29671 11.6691C1.29591 11.6691 1.29671 11.6722 1.29829 11.6738C1.29987 11.6754 1.30135 11.6754 1.30372 11.6754C1.40912 11.6491 1.51451 11.6211 1.61991 11.5902C1.72531 11.7126 1.8315 11.8335 1.9368 11.9512C1.93759 11.9543 1.93759 11.9543 1.93838 11.9543H1.93917C1.94144 11.9559 1.94302 11.9543 1.94302 11.9527C1.94302 11.9511 1.94223 11.9497 1.94223 11.9497C1.90193 11.8086 1.86241 11.6691 1.82211 11.5297C1.92751 11.4956 2.03291 11.46 2.13821 11.4228C2.139 11.4228 2.13979 11.4212 2.139 11.4197C2.139 11.4181 2.13742 11.4166 2.13505 11.4166C2.00505 11.3671 1.87486 11.3159 1.74467 11.2601Z" fill="white"/>
<path d="M3.96428 11.9216C3.92398 11.7916 3.88377 11.6582 3.84337 11.5264C3.84179 11.5234 3.83715 11.5218 3.83567 11.5248C3.79537 11.6411 3.75507 11.7574 3.71476 11.8735C3.58457 11.8472 3.45359 11.8161 3.3235 11.7851C3.32192 11.7835 3.31965 11.7851 3.31965 11.7867C3.31886 11.7867 3.31965 11.7899 3.32123 11.7899C3.42662 11.8937 3.53202 11.9943 3.63742 12.0935C3.59712 12.2098 3.55761 12.3245 3.5173 12.4391C3.51651 12.4407 3.5173 12.4422 3.51809 12.4438C3.51967 12.4454 3.52195 12.4469 3.52274 12.4454C3.62813 12.3927 3.73353 12.3384 3.83893 12.2827C3.94502 12.3788 4.05051 12.4748 4.1566 12.5693C4.1566 12.5693 4.15739 12.5709 4.15888 12.5709C4.16125 12.5709 4.16352 12.5693 4.16352 12.5679C4.16352 12.5664 4.16194 12.5648 4.16194 12.5648C4.12164 12.4347 4.08212 12.3044 4.04182 12.1727C4.14722 12.1153 4.25252 12.055 4.35792 11.993C4.3595 11.993 4.36029 11.9899 4.3595 11.9899C4.3595 11.9883 4.35713 11.9868 4.35555 11.9868C4.22535 11.9682 4.09447 11.9464 3.96428 11.9216Z" fill="white"/>
<path d="M6.18421 12.1077C6.14391 11.9837 6.1044 11.8597 6.06409 11.7357C6.06182 11.7326 6.05629 11.7326 6.0556 11.7357C6.0153 11.8597 5.97579 11.9837 5.93548 12.1077C5.80529 12.1061 5.67431 12.1031 5.54422 12.0968C5.54195 12.0968 5.54037 12.0984 5.54037 12.0999C5.53958 12.0999 5.54037 12.1031 5.54116 12.1031C5.64655 12.1851 5.75195 12.2642 5.85735 12.3433C5.81705 12.4673 5.77754 12.5896 5.73723 12.712C5.73644 12.7151 5.73723 12.7151 5.73802 12.7167C5.7403 12.7183 5.74188 12.7183 5.74267 12.7167C5.84806 12.6439 5.95425 12.5679 6.05955 12.492C6.16495 12.568 6.27114 12.6439 6.37644 12.7183C6.37644 12.7199 6.37802 12.7199 6.37881 12.7199C6.38108 12.7199 6.38345 12.7168 6.38345 12.7152C6.38345 12.7136 6.38266 12.7136 6.38266 12.7121C6.34236 12.5897 6.30126 12.4673 6.26106 12.3449C6.36715 12.2658 6.47255 12.1867 6.57873 12.1046C6.57953 12.1046 6.58032 12.1015 6.57953 12.1015C6.57953 12.0999 6.57725 12.0984 6.57567 12.0984C6.44528 12.1046 6.3144 12.1061 6.18421 12.1077Z" fill="white"/>
<path d="M8.40529 11.9218C8.36499 11.804 8.32389 11.6862 8.28369 11.5669C8.2829 11.5638 8.27668 11.5653 8.27589 11.5684C8.23559 11.6986 8.19607 11.8288 8.15577 11.9574C8.02558 11.976 7.8946 11.9931 7.76441 12.0071C7.76283 12.0071 7.76056 12.0087 7.75977 12.0102C7.75977 12.0102 7.76056 12.0132 7.76135 12.0148C7.86674 12.0784 7.97293 12.1434 8.07823 12.2055C8.03793 12.3356 7.99773 12.4643 7.95732 12.5929C7.95653 12.5945 7.95732 12.5959 7.9589 12.5975C7.96049 12.5992 7.96197 12.5975 7.96355 12.5959C8.06894 12.5062 8.17434 12.4163 8.27974 12.3248C8.38593 12.3852 8.49133 12.4457 8.59742 12.5046C8.59742 12.5062 8.59821 12.5062 8.599 12.5062C8.60206 12.5062 8.60285 12.503 8.60285 12.5014C8.60285 12.4998 8.60285 12.4998 8.60285 12.4998C8.56255 12.3821 8.52303 12.2642 8.48273 12.1465C8.58813 12.0536 8.69353 11.959 8.79892 11.8646C8.79971 11.8629 8.80051 11.8614 8.79971 11.8598C8.79971 11.8583 8.79813 11.8583 8.79586 11.8583C8.66567 11.8815 8.53548 11.9016 8.40529 11.9218Z" fill="white"/>
<path d="M10.625 11.4709C10.5847 11.3562 10.5436 11.2416 10.5033 11.127C10.5025 11.1238 10.4971 11.1254 10.4964 11.1285C10.4561 11.2633 10.4158 11.3966 10.3755 11.5314C10.2445 11.5624 10.1143 11.5918 9.98344 11.6213C9.98265 11.6228 9.98028 11.6228 9.97949 11.6259C9.97949 11.6259 9.97949 11.6276 9.98176 11.6291C10.0872 11.6817 10.1926 11.7344 10.298 11.7871C10.2577 11.9205 10.2181 12.0536 10.1778 12.187C10.1771 12.1885 10.1778 12.19 10.1786 12.19C10.1802 12.1916 10.1826 12.1916 10.1833 12.1884C10.2886 12.0877 10.394 11.987 10.4994 11.8847C10.6056 11.936 10.711 11.9856 10.817 12.035C10.817 12.0366 10.8178 12.0366 10.8193 12.0366C10.8216 12.035 10.8224 12.0336 10.8224 12.032C10.8224 12.0304 10.8224 12.0289 10.8224 12.0289C10.7821 11.9157 10.7418 11.801 10.7015 11.6879C10.8069 11.5857 10.9123 11.4818 11.0177 11.3765C11.0199 11.3749 11.0207 11.3734 11.0199 11.3718C11.0184 11.3718 11.0177 11.3703 11.0161 11.3718C10.8862 11.4042 10.7552 11.4383 10.625 11.4709Z" fill="white"/>
<path d="M12.845 10.8586C12.8047 10.7455 12.7644 10.6336 12.7241 10.5212C12.7225 10.5181 12.7172 10.5196 12.7163 10.5234C12.676 10.6587 12.6358 10.7951 12.5954 10.9314C12.4645 10.9701 12.3342 11.0073 12.2034 11.0445C12.2026 11.0445 12.201 11.0461 12.2002 11.0476C12.2002 11.0476 12.2002 11.0506 12.2018 11.0522C12.3072 11.0987 12.4126 11.1452 12.518 11.1917C12.4777 11.3265 12.4382 11.4629 12.3979 11.5977C12.3971 11.5993 12.3979 11.6008 12.3986 11.6024C12.4009 11.6024 12.4025 11.6024 12.4033 11.6008C12.5087 11.4939 12.6149 11.3853 12.7202 11.2784L13.0364 11.4132C13.0372 11.4148 13.0386 11.4148 13.0394 11.4148C13.041 11.4148 13.0433 11.4118 13.0433 11.4102C13.0433 11.4085 13.0433 11.407 13.0433 11.407C13.003 11.2955 12.9619 11.1839 12.9217 11.0723C13.0279 10.9638 13.1333 10.8553 13.2394 10.7469C13.2401 10.7453 13.2409 10.7438 13.2401 10.7422C13.2394 10.7407 13.2378 10.7407 13.2362 10.7407C13.1061 10.7812 12.9751 10.8199 12.845 10.8586Z" fill="white"/>
<path d="M2.86088 8.8181C2.82058 8.68169 2.78028 8.54537 2.73997 8.40896C2.73839 8.4059 2.73375 8.40431 2.73148 8.4059C2.69118 8.51831 2.65167 8.62983 2.61136 8.74066C2.48127 8.69888 2.35019 8.65393 2.2201 8.60661C2.21852 8.60582 2.21615 8.60582 2.21615 8.6082C2.21536 8.60899 2.21615 8.61136 2.21694 8.61284C2.32234 8.72821 2.42852 8.84141 2.53382 8.95294C2.49352 9.06377 2.45322 9.1746 2.41292 9.28454C2.41213 9.28612 2.41292 9.28839 2.4145 9.28997C2.41608 9.29076 2.41835 9.29234 2.41914 9.29155C2.52454 9.25046 2.63072 9.20868 2.73602 9.16373C2.84142 9.27377 2.94761 9.38144 3.05291 9.48763H3.05449C3.05755 9.48842 3.05913 9.48842 3.05913 9.48536C3.05913 9.48457 3.05834 9.48457 3.05834 9.48457C3.01804 9.34894 2.97853 9.21332 2.93822 9.07779C3.04362 9.03206 3.14902 8.98405 3.25432 8.93436C3.25511 8.93278 3.25669 8.93209 3.25511 8.92972C3.25511 8.92745 3.25353 8.92587 3.25205 8.92587C3.12195 8.89248 2.99097 8.85682 2.86088 8.8181Z" fill="white"/>
<path d="M5.08104 9.22722C5.04074 9.10009 5.00123 8.97227 4.96093 8.84445C4.95866 8.84139 4.95401 8.84139 4.95322 8.84366C4.91292 8.96377 4.87183 9.08458 4.83153 9.20479C4.70134 9.19077 4.57035 9.17536 4.44026 9.15748C4.43868 9.15669 4.4372 9.15748 4.4372 9.15975C4.43562 9.16133 4.4372 9.16281 4.43799 9.16439C4.54339 9.25586 4.64879 9.34496 4.75418 9.43327C4.71388 9.55339 4.67437 9.67271 4.63407 9.79204C4.63328 9.79362 4.63407 9.79589 4.63486 9.79668C4.63644 9.79747 4.63871 9.79826 4.63871 9.79826C4.7449 9.73396 4.85099 9.66728 4.95717 9.59991C5.06257 9.68664 5.16797 9.77189 5.27327 9.85555H5.27554C5.27791 9.85634 5.28018 9.85555 5.28018 9.85249C5.27939 9.8517 5.27939 9.85091 5.2786 9.85091C5.2383 9.72378 5.19879 9.59754 5.15849 9.47041C5.26388 9.40146 5.36918 9.33173 5.47458 9.26041C5.47616 9.25883 5.47695 9.25735 5.47616 9.25576C5.47616 9.25349 5.47379 9.2527 5.47221 9.2527C5.34212 9.24658 5.21114 9.23808 5.08104 9.22722Z" fill="white"/>
<path d="M7.3015 9.21323C7.2612 9.09232 7.22089 8.97152 7.18059 8.84982C7.17901 8.84745 7.17437 8.84824 7.17279 8.85061C7.13249 8.97764 7.09297 9.10556 7.05267 9.23259C6.92248 9.24109 6.7915 9.24889 6.66141 9.25432C6.65913 9.25432 6.65755 9.25511 6.65755 9.25738C6.65676 9.25896 6.65755 9.26045 6.65834 9.26203C6.76374 9.33404 6.86993 9.40457 6.97523 9.4743C6.93493 9.60143 6.89462 9.72767 6.85432 9.8548C6.85353 9.85638 6.85432 9.85865 6.85511 9.85944C6.85738 9.85944 6.85897 9.85944 6.85976 9.85865C6.96594 9.77578 7.07134 9.69201 7.17743 9.60687C7.28283 9.67502 7.38902 9.74328 7.49431 9.80986C7.49431 9.80986 7.4951 9.80986 7.49589 9.80907C7.49906 9.80907 7.50054 9.80828 7.50054 9.80521L7.49975 9.80363C7.45944 9.68352 7.41914 9.5634 7.37884 9.44339C7.48414 9.35735 7.59033 9.26983 7.69573 9.18152C7.69652 9.17994 7.69731 9.17836 7.69652 9.17688C7.69652 9.17461 7.69494 9.17461 7.69266 9.17461C7.56257 9.18844 7.43159 9.20157 7.3015 9.21323Z" fill="white"/>
<path d="M9.52238 8.88008C9.48208 8.76382 9.44098 8.64834 9.40078 8.53218C9.39999 8.52981 9.39456 8.53139 9.39298 8.53376C9.35267 8.66543 9.31316 8.79799 9.27286 8.92967C9.14267 8.95525 9.01169 8.97925 8.8816 9.00247C8.88001 9.00247 8.87774 9.00405 8.87695 9.00642C8.87695 9.008 8.87774 9.00948 8.87853 9.01106C8.98383 9.06845 9.09012 9.12574 9.19542 9.18234C9.15512 9.31402 9.11491 9.44579 9.07451 9.57746C9.07372 9.57904 9.07451 9.58131 9.07609 9.5821C9.07767 9.5821 9.07994 9.5821 9.08073 9.58052C9.18613 9.48441 9.29143 9.38682 9.39683 9.28913C9.50302 9.34494 9.60841 9.39996 9.7145 9.45419L9.71608 9.45339C9.71915 9.45339 9.72073 9.45181 9.72073 9.44875L9.71994 9.44717C9.67963 9.3317 9.64012 9.21623 9.59982 9.10085C9.70522 9.00237 9.81062 8.90329 9.91601 8.80333C9.9168 8.80175 9.91829 8.79938 9.9168 8.79869C9.9168 8.79641 9.91522 8.79562 9.91374 8.79641C9.78355 8.82506 9.65257 8.85301 9.52238 8.88008Z" fill="white"/>
<path d="M11.7421 8.33468C11.7018 8.22157 11.6608 8.10837 11.6205 7.99527C11.6197 7.993 11.6143 7.99448 11.6136 7.99685C11.5733 8.13247 11.533 8.268 11.4927 8.40283C11.3617 8.43849 11.2315 8.47336 11.1005 8.50744C11.0997 8.50823 11.0983 8.50902 11.0967 8.51208C11.0967 8.51366 11.0983 8.51436 11.099 8.51603C11.2043 8.56483 11.3097 8.61284 11.4151 8.66094C11.3748 8.79657 11.3353 8.9313 11.295 9.06624C11.2942 9.06782 11.295 9.07009 11.2958 9.07088C11.2974 9.07088 11.2997 9.07009 11.3005 9.0693C11.4058 8.9639 11.5119 8.8585 11.6173 8.75241C11.7227 8.80042 11.8281 8.84774 11.9335 8.89574C11.9343 8.89495 11.9351 8.89495 11.9366 8.89416C11.9389 8.89337 11.9412 8.89258 11.9412 8.88952C11.9405 8.88873 11.9405 8.88873 11.9397 8.88794C11.8994 8.77553 11.8598 8.66243 11.8195 8.55011C11.9249 8.44393 12.0303 8.33784 12.1357 8.23096C12.1373 8.22938 12.138 8.2278 12.1373 8.22631C12.1373 8.22404 12.135 8.22404 12.1335 8.22404C12.0032 8.26099 11.8723 8.29823 11.7421 8.33468Z" fill="white"/>
<path d="M2.85413 10.7068C2.81383 10.5715 2.77432 10.4359 2.73402 10.2996C2.73165 10.295 2.727 10.2942 2.72552 10.2972C2.68522 10.4089 2.64571 10.5196 2.60541 10.6304C2.47521 10.5878 2.34423 10.5429 2.21414 10.4956C2.21187 10.494 2.21029 10.4964 2.21029 10.4964C2.2095 10.498 2.21029 10.501 2.21108 10.5018C2.31648 10.6173 2.42257 10.7316 2.52796 10.8432C2.48766 10.9532 2.44736 11.0633 2.40706 11.1733C2.40627 11.1749 2.40706 11.178 2.40785 11.1795C2.41022 11.1811 2.4118 11.1811 2.41249 11.1811C2.51779 11.1392 2.62407 11.0973 2.72937 11.054C2.83477 11.1625 2.94096 11.271 3.04626 11.3764C3.04784 11.378 3.04784 11.378 3.04853 11.378C3.05011 11.3796 3.05317 11.378 3.05317 11.3764L3.05238 11.3733C3.01208 11.2385 2.97178 11.1038 2.93148 10.9688C3.03687 10.9223 3.14306 10.8743 3.24836 10.8247C3.24915 10.8231 3.24994 10.8217 3.24915 10.8201C3.24915 10.8185 3.24688 10.8154 3.2453 10.8154C3.1153 10.7827 2.98432 10.7455 2.85413 10.7068Z" fill="white"/>
<path d="M5.07465 11.1191C5.03435 10.9921 4.99405 10.8634 4.95374 10.7363C4.95216 10.7333 4.94752 10.7317 4.94525 10.7363C4.90495 10.8556 4.86543 10.975 4.82513 11.0959C4.69494 11.0819 4.56396 11.0664 4.43387 11.0479C4.43229 11.0479 4.43001 11.0494 4.43001 11.0494C4.42922 11.0525 4.43001 11.0541 4.43081 11.0557C4.5361 11.1471 4.64229 11.237 4.74769 11.3253C4.70739 11.4447 4.66718 11.564 4.62678 11.6833C4.62599 11.6849 4.62678 11.6864 4.62836 11.688C4.62994 11.6895 4.63143 11.6895 4.63301 11.688C4.7384 11.6243 4.8438 11.5579 4.9492 11.4912C5.05539 11.5779 5.16078 11.6632 5.26687 11.7469C5.26687 11.7469 5.26766 11.7485 5.26845 11.7485C5.27152 11.7485 5.2731 11.7469 5.2731 11.7439L5.27231 11.7422C5.232 11.6152 5.19249 11.4896 5.15219 11.3626C5.25759 11.2944 5.36299 11.2231 5.46838 11.1518C5.46917 11.1518 5.46996 11.1486 5.46917 11.147C5.46917 11.147 5.46759 11.144 5.46522 11.144C5.33503 11.1378 5.20474 11.1285 5.07465 11.1191Z" fill="white"/>
<path d="M7.29533 11.1051C7.25503 10.9842 7.21404 10.8649 7.17374 10.744C7.17295 10.7393 7.1683 10.7393 7.16682 10.744C7.12652 10.8711 7.08622 10.9981 7.04592 11.1236C6.91573 11.133 6.78474 11.1407 6.65455 11.1453C6.65297 11.1469 6.6507 11.1484 6.6507 11.1499C6.64991 11.1516 6.6507 11.1531 6.65228 11.1547C6.75768 11.226 6.86308 11.2972 6.96847 11.367C6.92817 11.494 6.88866 11.6195 6.84836 11.7467C6.84757 11.7482 6.84836 11.7497 6.84915 11.7513H6.85379C6.95919 11.6675 7.06459 11.584 7.16998 11.4986C7.27617 11.5668 7.38157 11.635 7.48766 11.7017H7.49003C7.4923 11.7017 7.49467 11.7001 7.49467 11.6971H7.49309C7.45279 11.5761 7.41328 11.4553 7.37298 11.3359C7.47837 11.2492 7.58377 11.1624 7.68917 11.0741C7.69075 11.0725 7.69144 11.071 7.69075 11.0694C7.69075 11.0679 7.68848 11.0664 7.6868 11.0664C7.55641 11.0803 7.42553 11.0942 7.29533 11.1051Z" fill="white"/>
<path d="M9.51546 10.7735C9.47516 10.6577 9.43486 10.5422 9.39456 10.426C9.39298 10.4229 9.38833 10.4237 9.38675 10.4275C9.34645 10.5592 9.30625 10.6914 9.26585 10.8231C9.13566 10.8479 9.00546 10.8727 8.87537 10.8945C8.873 10.896 8.87142 10.8975 8.87142 10.8975C8.87063 10.9006 8.87142 10.9022 8.87221 10.9037C8.97761 10.9611 9.08301 11.0184 9.1884 11.0757C9.1481 11.2075 9.10859 11.3392 9.06829 11.4694C9.0675 11.4724 9.06829 11.474 9.06908 11.474C9.07135 11.4756 9.07293 11.474 9.07372 11.474C9.17912 11.3764 9.28531 11.2803 9.39061 11.1811C9.496 11.2368 9.60209 11.2926 9.70749 11.347H9.70976C9.71203 11.347 9.71361 11.3454 9.71361 11.3423V11.3406C9.67331 11.2245 9.63301 11.1098 9.59271 10.9951C9.69801 10.8959 9.80429 10.7968 9.90959 10.696C9.91038 10.696 9.91117 10.6929 9.91038 10.6914C9.91038 10.6914 9.90811 10.6883 9.90653 10.6898C9.77663 10.7176 9.64565 10.7455 9.51546 10.7735Z" fill="white"/>
<path d="M11.7362 10.2275C11.6959 10.1151 11.6548 10.002 11.6146 9.88969C11.6139 9.88583 11.6076 9.88811 11.6068 9.89196C11.5665 10.0268 11.527 10.1616 11.4867 10.2957C11.3565 10.3313 11.2256 10.3662 11.0955 10.4003C11.0939 10.4011 11.0916 10.4033 11.0908 10.4049C11.0908 10.4065 11.0916 10.408 11.0924 10.4089C11.1978 10.4585 11.304 10.5065 11.4093 10.5546C11.369 10.6898 11.3288 10.8246 11.2884 10.9594C11.2876 10.961 11.2884 10.9625 11.29 10.9641C11.2915 10.9641 11.2931 10.9641 11.2946 10.9625C11.4 10.8571 11.5054 10.7517 11.6108 10.6459C11.7169 10.6928 11.8223 10.7408 11.9285 10.7873C11.9293 10.7889 11.9293 10.7889 11.9293 10.7889H11.93C11.9323 10.7873 11.934 10.7857 11.934 10.7827V10.7811C11.8937 10.6696 11.8526 10.5567 11.8123 10.4444C11.9185 10.3375 12.0239 10.2314 12.13 10.1244C12.1308 10.1228 12.1316 10.1204 12.1308 10.119C12.13 10.119 12.1292 10.1167 12.1269 10.1174C11.9966 10.1546 11.8664 10.191 11.7362 10.2275Z" fill="white"/>
</svg>
