<svg width="149" height="148" viewBox="0 0 149 148" fill="none" xmlns="http://www.w3.org/2000/svg">
<path d="M120.031 23.0381H6.68436C3.45705 23.0381 0.839844 25.5988 0.839844 28.758V158.078C0.839844 170.196 10.4319 180.021 22.263 180.021H23.8614C33.3564 180.021 40.7863 177.056 42.6905 162.008H42.7108C43.1745 158.304 43.3079 153.881 43.0456 148.58L126.151 148.855L125.873 28.7449C125.869 25.5915 123.254 23.0381 120.031 23.0381Z" fill="#385AC9" fill-opacity="0.06"/>
<path d="M6.68457 23.6006H120.031C122.864 23.6006 125.159 25.7715 125.304 28.4814L125.311 28.7461L125.587 148.291L43.0479 148.018L42.4551 148.016L42.4844 148.607C42.7339 153.651 42.6216 157.883 42.2109 161.446H42.1953L42.1328 161.938C41.1906 169.383 38.896 173.723 35.7715 176.219C32.6388 178.721 28.5648 179.459 23.8613 179.459H22.2627C10.755 179.459 1.4025 169.898 1.40234 158.078V28.7578C1.40243 25.9205 3.75623 23.6006 6.68457 23.6006Z" stroke="#385AC9" stroke-opacity="0.31" stroke-width="1.12421"/>
<path d="M16.3242 63.4194C16.3242 70.7261 22.0774 76.6474 29.1755 76.6474C36.2735 76.6474 42.0268 70.7246 42.0268 63.4194C42.0268 56.1141 29.1755 42.3252 29.1755 42.3252C29.1755 42.3252 16.3242 56.1126 16.3242 63.4194Z" fill="#FF9500" fill-opacity="0.61"/>
<path d="M111.796 55.6331H67.7655C66.1656 55.6331 64.8672 54.3347 64.8672 52.7348C64.8672 51.1349 66.1656 49.8364 67.7655 49.8364H111.797C113.397 49.8364 114.696 51.1349 114.696 52.7348C114.696 54.3347 113.397 55.6331 111.796 55.6331Z" fill="#F3B561"/>
<path d="M98.3431 69.1382H67.7655C66.1656 69.1382 64.8672 67.8398 64.8672 66.2399C64.8672 64.64 66.1656 63.3416 67.7655 63.3416H98.3445C99.9444 63.3416 101.243 64.64 101.243 66.2399C101.243 67.8398 99.9444 69.1382 98.3431 69.1382Z" fill="#F3B561"/>
<path d="M20.7914 133.352C20.2045 133.352 19.6132 133.174 19.0988 132.806C17.8003 131.87 17.5061 130.058 18.4437 128.76L27.7619 115.832L19.0176 115.849C19.0162 115.849 19.0133 115.849 19.0118 115.849C17.8931 115.849 16.8728 115.204 16.3932 114.193C15.912 113.18 16.0599 111.98 16.77 111.113L29.3836 95.7246C30.3994 94.4885 32.2254 94.3073 33.4615 95.3203C34.6991 96.3347 34.8803 98.1607 33.8658 99.3997L25.1433 110.04L33.4253 110.022H33.4311C34.518 110.022 35.5136 110.629 36.0092 111.597C36.5062 112.565 36.4178 113.732 35.7817 114.616L23.1434 132.15C22.5782 132.935 21.6913 133.352 20.7914 133.352Z" fill="#385AC9" fill-opacity="0.87"/>
<path d="M111.338 114.019H64.5663C62.9664 114.019 61.668 112.72 61.668 111.12C61.668 109.52 62.9664 108.222 64.5663 108.222H111.338C112.938 108.222 114.237 109.52 114.237 111.12C114.237 112.72 112.938 114.019 111.338 114.019Z" fill="#385AC9" fill-opacity="0.87"/>
<path d="M97.0481 128.459H64.5663C62.9664 128.459 61.668 127.16 61.668 125.56C61.668 123.96 62.9664 122.662 64.5663 122.662H97.0481C98.648 122.662 99.9464 123.96 99.9464 125.56C99.9464 127.16 98.648 128.459 97.0481 128.459Z" fill="#385AC9" fill-opacity="0.87"/>
<path d="M126.151 45.8714C138.579 45.8714 148.654 35.7485 148.654 23.2614C148.654 10.7742 138.579 0.651367 126.151 0.651367C113.723 0.651367 103.648 10.7742 103.648 23.2614C103.648 35.7485 113.723 45.8714 126.151 45.8714Z" fill="#385AC9"/>
<path d="M122.301 33.5647C121.714 33.5647 121.123 33.3865 120.614 33.0213L114.536 28.6651C113.236 27.7333 112.936 25.9218 113.868 24.6204C114.8 23.3205 116.611 23.0206 117.913 23.9538L121.918 26.8232L133.958 13.8792C135.052 12.7068 136.884 12.6416 138.055 13.7314C139.227 14.8211 139.292 16.6558 138.204 17.8282L124.427 32.6387C123.859 33.2503 123.082 33.5647 122.301 33.5647Z" fill="white" fill-opacity="0.87"/>
</svg>
