<svg width="57" height="58" viewBox="0 0 57 58" fill="none" xmlns="http://www.w3.org/2000/svg">
<g clip-path="url(#clip0_2004_16090)">
<path d="M48.875 44H42.125C41.504 44 41 43.496 41 42.875C41 42.254 41.504 41.75 42.125 41.75H48.875C50.7357 41.75 52.25 40.2358 52.25 38.375V22.625C52.25 20.7643 50.7357 19.25 48.875 19.25H6.125C4.26425 19.25 2.75 20.7643 2.75 22.625V38.375C2.75 40.2358 4.26425 41.75 6.125 41.75H12.875C13.496 41.75 14 42.254 14 42.875C14 43.496 13.496 44 12.875 44H6.125C3.02225 44 0.5 41.4755 0.5 38.375V22.625C0.5 19.5245 3.02225 17 6.125 17H48.875C51.9777 17 54.5 19.5245 54.5 22.625V38.375C54.5 41.4755 51.9777 44 48.875 44Z" fill="black"/>
<path d="M33.125 50.75H19.625C19.004 50.75 18.5 50.246 18.5 49.625C18.5 49.004 19.004 48.5 19.625 48.5H33.125C33.746 48.5 34.25 49.004 34.25 49.625C34.25 50.246 33.746 50.75 33.125 50.75Z" fill="black"/>
<path d="M33.125 46.25H19.625C19.004 46.25 18.5 45.746 18.5 45.125C18.5 44.504 19.004 44 19.625 44H33.125C33.746 44 34.25 44.504 34.25 45.125C34.25 45.746 33.746 46.25 33.125 46.25Z" fill="black"/>
<path d="M24.125 41.75H19.625C19.004 41.75 18.5 41.246 18.5 40.625C18.5 40.004 19.004 39.5 19.625 39.5H24.125C24.746 39.5 25.25 40.004 25.25 40.625C25.25 41.246 24.746 41.75 24.125 41.75Z" fill="black"/>
<path d="M42.125 19.25C41.504 19.25 41 18.746 41 18.125V9.125C41 7.26425 39.4858 5.75 37.625 5.75H17.375C15.5143 5.75 14 7.26425 14 9.125V18.125C14 18.746 13.496 19.25 12.875 19.25C12.254 19.25 11.75 18.746 11.75 18.125V9.125C11.75 6.0245 14.2723 3.5 17.375 3.5H37.625C40.7278 3.5 43.25 6.0245 43.25 9.125V18.125C43.25 18.746 42.746 19.25 42.125 19.25Z" fill="black"/>
<path d="M37.625 57.5H17.375C14.2723 57.5 11.75 54.9755 11.75 51.875V33.875C11.75 33.254 12.254 32.75 12.875 32.75H42.125C42.746 32.75 43.25 33.254 43.25 33.875V51.875C43.25 54.9755 40.7278 57.5 37.625 57.5ZM14 35V51.875C14 53.7357 15.5143 55.25 17.375 55.25H37.625C39.4858 55.25 41 53.7357 41 51.875V35H14Z" fill="black"/>
</g>
<g clip-path="url(#clip1_2004_16090)">
<path d="M41.5 0C50.047 0 57 6.95296 57 15.5C57 24.047 50.047 31 41.5 31C32.953 31 26 24.047 26 15.5C26 6.95296 32.953 0 41.5 0Z" fill="#F44336"/>
<path d="M35.7933 19.3814C35.2883 19.8866 35.2883 20.7028 35.7933 21.208C36.0451 21.4599 36.3758 21.5864 36.7067 21.5864C37.0373 21.5864 37.3679 21.4599 37.6198 21.208L41.5012 17.3263L45.3826 21.208C45.6345 21.4599 45.9651 21.5864 46.2958 21.5864C46.6266 21.5864 46.9573 21.4599 47.2092 21.208C47.7141 20.7028 47.7141 19.8866 47.2092 19.3814L43.3276 15.5L47.2092 11.6186C47.7141 11.1134 47.7141 10.2972 47.2092 9.79204C46.704 9.28709 45.8878 9.28709 45.3826 9.79204L41.5012 13.6737L37.6198 9.79204C37.1146 9.28709 36.2984 9.28709 35.7933 9.79204C35.2883 10.2972 35.2883 11.1134 35.7933 11.6186L39.6749 15.5L35.7933 19.3814Z" fill="#FAFAFA"/>
</g>
<defs>
<clipPath id="clip0_2004_16090">
<rect width="54" height="54" fill="white" transform="translate(0.5 3.5)"/>
</clipPath>
<clipPath id="clip1_2004_16090">
<rect width="31" height="31" fill="white" transform="matrix(-1 0 0 1 57 0)"/>
</clipPath>
</defs>
</svg>
