<svg width="48" height="49" viewBox="0 0 48 49" fill="none" xmlns="http://www.w3.org/2000/svg">
<path d="M12 18.9578V4.95776H36V18.9578M12 36.9578H8C6.93913 36.9578 5.92172 36.5363 5.17157 35.7862C4.42143 35.036 4 34.0186 4 32.9578V22.9578C4 21.8969 4.42143 20.8795 5.17157 20.1293C5.92172 19.3792 6.93913 18.9578 8 18.9578H40C41.0609 18.9578 42.0783 19.3792 42.8284 20.1293C43.5786 20.8795 44 21.8969 44 22.9578V32.9578C44 34.0186 43.5786 35.036 42.8284 35.7862C42.0783 36.5363 41.0609 36.9578 40 36.9578H36M12 28.9578H36V44.9578H12V28.9578Z" stroke="#1E1E1E" stroke-width="4" stroke-linecap="round" stroke-linejoin="round"/>
</svg>
