<svg width="71" height="70" viewBox="0 0 71 70" fill="none" xmlns="http://www.w3.org/2000/svg">
<g clip-path="url(#clip0_294_15848)">
<path d="M29.4499 58.6479C45.4385 58.6479 58.3998 45.6866 58.3998 29.698C58.3998 13.7094 45.4385 0.748047 29.4499 0.748047C13.4613 0.748047 0.5 13.7094 0.5 29.698C0.5 45.6866 13.4613 58.6479 29.4499 58.6479Z" fill="#385AC9"/>
<path d="M58.3999 29.698C58.3999 13.7094 45.4385 0.748047 29.4499 0.748047C28.799 0.748047 28.1536 0.771699 27.5133 0.814082C41.9246 1.76619 53.453 13.2623 54.4544 27.6598C54.5225 28.638 53.7207 29.447 52.7402 29.426C52.59 29.4229 52.4393 29.4213 52.2882 29.4213C40.3483 29.4213 30.669 39.1005 30.669 51.0404C30.669 52.1617 30.7548 53.2628 30.9197 54.3378C31.2456 56.4627 29.702 58.4341 27.5572 58.5791C27.5426 58.5801 27.5279 58.581 27.5133 58.582C28.1536 58.6242 28.799 58.648 29.4499 58.648C45.533 58.6479 58.3999 45.5798 58.3999 29.698Z" fill="#385AC9"/>
<path d="M29.4499 51.9207C41.7232 51.9207 51.6727 41.9712 51.6727 29.6979C51.6727 17.4246 41.7232 7.4751 29.4499 7.4751C17.1765 7.4751 7.22705 17.4246 7.22705 29.6979C7.22705 41.9712 17.1765 51.9207 29.4499 51.9207Z" fill="#F4FBFF"/>
<path d="M51.6727 29.6979C51.6727 17.4247 41.7233 7.4751 29.4499 7.4751C28.8478 7.4751 28.2516 7.49984 27.6616 7.54688C39.1412 8.46111 48.163 18.098 48.0957 29.8282C48.0953 29.8287 48.0949 29.8292 48.0945 29.8297C38.7174 31.6732 31.7237 39.4912 30.7784 48.8202C30.6158 50.4239 29.3599 51.7065 27.7536 51.8413C27.723 51.8439 27.6924 51.8463 27.6616 51.8488C40.6019 52.8799 51.6727 42.685 51.6727 29.6979Z" fill="#DAF1F4"/>
<path d="M29.4498 14.3504C28.8663 14.3504 28.3936 13.8775 28.3936 13.2942V11.8009C28.3936 11.2174 28.8665 10.7446 29.4498 10.7446C30.0332 10.7446 30.5061 11.2175 30.5061 11.8009V13.2942C30.5061 13.8775 30.0334 14.3504 29.4498 14.3504Z" fill="#385AC9"/>
<path d="M41.0492 19.1551C40.7787 19.1551 40.5084 19.0518 40.3021 18.8455C39.8897 18.4331 39.8897 17.7642 40.3023 17.3516L41.3582 16.2959C41.7706 15.8834 42.4395 15.8835 42.8521 16.296C43.2646 16.7085 43.2646 17.3773 42.8519 17.7899L41.7961 18.8457C41.5899 19.0518 41.3195 19.1551 41.0492 19.1551Z" fill="#385AC9"/>
<path d="M47.347 30.7542H45.8537C45.2701 30.7542 44.7974 30.2813 44.7974 29.6979C44.7974 29.1144 45.2703 28.6416 45.8537 28.6416H47.347C47.9305 28.6416 48.4033 29.1145 48.4033 29.6979C48.4033 30.2813 47.9304 30.7542 47.347 30.7542Z" fill="#385AC9"/>
<path d="M29.8843 49.0857C29.3008 49.0857 28.828 48.6128 28.828 48.0294V46.536C28.828 45.9525 29.3009 45.4797 29.8843 45.4797C30.4677 45.4797 30.9406 45.9526 30.9406 46.536V48.0294C30.9407 48.6129 30.4678 49.0857 29.8843 49.0857Z" fill="#385AC9"/>
<path d="M16.7948 43.4093C16.5245 43.4093 16.2541 43.3061 16.0478 43.0999C15.6353 42.6873 15.6353 42.0186 16.0478 41.6059L17.1036 40.55C17.5163 40.1376 18.185 40.1376 18.5977 40.55C19.0102 40.9626 19.0102 41.6313 18.5977 42.044L17.5418 43.0999C17.3354 43.3062 17.0651 43.4093 16.7948 43.4093Z" fill="#385AC9"/>
<path d="M13.0461 30.7542H11.5529C10.9694 30.7542 10.4966 30.2813 10.4966 29.6979C10.4966 29.1144 10.9695 28.6416 11.5529 28.6416H13.0463C13.6298 28.6416 14.1025 29.1145 14.1025 29.6979C14.1025 30.2813 13.6296 30.7542 13.0461 30.7542Z" fill="#385AC9"/>
<path d="M17.8507 19.1551C17.5804 19.1551 17.3099 19.0518 17.1038 18.8457L16.0479 17.7899C15.6353 17.3774 15.6353 16.7086 16.0477 16.296C16.4604 15.8834 17.1292 15.8835 17.5417 16.2959L18.5976 17.3516C19.0102 17.7641 19.0102 18.4329 18.5977 18.8455C18.3914 19.0518 18.1209 19.1551 17.8507 19.1551Z" fill="#385AC9"/>
<path d="M29.4499 31.1888H24.3168C23.7333 31.1888 23.2605 30.7159 23.2605 30.1325C23.2605 29.5491 23.7334 29.0762 24.3168 29.0762H28.3936V20.1359C28.3936 19.5524 28.8665 19.0796 29.4499 19.0796C30.0333 19.0796 30.5062 19.5525 30.5062 20.1359V30.1326C30.5062 30.7159 30.0334 31.1888 29.4499 31.1888Z" fill="#385AC9"/>
<path d="M52.2883 69.2521C62.3464 69.2521 70.5001 61.0984 70.5001 51.0404C70.5001 40.9823 62.3464 32.8286 52.2883 32.8286C42.2302 32.8286 34.0765 40.9823 34.0765 51.0404C34.0765 61.0984 42.2302 69.2521 52.2883 69.2521Z" fill="#DD636E"/>
<path d="M52.2883 32.8286C51.5793 32.8286 50.8801 32.8706 50.1923 32.9495C59.2629 33.9891 66.308 41.6914 66.308 51.0404C66.308 60.3893 59.2629 68.0917 50.1923 69.1313C50.8802 69.2102 51.5793 69.2521 52.2883 69.2521C62.3464 69.2521 70.5001 61.0985 70.5001 51.0404C70.5001 40.9824 62.3464 32.8286 52.2883 32.8286Z" fill="#DA4A54"/>
<path d="M55.276 51.0403L60.6416 45.6747C61.4667 44.8497 61.4667 43.5119 60.6416 42.6869C59.8167 41.862 58.4789 41.862 57.6539 42.6869L52.2882 48.0526L46.9226 42.6869C46.0976 41.8617 44.7598 41.862 43.9349 42.6869C43.1098 43.5119 43.1098 44.8497 43.9349 45.6747L49.3005 51.0403L43.9349 56.406C43.1098 57.2309 43.1098 58.5687 43.9349 59.3937C44.3473 59.8062 44.8881 60.0125 45.4288 60.0125C45.9695 60.0125 46.5101 59.8062 46.9227 59.3937L52.2884 54.028L57.654 59.3937C58.0665 59.8063 58.6072 60.0125 59.148 60.0125C59.6887 60.0125 60.2293 59.8062 60.6419 59.3937C61.467 58.5687 61.467 57.2309 60.6419 56.406L55.276 51.0403Z" fill="#F4FBFF"/>
<path d="M55.276 51.0404L60.6416 45.6748C61.4667 44.8498 61.4667 43.512 60.6416 42.687C59.8371 41.8826 58.5462 41.865 57.7175 42.6296C57.7386 42.649 57.7606 42.6667 57.7811 42.687C58.6062 43.512 58.6062 44.8498 57.7811 45.6748L53.2998 50.156C52.8113 50.6445 52.8113 51.4365 53.2998 51.925L57.7811 56.4062C58.6062 57.2312 58.6062 58.569 57.7811 59.3939C57.7607 59.4145 57.7386 59.4321 57.7175 59.4515C58.1214 59.8242 58.6339 60.0129 59.1479 60.0129C59.6886 60.0129 60.2292 59.8066 60.6418 59.3941C61.4669 58.5691 61.4669 57.2313 60.6418 56.4064L55.276 51.0404Z" fill="#DAF1F4"/>
</g>
<defs>
<clipPath id="clip0_294_15848">
<rect width="70" height="70" fill="white" transform="translate(0.5)"/>
</clipPath>
</defs>
</svg>
