<svg width="24" height="24" viewBox="0 0 24 24" fill="none" xmlns="http://www.w3.org/2000/svg">
<rect width="24" height="24" fill="#E6ECFF"/>
<mask id="mask0_37_4534" style="mask-type:luminance" maskUnits="userSpaceOnUse" x="0" y="0" width="24" height="24">
<rect width="24" height="24" fill="white"/>
</mask>
<g mask="url(#mask0_37_4534)">
<path fill-rule="evenodd" clip-rule="evenodd" d="M4 13C4 17.411 7.589 21 12 21C16.411 21 20 17.411 20 13C20 8.589 16.411 5 12 5C7.589 5 4 8.589 4 13ZM6 13C6 9.691 8.691 7 12 7C15.309 7 18 9.691 18 13C18 16.309 15.309 19 12 19C8.691 19 6 16.309 6 13ZM13 9V14H11V9H13ZM15 2V4H9V2H15ZM17.293 5.70723L18.7073 4.29304L20.7069 6.29277L19.2927 7.70696L17.293 5.70723Z" fill="#2E3A59"/>
</g>
</svg>
