<svg width="253" height="234" viewBox="0 0 253 234" fill="none" xmlns="http://www.w3.org/2000/svg">
<rect width="366.621" height="79.6913" transform="translate(54.6411 -60) rotate(43.2875)" fill="#FF7300"/>
<path d="M122.532 41.8841L112.461 52.5759C111.358 53.7473 110.816 54.9341 110.836 56.1361C110.871 57.3216 111.442 58.435 112.547 59.4763C113.669 60.5332 114.823 61.0438 116.009 61.0084C117.21 60.9565 118.362 60.3447 119.465 59.1733L129.536 48.4816L133.026 51.7686L122.978 62.4356C121.595 63.904 120.1 64.8467 118.493 65.2636C116.918 65.6794 115.353 65.638 113.799 65.1393C112.261 64.6561 110.841 63.8007 109.537 62.5729C108.25 61.3606 107.32 60.0014 106.745 58.4953C106.188 57.0047 106.078 55.4686 106.415 53.8871C106.768 52.2891 107.636 50.7558 109.02 49.2874L119.067 38.6204L122.532 41.8841ZM125.903 77.9886C124.699 76.854 123.804 75.622 123.219 74.2926C122.65 72.9787 122.451 71.6698 122.62 70.3659C122.79 69.062 123.364 67.8743 124.342 66.8028L128.054 70.2996C127.436 71.0558 127.155 71.8499 127.212 72.682C127.285 73.5296 127.718 74.3265 128.51 75.0725C129.318 75.834 130.132 76.2426 130.952 76.2983C131.787 76.3375 132.499 76.0435 133.09 75.4166C133.572 74.9051 133.811 74.3367 133.809 73.7114C133.806 73.0861 133.651 72.4574 133.343 71.8252C133.068 71.192 132.626 70.3714 132.019 69.3633C131.208 67.9765 130.595 66.7922 130.181 65.8104C129.799 64.8277 129.655 63.7737 129.75 62.6484C129.876 61.5222 130.453 60.4146 131.478 59.3256C132.442 58.3026 133.537 57.6525 134.763 57.3754C135.99 57.0982 137.251 57.1967 138.548 57.6711C139.861 58.1289 141.111 58.9173 142.299 60.0363C144.081 61.7148 145.113 63.512 145.395 65.4277C145.709 67.3425 145.193 69.1298 143.847 70.7896L140.036 67.1995C140.562 66.5744 140.765 65.8468 140.644 65.0166C140.555 64.1854 140.123 63.4046 139.347 62.6741C138.671 62.0369 137.963 61.6973 137.224 61.6553C136.502 61.6288 135.83 61.9455 135.208 62.6055C134.773 63.0675 134.556 63.5951 134.558 64.1883C134.592 64.7806 134.738 65.3855 134.997 66.0032C135.288 66.6198 135.73 67.4404 136.322 68.465C137.133 69.8518 137.738 71.0444 138.136 72.0427C138.535 73.041 138.679 74.111 138.569 75.2528C138.459 76.3945 137.899 77.5017 136.888 78.5741C136.018 79.4981 134.971 80.1307 133.746 80.472C132.522 80.8133 131.222 80.788 129.847 80.3961C128.488 79.9878 127.173 79.1853 125.903 77.9886ZM144.934 95.5881L145.898 81.9697L138.648 89.6668L135.183 86.403L151.455 69.128L154.92 72.3917L147.623 80.1383L161.207 78.3131L165.389 82.2529L150.195 84.1022L149.315 99.7144L144.934 95.5881ZM159.45 109.588C157.833 108.065 156.705 106.286 156.067 104.253C155.429 102.22 155.344 100.162 155.811 98.0792C156.293 95.9802 157.335 94.081 158.935 92.3815C160.521 90.6986 162.339 89.5619 164.39 88.9714C166.456 88.3644 168.523 88.3187 170.591 88.8341C172.659 89.3495 174.501 90.3688 176.118 91.8919C177.752 93.4305 178.879 95.2087 179.501 97.2266C180.139 99.26 180.208 101.318 179.709 103.402C179.242 105.484 178.216 107.367 176.631 109.05C175.03 110.749 173.197 111.903 171.13 112.51C169.096 113.116 167.045 113.161 164.977 112.645C162.909 112.13 161.067 111.111 159.45 109.588ZM162.364 106.494C163.403 107.473 164.537 108.105 165.764 108.389C167.006 108.656 168.262 108.563 169.532 108.108C170.801 107.653 171.979 106.848 173.067 105.693C174.155 104.538 174.88 103.322 175.243 102.044C175.621 100.75 175.632 99.4989 175.275 98.2909C174.918 97.083 174.22 95.9894 173.181 95.0103C172.141 94.0312 171 93.3918 169.756 93.0923C168.529 92.8083 167.281 92.8937 166.012 93.3485C164.758 93.7869 163.587 94.5835 162.499 95.7385C161.411 96.8935 160.678 98.118 160.3 99.4121C159.922 100.706 159.903 101.966 160.245 103.19C160.618 104.414 161.324 105.515 162.364 106.494ZM179.936 128.558L182.466 118.236L180.832 116.697L174.491 123.429L171.026 120.165L187.298 102.89L193.783 108.998C195.119 110.257 196.032 111.568 196.522 112.933C197.027 114.281 197.13 115.576 196.831 116.82C196.563 118.063 195.963 119.179 195.031 120.169C193.958 121.307 192.657 122.028 191.127 122.33C189.612 122.616 188.04 122.318 186.41 121.437L183.945 132.334L179.936 128.558ZM183.28 114.098L186.176 116.826C187.116 117.712 188.027 118.15 188.909 118.139C189.806 118.112 190.635 117.695 191.397 116.886C192.143 116.094 192.487 115.266 192.429 114.402C192.387 113.521 191.895 112.638 190.955 111.752L188.059 109.025L183.28 114.098ZM194.737 142.826C193.12 141.303 191.992 139.525 191.354 137.491C190.716 135.458 190.631 133.4 191.098 131.318C191.58 129.219 192.622 127.319 194.223 125.62C195.808 123.937 197.626 122.8 199.677 122.21C201.743 121.603 203.81 121.557 205.878 122.073C207.946 122.588 209.788 123.607 211.405 125.13C213.039 126.669 214.166 128.447 214.788 130.465C215.426 132.498 215.495 134.557 214.997 136.64C214.53 138.723 213.504 140.605 211.918 142.288C210.318 143.988 208.484 145.141 206.418 145.748C204.383 146.354 202.332 146.399 200.264 145.884C198.196 145.368 196.354 144.349 194.737 142.826ZM197.651 139.732C198.69 140.712 199.824 141.343 201.051 141.627C202.294 141.895 203.55 141.801 204.819 141.346C206.088 140.891 207.267 140.086 208.354 138.931C209.442 137.776 210.168 136.56 210.53 135.282C210.909 133.988 210.919 132.737 210.562 131.529C210.206 130.321 209.507 129.228 208.468 128.249C207.428 127.27 206.287 126.63 205.043 126.331C203.816 126.047 202.568 126.132 201.299 126.587C200.045 127.025 198.874 127.822 197.786 128.977C196.699 130.132 195.965 131.356 195.587 132.651C195.209 133.945 195.191 135.204 195.532 136.428C195.905 137.652 196.612 138.753 197.651 139.732Z" fill="white"/>
</svg>
