<svg width="446" height="307" viewBox="0 0 446 307" fill="none" xmlns="http://www.w3.org/2000/svg">
<rect width="683.157" height="110.092" transform="translate(75.5093 -135.182) rotate(43.2875)" fill="#FF7300"/>
<path d="M248.185 86.2842L238.114 96.9759C237.011 98.1474 236.469 99.3341 236.489 100.536C236.524 101.722 237.095 102.835 238.2 103.876C239.322 104.933 240.476 105.444 241.661 105.408C242.862 105.356 244.015 104.745 245.118 103.573L255.189 92.8816L258.679 96.1686L248.631 106.836C247.248 108.304 245.753 109.247 244.146 109.664C242.571 110.079 241.006 110.038 239.452 109.539C237.914 109.056 236.493 108.201 235.19 106.973C233.903 105.761 232.972 104.401 232.398 102.895C231.841 101.405 231.73 99.8686 232.068 98.2871C232.421 96.6891 233.289 95.1559 234.672 93.6874L244.72 83.0204L248.185 86.2842ZM251.556 122.389C250.351 121.254 249.457 120.022 248.872 118.693C248.303 117.379 248.104 116.07 248.273 114.766C248.443 113.462 249.017 112.274 249.995 111.203L253.707 114.7C253.088 115.456 252.807 116.25 252.864 117.082C252.938 117.93 253.371 118.726 254.163 119.472C254.971 120.234 255.785 120.643 256.604 120.698C257.439 120.737 258.152 120.444 258.743 119.817C259.225 119.305 259.464 118.737 259.461 118.111C259.459 117.486 259.304 116.857 258.996 116.225C258.721 115.592 258.279 114.771 257.672 113.763C256.861 112.377 256.248 111.192 255.834 110.21C255.452 109.228 255.308 108.174 255.403 107.048C255.529 105.922 256.105 104.815 257.131 103.726C258.095 102.703 259.19 102.053 260.416 101.775C261.643 101.498 262.904 101.597 264.201 102.071C265.514 102.529 266.764 103.317 267.952 104.436C269.734 106.115 270.766 107.912 271.048 109.828C271.361 111.743 270.846 113.53 269.5 115.19L265.689 111.599C266.215 110.974 266.418 110.247 266.297 109.417C266.208 108.585 265.776 107.805 265 107.074C264.324 106.437 263.616 106.097 262.877 106.055C262.155 106.029 261.483 106.346 260.861 107.005C260.426 107.467 260.209 107.995 260.211 108.588C260.245 109.181 260.391 109.786 260.65 110.403C260.941 111.02 261.383 111.84 261.974 112.865C262.786 114.252 263.39 115.444 263.789 116.443C264.188 117.441 264.332 118.511 264.222 119.653C264.112 120.795 263.551 121.902 262.541 122.974C261.671 123.898 260.623 124.531 259.399 124.872C258.175 125.213 256.875 125.188 255.5 124.796C254.141 124.388 252.826 123.585 251.556 122.389ZM270.587 139.988L271.551 126.37L264.301 134.067L260.836 130.803L277.108 113.528L280.573 116.792L273.276 124.538L286.859 122.713L291.042 126.653L275.848 128.502L274.968 144.114L270.587 139.988ZM285.103 153.988C283.486 152.465 282.358 150.686 281.72 148.653C281.082 146.62 280.996 144.562 281.463 142.479C281.946 140.38 282.987 138.481 284.588 136.782C286.173 135.099 287.991 133.962 290.042 133.371C292.109 132.764 294.176 132.719 296.244 133.234C298.312 133.75 300.154 134.769 301.771 136.292C303.404 137.831 304.532 139.609 305.154 141.627C305.792 143.66 305.861 145.718 305.362 147.802C304.895 149.884 303.869 151.767 302.284 153.45C300.683 155.149 298.85 156.303 296.783 156.91C294.749 157.516 292.698 157.561 290.63 157.045C288.562 156.53 286.72 155.511 285.103 153.988ZM288.017 150.894C289.056 151.873 290.189 152.505 291.417 152.789C292.659 153.056 293.915 152.963 295.184 152.508C296.454 152.053 297.632 151.248 298.72 150.093C299.808 148.938 300.533 147.722 300.896 146.444C301.274 145.15 301.285 143.899 300.928 142.691C300.571 141.483 299.873 140.389 298.834 139.41C297.794 138.431 296.653 137.792 295.409 137.492C294.182 137.208 292.934 137.294 291.664 137.749C290.411 138.187 289.24 138.984 288.152 140.139C287.064 141.294 286.331 142.518 285.953 143.812C285.575 145.106 285.556 146.366 285.897 147.59C286.271 148.814 286.977 149.915 288.017 150.894ZM305.589 172.958L308.118 162.636L306.485 161.097L300.144 167.829L296.679 164.565L312.951 147.29L319.436 153.398C320.772 154.657 321.685 155.968 322.175 157.333C322.68 158.681 322.783 159.976 322.484 161.22C322.216 162.463 321.616 163.579 320.684 164.569C319.611 165.707 318.31 166.428 316.779 166.73C315.265 167.016 313.692 166.718 312.063 165.837L309.598 176.734L305.589 172.958ZM308.933 158.498L311.828 161.226C312.769 162.112 313.68 162.55 314.562 162.539C315.459 162.512 316.288 162.095 317.05 161.286C317.796 160.494 318.14 159.666 318.082 158.802C318.039 157.921 317.548 157.038 316.608 156.152L313.712 153.425L308.933 158.498ZM320.39 187.226C318.773 185.703 317.645 183.925 317.007 181.891C316.369 179.858 316.284 177.8 316.751 175.718C317.233 173.619 318.275 171.719 319.875 170.02C321.461 168.337 323.279 167.2 325.33 166.61C327.396 166.003 329.463 165.957 331.531 166.473C333.599 166.988 335.441 168.007 337.058 169.53C338.692 171.069 339.819 172.847 340.441 174.865C341.079 176.898 341.148 178.957 340.649 181.04C340.182 183.123 339.156 185.005 337.571 186.688C335.97 188.388 334.137 189.541 332.07 190.148C330.036 190.754 327.985 190.799 325.917 190.284C323.849 189.768 322.007 188.749 320.39 187.226ZM323.304 184.132C324.343 185.112 325.477 185.743 326.704 186.027C327.946 186.295 329.202 186.201 330.472 185.746C331.741 185.291 332.919 184.486 334.007 183.331C335.095 182.176 335.82 180.96 336.183 179.683C336.561 178.388 336.572 177.137 336.215 175.929C335.858 174.721 335.16 173.628 334.121 172.649C333.081 171.67 331.94 171.03 330.696 170.731C329.469 170.447 328.221 170.532 326.952 170.987C325.698 171.425 324.527 172.222 323.439 173.377C322.351 174.532 321.618 175.756 321.24 177.051C320.862 178.345 320.843 179.604 321.185 180.828C321.558 182.052 322.264 183.153 323.304 184.132Z" fill="white"/>
</svg>
