<svg width="65" height="64" viewBox="0 0 65 64" fill="none" xmlns="http://www.w3.org/2000/svg">
<g clip-path="url(#clip0_294_14438)">
<path d="M40.8672 7.83016L63.2093 46.528C64.0287 47.9472 64.4998 49.5924 64.4998 51.3488C64.4998 56.6825 60.1758 61.0068 54.8418 61.0068H32.4998L24.7734 31.9999L32.4998 2.99316C36.0773 2.99316 39.1982 4.93979 40.8672 7.83016Z" fill="#3B4145"/>
<path d="M24.1326 7.83016L1.79037 46.528C0.971125 47.9472 0.5 49.5924 0.5 51.3488C0.5 56.6825 4.824 61.0068 10.158 61.0068H32.5V2.99316C28.9225 2.99316 25.8016 4.93979 24.1326 7.83016Z" fill="#525A61"/>
<path d="M59.864 48.4596L37.522 9.76212C36.515 8.01724 34.6659 6.91624 32.666 6.85962L51.7746 57.144H54.842C58.0369 57.144 60.6368 54.5442 60.6368 51.3492C60.6368 50.3345 60.3689 49.3352 59.864 48.4596Z" fill="#FFB751"/>
<path d="M56.1067 48.4596C56.5432 49.3352 56.7737 50.3345 56.7737 51.3492C56.7737 54.5441 54.5318 57.144 51.7747 57.144H10.158C6.96316 57.144 4.36328 54.5441 4.36328 51.3492C4.36328 50.3345 4.63116 49.3352 5.13591 48.4596L27.4779 9.76209C28.5133 7.96959 30.4372 6.85571 32.5 6.85571C32.5554 6.85571 32.6108 6.85696 32.6662 6.85959C34.3827 6.92659 35.9679 8.02496 36.8319 9.76209L56.1067 48.4596Z" fill="#FFD764"/>
<path d="M32.5 44.2662V50.7049C34.2784 50.7049 35.7194 49.2639 35.7194 47.4855C35.7194 45.7072 34.2784 44.2662 32.5 44.2662Z" fill="#3B4145"/>
<path d="M32.4996 44.2662C32.855 44.2662 33.1435 45.7072 33.1435 47.4856C33.1435 49.264 32.855 50.705 32.4996 50.705C30.7213 50.705 29.2803 49.264 29.2803 47.4856C29.2803 45.7072 30.7213 44.2662 32.4996 44.2662Z" fill="#525A61"/>
<path d="M32.5 16.5806V40.4036C34.2784 40.4036 35.7194 38.9613 35.7194 37.1842V19.7999C35.7194 18.0216 34.2784 16.5806 32.5 16.5806Z" fill="#3B4145"/>
<path d="M32.4996 16.5807C32.855 16.5807 33.1435 18.0217 33.1435 19.8001V37.1843C33.1435 38.9613 32.855 40.4037 32.4996 40.4037C30.7213 40.4037 29.2803 38.9614 29.2803 37.1843V19.8001C29.2803 18.0217 30.7213 16.5807 32.4996 16.5807Z" fill="#525A61"/>
</g>
<defs>
<clipPath id="clip0_294_14438">
<rect width="64" height="64" fill="white" transform="translate(0.5 -0.00012207)"/>
</clipPath>
</defs>
</svg>
