<svg width="483" height="351" viewBox="0 0 483 351" fill="none" xmlns="http://www.w3.org/2000/svg">
<path d="M0.173828 350.55H482.48V315.487H35.2374C15.8723 315.487 0.173828 331.185 0.173828 350.55Z" fill="#6167CD"/>
<path d="M240.43 66.7744C258.869 66.7744 273.817 51.8264 273.817 33.3872C273.817 14.948 258.869 0 240.43 0C221.991 0 207.043 14.948 207.043 33.3872C207.043 51.8264 221.991 66.7744 240.43 66.7744Z" fill="white"/>
<path d="M338.134 83.9614V77.1184H335.88V83.9614H329.037V86.2155H335.88V93.0585H338.134V86.2155H344.977V83.9614H338.134Z" fill="white"/>
<path d="M432.87 185.983H420.472C420.472 178.48 414.367 172.377 406.865 172.377C399.363 172.377 393.26 178.48 393.26 185.983H380.861C380.861 171.644 392.527 159.979 406.865 159.979C421.204 159.979 432.87 171.644 432.87 185.983Z" fill="white"/>
<path d="M351.881 166.291H128.98V210.238H351.881V166.291Z" fill="white"/>
<path d="M339.326 210.068H141.537V315.487H339.326V210.068Z" fill="white"/>
<path d="M260.067 166.291H220.797V210.238H260.067V166.291Z" fill="#E9B43C"/>
<path d="M260.067 210.068H220.797V315.487H260.067V210.068Z" fill="#687DBB"/>
<path d="M260.067 210.068H220.797V315.487H260.067V210.068Z" fill="#E9B43C"/>
<path opacity="0.15" d="M339.326 210.068H141.537V226.196H339.326V210.068Z" fill="black"/>
<path d="M303.389 221.007C298.854 208.465 293.094 196.365 286.219 184.937C283.212 179.938 279.777 175.208 275.68 171.421C283.081 170.992 290.37 169.26 296.822 165.678C301.013 163.352 304.804 160.262 307.744 156.477C315.711 146.223 316.416 130.908 309.424 119.966C302.432 109.023 288.239 103.228 275.587 106.149C257.55 110.314 248.375 130.534 240.432 149.369C232.49 130.533 223.314 110.313 205.277 106.149C192.625 103.228 178.431 109.024 171.44 119.966C164.448 130.908 165.153 146.223 173.12 156.477C176.061 160.262 179.851 163.352 184.042 165.678C190.495 169.26 197.784 170.992 205.185 171.421C201.087 175.208 197.652 179.938 194.645 184.937C187.77 196.366 182.01 208.465 177.475 221.007C176.278 224.317 171.636 244.652 167.7 245.227C167.705 245.227 187.064 242.33 187.064 242.33L200.041 254.397C200.041 254.397 203.627 223.257 214.069 201.031C218.433 191.742 223.133 179.977 230.001 171.434C231.718 169.298 234.098 167.781 236.744 167.063C236.769 167.056 236.793 167.05 236.818 167.043C239.187 166.399 241.678 166.399 244.048 167.043C244.072 167.05 244.097 167.056 244.121 167.063C246.767 167.781 249.147 169.298 250.864 171.434C257.732 179.977 262.432 191.742 266.796 201.031C277.238 223.257 280.824 254.397 280.824 254.397L293.801 242.33C293.801 242.33 313.16 245.226 313.165 245.227C309.228 244.651 304.586 224.317 303.389 221.007ZM236.846 157.855C230.719 160.077 224.539 162.278 218.063 163.142C211.425 164.027 204.375 163.422 198.225 160.147C195.487 158.69 192.958 156.712 190.922 154.25C185.407 147.581 184.151 137.362 187.929 129.888C191.706 122.414 200.249 118.213 208.296 119.873C222.76 122.857 229.798 143.22 237.083 157.256C236.987 157.498 236.942 157.613 236.846 157.855ZM262.801 163.142C256.326 162.278 250.145 160.077 244.019 157.855C243.922 157.613 243.877 157.498 243.781 157.256C251.066 143.22 258.105 122.857 272.568 119.873C280.615 118.213 289.158 122.414 292.936 129.888C296.713 137.362 295.458 147.581 289.942 154.25C287.907 156.712 285.378 158.69 282.64 160.147C276.49 163.422 269.439 164.027 262.801 163.142Z" fill="#E9B43C"/>
<path fill-rule="evenodd" clip-rule="evenodd" d="M133.414 201.369L83.7847 249.353C83.2006 249.917 82.8733 250.686 82.8598 251.497C82.846 252.308 83.1473 253.087 83.7121 253.671L112.035 282.966C112.6 283.55 113.369 283.877 114.18 283.891C114.991 283.905 115.77 283.603 116.354 283.039L165.983 235.055C166.568 234.49 166.895 233.722 166.909 232.911C166.923 232.099 166.621 231.32 166.057 230.736L137.733 201.441C137.169 200.857 136.4 200.53 135.589 200.517C134.777 200.503 133.998 200.804 133.414 201.369Z" fill="#687DBB"/>
<path d="M141.27 205.1L147.373 211.413L148.258 212.328L147.414 213.145L95.0813 263.742L94.2374 264.559L93.352 263.643L87.2487 257.33L86.3633 256.415L87.2076 255.599L139.541 205.001L140.384 204.185L141.27 205.1Z" fill="white"/>
<path d="M108.165 265.913C108.198 263.957 108.977 262.014 110.494 260.548C112.011 259.081 113.979 258.368 115.934 258.401C117.89 258.434 119.833 259.213 121.299 260.73C122.766 262.247 123.479 264.215 123.446 266.17C123.413 268.126 122.634 270.068 121.117 271.535C119.6 273.002 117.632 273.714 115.677 273.682C113.722 273.649 111.779 272.87 110.312 271.353C108.845 269.836 108.132 267.868 108.165 265.913Z" fill="#6167CD"/>
<path d="M113.25 265.998C113.261 265.344 113.522 264.695 114.029 264.205C114.536 263.714 115.195 263.476 115.848 263.487C116.502 263.498 117.152 263.758 117.642 264.265C118.133 264.773 118.371 265.431 118.36 266.084C118.349 266.738 118.088 267.388 117.581 267.878C117.074 268.369 116.416 268.607 115.762 268.596C115.108 268.585 114.458 268.325 113.968 267.817C113.478 267.31 113.239 266.652 113.25 265.998Z" fill="white"/>
<path d="M144.867 236.755C145.185 236.449 145.727 236.494 146.076 236.854C146.426 237.213 146.45 237.755 146.134 238.064L140.266 243.735C140.121 243.876 139.92 243.948 139.7 243.936C139.462 243.924 139.235 243.816 139.06 243.636C138.885 243.455 138.786 243.224 138.781 242.986C138.78 242.922 138.787 242.86 138.799 242.801C138.829 242.656 138.898 242.527 139.002 242.426L144.867 236.755ZM134.65 246.634L128.784 252.305C128.678 252.408 128.609 252.539 128.579 252.68C128.522 252.957 128.611 253.276 128.843 253.515C129.191 253.875 129.734 253.92 130.051 253.614L135.916 247.942C136.064 247.8 136.14 247.601 136.136 247.383C136.131 247.145 136.033 246.914 135.857 246.733C135.683 246.553 135.456 246.446 135.217 246.432C134.999 246.421 134.797 246.492 134.652 246.634H134.65ZM149.219 232.548C149.112 232.651 149.044 232.782 149.014 232.924C148.957 233.201 149.046 233.519 149.277 233.758C149.626 234.119 150.169 234.163 150.486 233.857L156.351 228.185C156.497 228.044 156.575 227.846 156.571 227.625C156.566 227.387 156.468 227.157 156.292 226.975C155.944 226.614 155.402 226.57 155.085 226.876L149.219 232.548Z" fill="white"/>
<path d="M136.904 230.955L113.235 253.839C112.959 254.107 112.517 254.1 112.249 253.822C111.981 253.545 111.989 253.104 112.266 252.836L135.934 229.952C136.211 229.684 136.652 229.692 136.92 229.969C137.189 230.246 137.182 230.687 136.904 230.955Z" fill="white"/>
<path d="M383.208 265.492C385.125 259.887 379.739 257.749 376.705 252.661C373.545 247.362 369.886 245.518 366.1 245.022C360.744 244.32 357.99 238.798 353.101 236.655C348.212 234.51 342.285 236.223 338.141 232.758C335.212 230.308 331.377 228.865 325.338 230.129C319.539 231.342 314.319 228.827 311.493 234.034C294.957 264.505 310.029 283.612 323.789 268.716C323.789 268.716 330.117 271.493 336.576 274.328C343.035 277.16 349.365 279.935 349.365 279.935C347.724 300.147 371.989 298.295 383.208 265.492Z" fill="white"/>
<path d="M326.493 247.629L331.606 245.634L329.468 240.153L324.354 242.148L322.358 237.033L316.877 239.172L318.873 244.287L313.758 246.283L315.897 251.764L321.012 249.768L323.007 254.881L328.488 252.743L326.493 247.629Z" fill="white"/>
<path d="M373.004 264.926C371.252 265.61 369.277 264.744 368.594 262.991C367.91 261.239 368.776 259.264 370.528 258.581C372.281 257.897 374.255 258.763 374.939 260.515C375.623 262.268 374.757 264.242 373.004 264.926ZM361.103 265.915C360.419 264.162 358.444 263.296 356.692 263.98C354.94 264.663 354.074 266.638 354.757 268.391C355.441 270.143 357.416 271.009 359.168 270.325C360.92 269.641 361.786 267.667 361.103 265.915ZM370.841 270.442C370.157 268.69 368.182 267.823 366.43 268.507C364.678 269.191 363.812 271.166 364.495 272.918C365.179 274.67 367.154 275.536 368.906 274.853C370.658 274.169 371.524 272.194 370.841 270.442ZM365.201 255.988C364.517 254.236 362.543 253.37 360.79 254.054C359.038 254.737 358.172 256.712 358.856 258.465C359.539 260.217 361.514 261.083 363.266 260.399C365.019 259.715 365.885 257.741 365.201 255.988Z" fill="#C63D46"/>
<path d="M336.763 262.908L331.803 260.733C330.968 260.366 329.994 260.746 329.628 261.582C329.261 262.417 329.642 263.391 330.477 263.757L335.437 265.933C336.272 266.299 337.246 265.919 337.612 265.084C337.979 264.248 337.598 263.275 336.763 262.908Z" fill="#687DBB"/>
<path d="M348.163 267.909L343.204 265.733C342.369 265.367 341.394 265.747 341.028 266.582C340.662 267.418 341.042 268.392 341.877 268.758L346.837 270.933C347.672 271.3 348.646 270.92 349.012 270.084C349.379 269.249 348.999 268.275 348.163 267.909Z" fill="#687DBB"/>
<path d="M349.092 250.643C347.82 253.542 345.823 255.47 344.632 254.947C343.44 254.424 343.506 251.65 344.778 248.75C346.05 245.85 348.047 243.923 349.239 244.446C350.43 244.969 350.364 247.743 349.092 250.643Z" fill="#6167CD"/>
<path d="M345.989 251.854C343.089 250.582 341.162 248.585 341.685 247.393C342.208 246.201 344.982 246.267 347.882 247.539C350.782 248.811 352.709 250.808 352.186 252C351.664 253.191 348.889 253.126 345.989 251.854Z" fill="#6167CD"/>
<path fill-rule="evenodd" clip-rule="evenodd" d="M259.711 20.7087L267.906 26.4737L267.454 27.1157L269.006 28.2075L266.13 32.2952L266.603 32.6278L269.479 28.54L271.069 29.6589L271.521 29.0169L310.16 56.1991C311.946 57.455 312.378 59.9439 311.123 61.7282L292.423 88.3096C291.168 90.0939 288.678 90.5273 286.894 89.2721L248.254 62.0899L248.706 61.4479L247.116 60.329L249.983 56.2536L249.51 55.9211L246.643 59.9964L245.091 58.9047L244.639 59.5467L236.444 53.7817C234.66 52.5264 234.226 50.0378 235.482 48.2525L235.931 47.6146L237.826 48.9478L240.369 45.3327L238.474 43.9995L241.017 40.3844L242.912 41.7176L245.455 38.1025L243.56 36.7693L246.103 33.1542L247.998 34.4874L250.542 30.8723L248.646 29.5392L251.19 25.9241L253.085 27.2572L255.628 23.6421L253.733 22.309L254.181 21.6711C255.437 19.8858 257.925 19.4527 259.711 20.7087ZM251.645 53.891L251.172 53.5585L254.496 48.8334L254.969 49.1659L251.645 53.891ZM256.631 46.8033L256.158 46.4708L259.482 41.7456L259.955 42.0781L256.631 46.8033ZM261.617 39.7155L261.144 39.383L264.468 34.6578L264.941 34.9903L261.617 39.7155Z" fill="#6167CD"/>
<path d="M270.793 55.8335L272.418 56.9769L270.406 59.8372L268.781 58.6938L266.388 62.0947L262.683 59.4883L265.076 56.0875L258.882 51.7304L260.259 49.3099L273.924 43.5088L273.948 43.475L277.653 46.0813L270.793 55.8335ZM264.205 51.1991L267.088 53.2271L270.552 48.3023L270.056 48.5139L264.205 51.1991ZM285.364 65.6631C283.84 67.8289 282.183 69.155 280.385 69.6459C278.586 70.1369 276.808 69.7613 275.04 68.5175C273.257 67.2632 272.293 65.7047 272.149 63.8358C272.009 61.9694 272.691 59.9632 274.204 57.8124L276.264 54.8845C277.787 52.7186 279.444 51.3926 281.243 50.9016C283.041 50.4106 284.824 50.7889 286.599 52.0379C288.375 53.287 289.334 54.8428 289.478 56.7118C289.618 58.5781 288.934 60.5881 287.415 62.7465L285.364 65.6631ZM284.051 59.6558C284.862 58.5035 285.317 57.5382 285.418 56.7564C285.516 55.9784 285.24 55.3577 284.587 54.8983C283.949 54.4493 283.302 54.3873 282.641 54.7132C281.976 55.0365 281.259 55.7278 280.484 56.7818L277.603 60.8771C276.761 62.0745 276.296 63.0548 276.205 63.8216C276.117 64.5846 276.399 65.1978 277.052 65.6572C277.682 66.1008 278.338 66.158 279.019 65.8288C279.696 65.5032 280.447 64.7632 281.263 63.6198L284.051 59.6558Z" fill="white"/>
<path d="M288.811 64.4946C289.283 63.8243 289.883 63.421 290.618 63.284C291.35 63.1496 292.053 63.3191 292.723 63.7906C293.401 64.2677 293.799 64.8763 293.913 65.6101C294.027 66.3439 293.839 67.0612 293.349 67.7577L292.966 68.3023C292.491 68.9778 291.888 69.3792 291.161 69.5057C290.434 69.6323 289.741 69.4657 289.081 69.0015C288.416 68.5337 288.017 67.9322 287.883 67.1997C287.748 66.4671 287.933 65.7434 288.434 65.0313L288.811 64.4946ZM289.456 65.8252C289.174 66.2258 289.057 66.6323 289.1 67.0499C289.142 67.4675 289.353 67.8076 289.733 68.0747C290.094 68.3289 290.476 68.4095 290.875 68.3148C291.273 68.2226 291.624 67.9569 291.93 67.5223L292.324 66.962C292.606 66.5614 292.728 66.1541 292.692 65.7376C292.655 65.3237 292.448 64.9828 292.071 64.7175C291.692 64.4504 291.301 64.3714 290.899 64.4759C290.495 64.583 290.145 64.846 289.85 65.2649L289.456 65.8252ZM289.836 74.5937C290.308 73.9234 290.908 73.5201 291.639 73.3884C292.37 73.2566 293.071 73.4287 293.741 73.9002C294.411 74.3717 294.81 74.9732 294.937 75.7047C295.065 76.4362 294.878 77.158 294.379 77.8676L293.995 78.4122C293.524 79.0825 292.922 79.4813 292.192 79.6131C291.461 79.7448 290.764 79.5791 290.098 79.1112C289.433 78.6433 289.035 78.0419 288.9 77.3093C288.766 76.5768 288.948 75.8557 289.447 75.1462L289.836 74.5937L289.836 74.5937ZM290.476 75.9322C290.192 76.3354 290.073 76.7445 290.117 77.1595C290.16 77.5771 290.371 77.9172 290.751 78.1843C291.117 78.4422 291.501 78.5246 291.9 78.4254C292.297 78.3288 292.648 78.0631 292.954 77.6285L293.353 77.0604C293.637 76.6571 293.755 76.2506 293.713 75.8375C293.669 75.4269 293.461 75.0887 293.089 74.8271C292.725 74.5711 292.341 74.4886 291.934 74.5824C291.532 74.6753 291.177 74.9346 290.875 75.364L290.476 75.9322ZM285.69 74.5067L285.239 73.434L296.824 68.5544L297.275 69.6271L285.69 74.5067Z" fill="white"/>
<path d="M246.41 50.4502C246.887 50.877 247.153 51.3506 247.208 51.8731C247.263 52.3946 247.103 52.9232 246.726 53.4592C246.318 54.0402 245.781 54.3591 245.119 54.4168C244.456 54.4725 243.775 54.2552 243.076 53.7638L242.603 53.4313C242.146 53.1093 241.8 52.7457 241.568 52.3379C241.337 51.9301 241.233 51.5122 241.258 51.0819C241.283 50.6517 241.434 50.239 241.71 49.8459C242.078 49.3226 242.518 49.0063 243.031 48.8968C243.545 48.786 244.077 48.8866 244.63 49.198L244.171 49.8505C243.739 49.6293 243.37 49.552 243.062 49.6166C242.753 49.6816 242.48 49.8828 242.243 50.2206C241.952 50.6344 241.876 51.0674 242.017 51.5182C242.157 51.9683 242.512 52.3932 243.076 52.7905L243.553 53.1254C244.087 53.5017 244.59 53.6883 245.063 53.688C245.535 53.6858 245.912 53.4857 246.194 53.0845C246.447 52.7249 246.56 52.3906 246.532 52.0838C246.505 51.7769 246.312 51.4495 245.951 51.1026L246.41 50.4502ZM248.951 45.2624C249.433 45.6014 249.797 45.9781 250.043 46.3936C250.289 46.8081 250.402 47.2304 250.382 47.6608C250.361 48.0912 250.212 48.5047 249.933 48.9012C249.66 49.2886 249.324 49.5636 248.923 49.7295C248.522 49.8955 248.087 49.9377 247.618 49.8544C247.149 49.7723 246.682 49.5694 246.214 49.2472L245.859 48.9974C245.386 48.6649 245.025 48.2887 244.778 47.8684C244.531 47.4501 244.417 47.0218 244.436 46.5855C244.455 46.1504 244.6 45.7376 244.873 45.3503C245.149 44.9572 245.49 44.6763 245.891 44.5105C246.293 44.3434 246.731 44.3055 247.207 44.3988C247.683 44.4909 248.161 44.7061 248.64 45.0435L248.951 45.2624ZM248.18 45.683C247.598 45.2735 247.068 45.0764 246.592 45.0915C246.115 45.1057 245.729 45.3236 245.433 45.7444C245.144 46.1548 245.073 46.587 245.22 47.0419C245.366 47.496 245.713 47.9212 246.261 48.3174L246.623 48.572C247.188 48.9694 247.715 49.1628 248.205 49.1524C248.695 49.142 249.087 48.9282 249.38 48.512C249.675 48.0924 249.75 47.6615 249.606 47.2172C249.463 46.7737 249.11 46.3476 248.545 45.9401L248.18 45.683ZM249.452 38.9874L252.798 41.3407C253.259 41.669 253.536 42.0822 253.627 42.5791C253.719 43.0761 253.609 43.5847 253.296 44.1056L253.182 44.2822C252.804 44.8205 252.357 45.1472 251.842 45.2622C251.326 45.3783 250.812 45.2583 250.299 44.9044L246.948 42.547L247.4 41.9049L250.729 44.2469C251.085 44.4975 251.43 44.5953 251.765 44.538C252.1 44.4807 252.394 44.2706 252.65 43.9075C252.908 43.541 253.007 43.1908 252.949 42.8581C252.89 42.5254 252.682 42.2348 252.326 41.9842L248.993 39.6398L249.452 38.9874ZM253.625 39.4204L255.548 40.773L255.092 41.4209L250.174 37.9614L251.45 36.1481C251.828 35.6098 252.262 35.2856 252.752 35.1739C253.241 35.0614 253.713 35.1655 254.166 35.4842C254.643 35.8199 254.906 36.2273 254.954 36.7075C255.002 37.1877 254.831 37.7062 254.44 38.2619L253.625 39.4204L253.625 39.4204ZM253.092 39.0457L253.912 37.8803C254.156 37.5333 254.261 37.2106 254.227 36.911C254.194 36.6122 254.023 36.3538 253.714 36.1365C253.421 35.9305 253.122 35.8581 252.816 35.9185C252.511 35.9796 252.241 36.1692 252.008 36.4859L251.162 37.6882L253.092 39.0457ZM258.521 31.6589C259.003 31.9979 259.367 32.3746 259.612 32.7901C259.859 33.2045 259.972 33.627 259.951 34.0573C259.931 34.4877 259.782 34.9012 259.503 35.2977C259.23 35.685 258.894 35.9601 258.493 36.126C258.092 36.2919 257.657 36.3342 257.188 36.2509C256.719 36.1688 256.251 35.9659 255.784 35.6437L255.429 35.3939C254.956 35.0614 254.595 34.6852 254.348 34.2649C254.101 33.8466 253.987 33.4183 254.006 32.982C254.025 32.5469 254.17 32.1341 254.443 31.7468C254.719 31.3537 255.06 31.0728 255.461 30.9069C255.863 30.7398 256.301 30.702 256.777 30.7953C257.253 30.8873 257.731 31.1026 258.21 31.44L258.521 31.6589ZM257.75 32.0795C257.168 31.67 256.638 31.4729 256.162 31.488C255.685 31.5022 255.299 31.7201 255.003 32.1409C254.714 32.5512 254.643 32.9835 254.79 33.4384C254.936 33.8925 255.283 34.3176 255.831 34.7138L256.193 34.9685C256.758 35.3658 257.285 35.5593 257.775 35.5489C258.265 35.5385 258.657 35.3246 258.949 34.9085C259.245 34.4889 259.32 34.0579 259.176 33.6137C259.033 33.1702 258.68 32.7441 258.115 32.3366L257.75 32.0795ZM264.164 28.524L263.706 29.1753L258.175 28.9858L261.964 31.6513L261.506 32.3026L256.589 28.8432L257.047 28.1919L262.599 28.3878L258.793 25.7101L259.247 25.0645L264.164 28.524Z" fill="white"/>
<path fill-rule="evenodd" clip-rule="evenodd" d="M264.144 64.5799L263.686 66.0575L264.953 66.9452L263.406 66.9658L262.953 68.4452L262.456 66.9803L260.909 67.0069L262.148 66.081L261.645 64.618L262.908 65.5106L264.144 64.5799Z" fill="white"/>
<path fill-rule="evenodd" clip-rule="evenodd" d="M268.316 67.5156L267.858 68.9932L269.125 69.881L267.578 69.9016L267.125 71.381L266.627 69.9161L265.081 69.9427L266.32 69.0167L265.817 67.5538L267.08 68.4463L268.316 67.5156Z" fill="white"/>
<path fill-rule="evenodd" clip-rule="evenodd" d="M272.49 70.4517L272.032 71.9293L273.299 72.817L271.752 72.8377L271.299 74.3171L270.801 72.8522L269.254 72.8787L270.494 71.9528L269.991 70.4898L271.254 71.3824L272.49 70.4517Z" fill="white"/>
<path fill-rule="evenodd" clip-rule="evenodd" d="M276.664 73.3877L276.205 74.8653L277.472 75.753L275.925 75.7737L275.473 77.2531L274.975 75.7882L273.428 75.8148L274.668 74.8888L274.164 73.4259L275.428 74.3184L276.664 73.3877Z" fill="white"/>
<path fill-rule="evenodd" clip-rule="evenodd" d="M280.838 76.3238L280.379 77.8014L281.646 78.6891L280.099 78.7097L279.647 80.1891L279.149 78.7242L277.602 78.7508L278.841 77.8249L278.338 76.3619L279.602 77.2545L280.838 76.3238Z" fill="white"/>
</svg>
